<svg width="237" height="51" fill="none" xmlns="http://www.w3.org/2000/svg"><path d="M73.864 7.052H58.96v13.672h4.56v-9.116h8.065v9.116h4.555V7.052h-2.275zm136.632.115v4.441h-8.065v-4.44h-4.555v13.676h4.555v-4.676h8.065v4.676h4.561V7.167h-4.561zM193.354 10.7V6.948h-15.208V20.62h15.208v-3.754h-10.648V15.66h9.86v-3.754h-9.86V10.7h10.648zm-76.103-3.753H99.278v4.555h6.706v9.117h4.561v-9.117h6.706V6.947zM90.915 20.83H85.78a6.975 6.975 0 01-6.96-6.826v-.135a6.97 6.97 0 016.96-6.826h5.136a6.96 6.96 0 016.956 6.826v.135a6.966 6.966 0 01-6.956 6.826zm-7.68-6.894a2.52 2.52 0 002.52 2.453h5.136a2.453 2.453 0 100-4.906H85.78a2.52 2.52 0 00-2.52 2.453m146.779 6.74h-5.136a6.964 6.964 0 01-6.966-6.826v-.115a6.965 6.965 0 016.956-6.827h5.137a6.97 6.97 0 016.97 6.827v.134a6.969 6.969 0 01-6.961 6.826v-.019zm-7.681-6.874a2.528 2.528 0 002.521 2.453h5.136a2.453 2.453 0 100-4.906h-5.136a2.527 2.527 0 00-2.521 2.453zm-85.482-1.253a5.55 5.55 0 00-5.54-5.449h-10.585v13.672h4.56V18.09h6.025a5.55 5.55 0 005.54-5.449v-.091zm-5.54 1.1h-6.025v-2.113h6.025a1.057 1.057 0 010 2.112zm11.07 6.955l.869-2.04h7.32l.869 2.04h4.633l.273-.115-5.76-13.528h-7.331l-5.832 13.643h4.959zm4.527-10.6l1.713 4.004h-3.422l1.709-4.003zM173.407 7.1h-4.498v3.803a2.512 2.512 0 01-2.458 1.977h-3.12a2.52 2.52 0 01-2.52-2.506V7.096h-4.441v3.394a6.962 6.962 0 006.956 6.826h3.121a6.84 6.84 0 002.458-.456v3.908h4.56V7.1h-.058z" fill="#BD2D43"/><path d="M61.983 29.668c0 1.44-.043 2.918-.11 4.378-.025.48-.053.993-.092 1.493 0 .206-.033.408-.057.61 0 .042-.039.306 0 .158-.01.093-.024.186-.044.278 0 .12-.053.235-.077.35-.023.116 0 0 0 0v.034a.551.551 0 01.84-.149c.034.03.169.298.116.163.038.101 0 .145 0 0v-.23c.175-.876.433-1.733.773-2.559.355-.952.84-1.852 1.44-2.674.24-.336.54-.628.883-.859.125-.087.265-.149.413-.182.163-.048-.12 0 .048 0h.106a.873.873 0 01.158 0h.053a.807.807 0 01.557.446c.18.335.301.699.355 1.076.142 1.04.152 2.096.029 3.14 0 .234-.043.48-.072.7v.163c0 .043-.024.159-.034.24-.024.168-.053.336-.082.504a.59.59 0 001.157.236c.344-1.674.418-3.392.221-5.089-.13-.96-.48-2.03-1.368-2.458-.888-.427-2.021.034-2.78.768a9.426 9.426 0 00-1.92 2.967 15.678 15.678 0 00-1.056 3.125c-.1.344-.128.706-.081 1.061a.634.634 0 00.993.398 1.31 1.31 0 00.452-.892c.08-.468.136-.939.168-1.412.158-1.958.192-3.922.201-5.876 0-.773-1.195-.686-1.2.091m9.183.778c0 .96.044 1.959.11 2.929.052.777.141 1.55.27 2.318.062.563.245 1.105.537 1.59a.595.595 0 00.821.158.634.634 0 00.216-.84 1.72 1.72 0 01-.148-.26c.067.15 0-.038-.025-.067-.023-.029-.043-.13-.062-.192a7.194 7.194 0 01-.192-.86 19.7 19.7 0 01-.226-2.078c-.062-.921-.1-1.853-.1-2.789 0-.773-1.2-.686-1.2.091zm.917-4.195a7.127 7.127 0 00-.48.777 5.337 5.337 0 00-.345.797 1.92 1.92 0 00-.077.893.529.529 0 00.274.34.59.59 0 00.48.03.686.686 0 00.36-.308.714.714 0 00.062-.48c0 .053 0 .106.024.159a.955.955 0 010-.235c0 .052 0 .105-.024.158a2.51 2.51 0 01.154-.523l-.063.148c.183-.43.412-.841.682-1.224a.634.634 0 00.062-.48.551.551 0 00-.516-.404.59.59 0 00-.242.04.787.787 0 00-.36.302m7.359 2.41a3.888 3.888 0 00-2.52 1.008c-1.57 1.359-2.141 3.864-1.92 5.76.13 1.249 1.032 2.156 2.318 1.47 1.008-.538 1.22-1.695 1.527-2.694.427-1.41.816-2.832 1.19-4.253l-1.176-.072a76.07 76.07 0 01-.34 7.883 18.246 18.246 0 01-1.014 4.91 8.526 8.526 0 01-1.31 2.434c-.053.058-.25.322-.35.322h.028c-.278 0-.48-.653-.533-.864-.21-.907.068-1.92.346-2.842.277-.856.612-1.691 1.003-2.501a.582.582 0 10-1.032-.538c-.806 1.71-1.68 3.678-1.574 5.55.048.893.384 1.843 1.185 2.28.802.437 1.47-.197 1.92-.802a12.72 12.72 0 002.209-5.616 52.03 52.03 0 00.566-6.318c.053-1.325.087-2.654.082-3.98a.595.595 0 00-1.181-.071c-.243.93-.498 1.86-.763 2.789-.202.71-.408 1.44-.634 2.117-.082.24-.159.48-.25.71 0 .043-.206.413-.096.255a.993.993 0 01-.59.355h-.11a.74.74 0 01-.178-.327c-.26-.83-.039-1.953.173-2.794a4.546 4.546 0 011.046-2.064 2.74 2.74 0 011.983-.878c.763.029.758-1.181 0-1.21m3.355-5.77l-.547 11.703c-.029.553-.053 1.105-.077 1.657-.033.691.999.734 1.176.077a19.228 19.228 0 012.065-5.161 2.5 2.5 0 01.739-.835.22.22 0 01.13-.039h.033a.56.56 0 01.206.264c.409.84.322 2.021.289 2.957-.02.538-.058 1.076-.116 1.613 0 .188-.038.375-.062.562-.024.187 0-.072 0 .082-.106.773 1.046 1.017 1.157.24.11-.778.192-1.647.225-2.468.053-1.186.106-2.597-.432-3.643-.537-1.047-1.622-1.028-2.453-.226-.96.907-1.473 2.28-1.92 3.461a29.15 29.15 0 00-.989 2.953l1.181.076.547-11.708c0-.552.053-1.104.077-1.656.039-.783-1.162-.687-1.2.09m8.228-4.166a151.44 151.44 0 00-1.06 17.018c.01 1.451.213 2.894.604 4.292.206.734 1.368.336 1.157-.404-.73-2.549-.662-5.41-.61-8.084.053-2.674.701-8.64.96-11.271a67.47 67.47 0 01.164-1.647c.086-.782-1.114-.682-1.2.096" fill="#fff"/><path d="M86.566 28.674l12.256-3.548 1.766-.518a.596.596 0 10-.316-1.152l-12.256 3.562-1.767.508a.595.595 0 00.317 1.148zm22.025.154c-.144-1.292-.687-2.828-1.92-3.332-1.969-.802-3.841 1.147-4.638 2.88a12.006 12.006 0 00-1.056 6.001c.149 1.44.874 3.36 2.684 2.707a8.668 8.668 0 002.15-1.277 12.778 12.778 0 001.801-1.579 7.089 7.089 0 001.286-1.752c.336-.73-.696-1.277-1.037-.547-.648 1.402-2.122 2.558-3.394 3.36a9.665 9.665 0 01-.917.547l-.182.072c-.034 0-.235.067-.13.048a.944.944 0 01-.163 0h-.067c-.139 0-.072 0-.216-.081.072.048-.149-.14-.149-.14s-.13-.206-.178-.302a4.159 4.159 0 01-.24-.826 10.253 10.253 0 01.543-4.93c.446-1.32 1.368-3.14 2.947-3.14.692 0 1.109.606 1.345 1.167.117.292.209.594.273.903l.058.297c.033.192 0-.067 0 0 .086.768 1.286.692 1.2-.086m2.866-6.966a84.525 84.525 0 00-.322 5.502c-.086 3.029-.139 6.207.562 9.12.254 1.057.672 2.368 1.699 2.848.682.321 1.292-.783.605-1.105a1.442 1.442 0 01-.648-.7 5.967 5.967 0 01-.48-1.354 21.594 21.594 0 01-.514-4.052 73.228 73.228 0 01.144-8.458c.044-.63.087-1.258.149-1.887.072-.792-1.128-.696-1.2.091m3.6 7.133c-.04.725-.04 1.451 0 2.175.068 1.052.149 2.367.84 3.169.764.883 1.921.297 2.502-.596.676-1.041.931-2.376 1.128-3.562.156-.918.26-1.844.312-2.774l-1.2.086.345 7.33.048 1.057a.615.615 0 00.206.411.608.608 0 00.664.083.61.61 0 00.301-.348.594.594 0 00.029-.233c-.115-2.442-.229-4.885-.341-7.33 0-.355-.033-.706-.052-1.056-.034-.792-1.157-.706-1.2.086a15.412 15.412 0 01-.917 5.007 4.47 4.47 0 01-.322.639c-.077.12-.171.228-.278.321a.546.546 0 01-.111.072c.115-.062.024 0 0 0-.149.096 0 0-.12.029.111-.034.063.029 0 0 0 0 .125.034.024 0s-.134-.096 0 0a.617.617 0 01-.096-.091.836.836 0 01-.081-.13c0-.038-.116-.24-.082-.163a4.056 4.056 0 01-.187-.629 9.19 9.19 0 01-.188-1.44c-.04-.724-.04-1.45 0-2.175.044-.797-1.156-.705-1.2.087m8.896 5.16c.192-1.08.182-2.174.389-3.26.108-.717.32-1.416.628-2.073.1-.221.248-.418.432-.576a.972.972 0 01.245-.115h-.024c.111.043.139.081.221.23.1.185.176.382.226.586.144.602.221 1.219.23 1.838.065 1.43-.077 2.86-.422 4.249-.1.44-.274.86-.514 1.243-.115.144 0 0-.115.11.043-.047.11 0 .024 0a1.757 1.757 0 01-.826-.417 4.962 4.962 0 01-1.128-1.805c-.077-.187-.134-.384-.206-.571-.072-.188 0 .216 0 .038.11-.778.091-1.584.134-2.357l.245-4.32.403-7.12c.043-.797-1.157-.7-1.2.091-.134 2.334-.267 4.665-.398 6.995-.092 1.608-.178 3.211-.269 4.8a9.994 9.994 0 00-.096 2.213c.14.543.355 1.063.638 1.546a4.23 4.23 0 001.714 1.92c1.358.668 2.189-.364 2.611-1.651.469-1.555.674-3.178.605-4.8 0-1.172-.062-2.88-.96-3.687a1.4 1.4 0 00-1.795 0c-.701.509-1.056 1.44-1.296 2.218-.26.942-.437 1.906-.528 2.88-.044.374-.077.749-.111 1.128l-.029.35c0 .116-.033.274 0 .096a.596.596 0 00.456.701.59.59 0 00.701-.456M23.233 50.939c-8.161 0-12.827-4.234-15.285-7.782a21.243 21.243 0 01-2.131-3.888c-2.588 0-3.03-.202-3.36-.38C1.222 38.27.967 37.003.78 36.076c-.058-.269-.115-.552-.168-.72-.327-.96-.38-2.29-.423-4.378v-.874c-.028-1.075-.081-2.88-.158-3.36a4.8 4.8 0 01.14-1.824c.106-.414.159-.84.158-1.268-.063-1.81.283-3.163 1.022-4.037C.661 15.67-.088 8.613 2.49 4.96 5.898.16 11.366-.585 15.34.351c1.66.47 3.26 1.13 4.768 1.968 1.1.557 2.933 1.479 3.509 1.44 1.944-.326 8.737-1.037 14.229 3.557 4.858 4.062 6.24 7.936 6.72 11.55 1.128.922 1.59 2.526 1.92 3.697l.169.576c.355 1.147.326 2.799.292 4.55a21.09 21.09 0 000 2.161c.221 1.661-.201 6.605-2.515 8.44a4.36 4.36 0 01-1.839.801 24.157 24.157 0 01-3.02 4.493c-2.841 3.317-7.944 7.297-16.114 7.374l-.226-.02zM8.697 35.029l.48 1.44c.53 1.53 1.26 2.983 2.17 4.321 1.92 2.732 5.492 5.987 11.867 5.987h.197a16.802 16.802 0 0012.985-5.92 19.958 19.958 0 002.88-4.555l.51-1.109 1.209-.1c.29-.015.578-.06.86-.135.48-.586 1.099-3.26.926-4.575a20.784 20.784 0 01-.058-2.79c0-1.089.048-2.735-.106-3.24a34.686 34.686 0 01-.187-.629 11.738 11.738 0 00-.504-1.502l-1.277-.182-.158-1.628c-.37-3.73-1.373-6.552-5.4-9.922-4.13-3.452-9.367-2.88-10.87-2.646-1.862.312-3.907-.715-6.072-1.81a19.638 19.638 0 00-3.84-1.636c-2.655-.624-6.284-.173-8.502 2.962-1.498 2.121-1.157 8.098-.202 12.755l.413 2.011-1.56.34a5.81 5.81 0 00-.048 1.038 9.05 9.05 0 01-.25 2.285c-.028.134-.067.312-.081.408.091.658.134 1.771.192 3.792v.907c-.016 1.046.05 2.09.197 3.126.116.351.207.71.273 1.075h2.333l1.623-.067z" fill="#fff"/><path d="M3.863 20.83s-2.29-10.528.48-14.43c2.77-3.903 7.292-4.441 10.436-3.707 3.145.735 6.97 3.793 9.174 3.423 2.203-.37 7.849-.74 12.38 3.053 4.532 3.793 5.761 7.201 6.107 11.656.345 4.455-37.444 2.592-37.444 2.592L3.863 20.83z" fill="#B63847"/><path d="M39.358 22.669c-2.088-7.945-11.372-9.515-14.882-10.082-3.509-.566-8.045-2.4-11.377 0-3.331 2.4-4.412 10.36-4.412 10.36l13.51 3.423 17.161-3.701z" fill="#872446"/><path d="M35.652 15.52c.48.068 2.198 2.66 1.411 4.163-.787 1.502-1.853 1.137-2.4.225-.547-.912-.74-4.618.994-4.388" fill="#FBFBF2"/><path d="M35.652 15.52c.48.068 2.198 2.66 1.411 4.163-.787 1.502-1.853 1.137-2.4.225-.547-.912-.74-4.618.994-4.388" fill="#CDCCCD"/><path d="M34.476 20.018c-.437-.72-.696-3.043.029-4.147a1.157 1.157 0 011.176-.562c.36.048.888.763 1.224 1.412.288.561.907 1.987.345 3.062-.48.912-1.027 1.119-1.406 1.133h-.034a1.657 1.657 0 01-1.334-.898zm.384-3.917c-.605.927-.38 3.101 0 3.697a1.229 1.229 0 00.993.69c.375 0 .735-.325 1.037-.902.394-.753.058-1.78-.182-2.323a3.553 3.553 0 00-1.07-1.531.74.74 0 00-.759.37" fill="#2A1F2E"/><path d="M32.637 12.904c1.008 0 2.223 2.559 2.569 4.32.345 1.762-.207 3.332-1.594 3.433-1.388.1-2.228.038-2.99-.533-.764-.571-.481-2.832 0-4.22.48-1.387.48-3.024 2.015-3.01" fill="#FBFBF2"/><path d="M30.611 15.799c.48-1.387.48-3.024 2.012-3.015 1.008 0 2.222 2.564 2.568 4.32.06.295.092.594.096.894-.504-1.609-1.483-3.36-2.314-3.36-1.531 0-1.526 1.627-2.016 3.014a8.956 8.956 0 00-.48 2.256c-.614-.706-.35-2.794.115-4.109" fill="#DFDFE0"/><path d="M30.482 20.302c-.888-.667-.567-3.053-.072-4.455.1-.298.187-.614.264-.922.293-1.099.59-2.237 1.92-2.237 1.248 0 2.467 2.938 2.775 4.503.235 1.205.076 2.28-.447 2.962a1.807 1.807 0 01-1.34.73c-.34.024-.652.038-.96.038a3.36 3.36 0 01-2.188-.62h.048zm2.093-7.2c-.96 0-1.205.729-1.522 1.92-.082.311-.168.638-.279.96-.527 1.502-.672 3.523-.072 3.974.72.547 1.522.596 2.842.48a1.402 1.402 0 001.037-.557 3.384 3.384 0 00.365-2.62c-.355-1.815-1.56-4.158-2.357-4.163" fill="#2A1F2E"/><path d="M36.41 9.251c-4.53-3.792-10.177-3.423-12.38-3.053-2.204.37-6.03-2.679-9.155-3.423-3.125-.744-7.68-.226-10.45 3.701-2.77 3.927-.48 14.43-.48 14.43L5.057 23.5s1.234.058 3.255.134c.115-.566.24-1.104.36-1.622h-.154c.039-.293 1.008-7.163 4.373-9.601 2.506-1.81 5.694-1.143 8.507-.557.995.228 2.001.4 3.015.518 7.522.672 12.481 3.774 14.728 9.213.164.37.294.753.389 1.147 1.92-.437 3.081-1.028 3.014-1.82-.37-4.44-1.574-7.863-6.106-11.655" fill="#B63847"/><path opacity=".38" d="M4.516 21.036s-2.833-10.532.576-14.43c2.4-2.746 5.852-3.84 9.04-3.97-3.107-.567-7.307.091-9.928 3.807-2.756 3.902-.48 14.43-.48 14.43l1.109 2.592.96.044-1.277-2.473z" fill="#872446"/><path opacity=".8" d="M8.404 19.534c-1.152-.058-5.65-3.101-3.893-2.578 2.045.61 2.789 1.92 5.146.672.566-.302-2.51-.062-4.148-2.295-.25-.336 4.148 2.295 6.14.673.596-.48-1.992-.279-2.88-1.791-.888-1.512-.806-2.4-.806-2.4s1.886 2.016 3.792 2.578c1.906.561 2.573.335 2.655.052.081-.283-4.086-3.274-3.84-3.687.244-.412 3.94 3.24 4.69 2.88.748-.36-.831-.84-1.825-1.68s-2.453-3.12-2.083-3.561c.37-.442 2.165 3.226 3.326 3.787 1.162.562 2.074.96 2.818.447.744-.514-.244-.447-.744-1.92-.499-1.474-.566-3.135-.168-3.135.399 0 .48 2.462 1.181 3.25.701.787 1.143 1.512 1.723 1.176.581-.336-.643-3.84-.134-3.965s1.051 3.586 1.546 3.682c1.008.201-.077-3.702.413-3.807.49-.106.917 3.696.917 3.696.912.336 1.651-.811 1.713-1.704.063-.811.053-2.016.327-2.328.48-.552 0 4.416.365 4.594.542.264 1.44-.826 1.78-1.834.341-1.008.409-1.743.61-1.68.346.11-.686 3.403-.225 3.533a2.718 2.718 0 003.072-1.008c.83-1.008 1.407-2.775 1.661-2.688.255.086-1.992 4.32-1.33 4.623.663.302 1.661-.255 2.573-1.263.912-1.008.903-1.498 1.162-1.344.26.153-2.16 3.14-1.493 3.586.667.446 2.324.057 2.986-.672.663-.73 1.258-1.728 1.493-1.57.235.158-2.4 2.578-1.992 3.082.408.504 1.858-.667 1.992-.562.134.106-1.493.96-1.08 1.402.413.442 1.08.605 2.736.322.48-.082 1.44-.51 1.517-.284.077.226-2.4.692-2.4 1.196s1.094.96 1.075 1.118c-.019.159-9.207-.278-9.207-.278L18.1 20.513l-9.697-.98z" fill="#872446"/><path d="M4.396 12.971c.528.197-.168-2.4 2.15-5.554a5.626 5.626 0 015.482-2.4c1.546.278 2.564-.557 2.103-1.018-.46-.46-4.095.211-5.458.927A8.118 8.118 0 004.972 8.4c-.74 1.378-1.594 4.205-.576 4.575m11.439-8.448c.72-.321 1.666 1.503 3.423 1.757.931.135 1.291.37 1.013.648-.279.279-1.776.072-2.948-.648-.926-.576-2.323-1.387-1.488-1.757zm9.03 2.703c-.201-.48 2.496-.682 4.253-.384 1.757.298 3.063 1.253 2.775 1.555-.48.48-2.035-.931-3.5-.96-.96-.033-3.25.509-3.528-.187m8.045 1.714c-.172.45.855.278 1.412.96.264.321.413-.48-.14-.903-.412-.326-1.075-.552-1.271-.043" fill="#CE9DAD"/><path d="M7.938 11.815c.137.316.297.62.48.912.18.29.386.563.615.816.225.253.48.479.758.672l.212.144.225.124c.15.097.312.14.48.221a3.432 3.432 0 01-.96-.417 3.988 3.988 0 01-.792-.682 5.278 5.278 0 01-.61-.83 4.614 4.614 0 01-.408-.96zm3.279-4.211c.144.365.298.725.451 1.08.154.356.322.706.51 1.052.181.34.381.67.6.989.225.315.475.612.748.888a3.935 3.935 0 01-.883-.787 6.593 6.593 0 01-.648-.994 7.526 7.526 0 01-.768-2.228m-.912 2.621c.312.404.61.797.96 1.167.163.182.34.35.523.518.188.165.386.316.595.452a2.267 2.267 0 01-.7-.322 3.217 3.217 0 01-.577-.509 4.072 4.072 0 01-.456-.614 3.043 3.043 0 01-.326-.692m6.207-2.621c.034.279.067.557.096.831.029.274.063.552.106.826.033.27.081.54.144.806.06.27.148.532.264.783a2.04 2.04 0 01-.423-.735 3.842 3.842 0 01-.197-.826 5.665 5.665 0 010-1.685m2.837.264c.145.533.24 1.066.341 1.599l.144.797c.043.269.102.535.178.797a2.805 2.805 0 01-.34-.754 6.706 6.706 0 01-.193-.802 8.13 8.13 0 01-.13-1.637zm1.839-.264c.22.606.38 1.231.48 1.868.047.318.078.638.091.96.021.321-.001.644-.067.96 0-.317-.057-.634-.096-.96-.038-.327-.091-.629-.14-.96-.09-.63-.191-1.258-.249-1.92m2.876-.274c.157.715.231 1.447.22 2.18 0 .366-.027.731-.081 1.094a3.99 3.99 0 01-.288 1.06c.06-.355.102-.714.125-1.075 0-.36.029-.72.033-1.08.005-.36 0-.725 0-1.085V7.278m2.286 1.56c.062.547.062 1.1 0 1.647a6.535 6.535 0 01-.154.811c-.064.27-.17.53-.312.768a7.73 7.73 0 00.149-.797c.038-.269.072-.537.105-.806.068-.538.125-1.08.23-1.623m4.643 0a12.924 12.924 0 01-.764 2.002c-.15.329-.319.649-.503.96a3.45 3.45 0 01-.673.84c.2-.29.376-.597.524-.917l.48-.96c.307-.638.61-1.277.96-1.92m2.477 1.887a9.43 9.43 0 01-.346.777c-.125.255-.269.48-.413.744a7.016 7.016 0 01-.48.701 2.4 2.4 0 01-.629.571 2.9 2.9 0 00.562-.624c.163-.225.322-.48.48-.7.303-.48.567-.96.85-1.47m3.062 1.335c-.153.254-.321.48-.48.734-.158.255-.355.48-.542.701a8.497 8.497 0 01-.595.653 3.32 3.32 0 01-.692.552c.228-.186.44-.39.634-.61.197-.215.389-.436.571-.662.384-.451.74-.912 1.119-1.368m.159 2.631c-.204.23-.44.431-.701.595-.26.171-.553.288-.86.34.278-.123.546-.268.802-.431.254-.159.504-.332.758-.48m3.5 1.238a9.96 9.96 0 01-1.608.706 7.444 7.444 0 01-.85.235c-.286.069-.58.1-.873.091.289-.031.575-.087.854-.168.285-.076.563-.163.835-.259.279-.086.548-.192.821-.293l.821-.312zm-35.044-.989c.298.236.605.447.917.648.31.2.63.38.96.543.334.165.68.301 1.037.408.36.101.727.167 1.1.197-.377.01-.753-.03-1.12-.12a6.027 6.027 0 01-1.065-.39 7.604 7.604 0 01-.96-.57 6.54 6.54 0 01-.869-.716z" fill="#1A1219"/><g opacity=".34" fill="#872446"><path opacity=".34" d="M7.391 8.41c.02.381.1.756.24 1.11a4.64 4.64 0 001.503 2.064.274.274 0 00.374 0 .269.269 0 000-.38 4.137 4.137 0 01-1.54-2.563.245.245 0 010-.062c0-.053 0 .067 0 0a.528.528 0 010-.087.388.388 0 010-.076c0-.341-.543-.341-.533 0m-1.028.945c.092.204.195.403.307.595.19.365.445.69.754.96a.27.27 0 00.434-.085.26.26 0 00-.06-.289 1.857 1.857 0 01-.201-.187l-.1-.12-.044-.053-.024-.029a5.396 5.396 0 01-.317-.48 5.09 5.09 0 01-.298-.58.264.264 0 00-.364-.097.283.283 0 00-.096.365m6.864-2.871a7.66 7.66 0 00.058 1.239c.051.744.305 1.46.734 2.069a.269.269 0 10.38-.374 3.585 3.585 0 01-.596-1.8c-.043-.377-.057-.755-.043-1.134 0-.34-.518-.34-.533 0zm15.276 1.854c-.061.31-.141.616-.24.916a5.39 5.39 0 01-.293.75c-.11.239-.258.46-.437.652-.235.245.139.624.38.38.396-.459.684-1 .844-1.585.108-.314.194-.634.26-.96a.274.274 0 00-.188-.326.27.27 0 00-.326.187m2.88 1.272c0 .077 0-.072 0 0v.163a4.188 4.188 0 01-.106.48c-.043.144-.048.192-.077.288l-.052.154v.053s-.039.096 0 .029a1.64 1.64 0 01-.125.24l-.038.057c-.025.039.043-.043 0 0l-.087.082a.269.269 0 00.375.38c.146-.133.26-.297.33-.481a3.28 3.28 0 00.221-.643c.07-.272.122-.547.154-.826a.27.27 0 00-.264-.264.274.274 0 00-.269.264"/><path opacity=".34" d="M32.157 10.316a10.693 10.693 0 01-.672 1.167c-.062.091-.125.187-.192.278l-.053.073-.11.134a2.79 2.79 0 01-.346.345c.043-.033 0 0 0 0a.267.267 0 01-.062.039.275.275 0 00.269.48c.37-.25.68-.578.912-.96.23-.341.441-.696.638-1.061.039-.077.082-.154.12-.235a.279.279 0 00-.096-.365.27.27 0 00-.365.096m3.317.288c-.12.256-.257.504-.408.744a3.303 3.303 0 01-.201.302l-.058.082-.033.043c-.039.053-.082.101-.125.154a2.933 2.933 0 01-.27.278l-.071.063-.034.028a1.35 1.35 0 01-.148.101.274.274 0 00-.096.365.269.269 0 00.364.096c.364-.243.676-.557.917-.922.2-.279.378-.572.533-.878l.11-.197a.278.278 0 00-.096-.365.269.269 0 00-.364.096m3.624 3.673a2.253 2.253 0 01-.187.182l-.202.183-.124.1-.058.044-.043.033a4.487 4.487 0 01-.644.399c-.1.05-.204.09-.312.12l-.177.043h-.053c.029 0 .029 0 0 0h-.096a.27.27 0 00-.167.443c.043.05.102.081.167.09a2.76 2.76 0 001.531-.63 5.56 5.56 0 00.75-.638c.234-.25-.14-.624-.38-.379m1.397 3.062a6.89 6.89 0 01-.538.155l-.245.052h-.202c-.028 0 .039 0 0 0a2.68 2.68 0 01-.552 0 .269.269 0 00-.268.264.283.283 0 00.268.27c.38.015.76-.026 1.128-.12.191-.043.378-.098.562-.164a.269.269 0 00.183-.326.264.264 0 00-.327-.183m-.009 1.848l-.173.034-.192.033c.034 0 .043 0 0 0h-.178a2.93 2.93 0 01-.513 0h-.183l-.105-.028h-.048c-.072 0 .029 0 0 0a.273.273 0 00-.365.096.27.27 0 00.096.364c.356.142.744.186 1.123.13.236-.02.47-.056.701-.105a.265.265 0 00.057-.487.27.27 0 00-.201-.027M5.754 20.72c.178.042.346.114.519.162a5.17 5.17 0 001.046.168.269.269 0 00.269-.264.278.278 0 00-.269-.268H6.83a4.338 4.338 0 01-.433-.096c-.168-.048-.33-.116-.48-.159a.268.268 0 00-.33.183.279.279 0 00.186.33"/></g><path opacity=".38" d="M42.44 20.791c-.37-4.44-1.575-7.863-6.106-11.655a14.767 14.767 0 00-9.39-3.274 17.652 17.652 0 018.506 3.84c4.532 3.793 5.737 7.201 6.107 11.656a.883.883 0 01-.298.7c.792-.345 1.22-.762 1.18-1.252" fill="#872446"/><path d="M21.245 23.897c-8.16 0-15.635-.355-16.283-.389h-.13l-1.176-2.75c-.096-.437-2.28-10.667.48-14.599 2.76-3.931 7.379-4.57 10.691-3.792a20.933 20.933 0 014.32 1.805c1.854.931 3.601 1.815 4.801 1.618 1.728-.293 7.743-.927 12.549 3.096 4.651 3.893 5.813 7.402 6.183 11.805a1.066 1.066 0 01-.341.844c-1.839 1.92-11.862 2.362-21.065 2.362h-.029zm-16.1-.806c2.318.105 33.666 1.488 36.892-1.848a.64.64 0 00.215-.519c-.355-4.291-1.488-7.714-6.029-11.521C31.557 5.295 25.7 5.915 24.02 6.198c-1.325.22-3.135-.692-5.05-1.656a20.566 20.566 0 00-4.21-1.767c-3.183-.749-7.542-.192-10.23 3.615-2.616 3.701-.542 13.73-.432 14.243l1.046 2.458z" fill="#2A1F2E"/><path d="M6.84 34.881s2.467 13.82 16.614 13.686c14.147-.134 18.17-13.043 18.17-13.043l-14.68-3.47L6.839 34.88z" fill="#B63847"/><path opacity=".23" d="M39.454 35.135c.322.99.297 1.786-.149 2.175a1.473 1.473 0 01-1.402.144c.783 1.531.96 2.837.35 3.36-.48.432-1.401.279-2.467-.302.144.725.058 1.3-.297 1.613-.356.312-1.133.307-1.993-.072.557 1.315.706 2.3.312 2.563-.393.264-1.032-.12-1.872-.873.159 1.617-.134 2.827-.873 3.1-.624.231-1.44-.254-2.252-1.214-.086.855-.307 1.402-.648 1.47-.48.1-1.114-.764-1.685-2.17-.154 1.44-.48 2.4-.96 2.438-.48.038-1.047-.96-1.44-2.487-.408 1.594-.96 2.621-1.474 2.578-.514-.043-.83-.994-.96-2.443-.571 1.411-1.195 2.275-1.68 2.174-.346-.072-.567-.614-.653-1.469-.807.96-1.628 1.44-2.252 1.21-.739-.274-1.027-1.478-.873-3.096-.836.753-1.527 1.104-1.873.873-.345-.23-.244-1.248.313-2.563-.855.38-1.57.432-1.988.067-.418-.365-.446-.883-.302-1.613-1.066.586-1.973.735-2.468.307-.614-.532-.427-1.838.355-3.36a1.493 1.493 0 01-1.406-.144c-.519-.451-.48-1.44.034-2.67l-1.954.275s2.467 13.82 16.614 13.686c14.147-.135 18.17-13.048 18.17-13.048l-2.227-.509z" fill="#872446"/><path opacity=".58" d="M7.751 35.135c.96-.417 1.656-.523 1.92-.225.264.297.058.801-.393 1.517 1.06-.86 2.002-1.21 2.606-.86.605.35.783 1.388.543 2.794 1.344-2.309 2.611-3.725 3.226-3.451.696.312.336 2.722-.778 5.808 1.608-1.81 3.159-2.74 4.028-2.242.691.404.806 1.638.442 3.289.758-.519 1.497-.71 2.14-.48.644.23 1.162.917 1.44 1.891.677-2.357 1.484-3.879 2.113-3.778.48.077.768 1.1.84 2.684.576-1.92 1.373-3.116 2.251-3.116.725 0 1.393.807 1.92 2.165.131-.093.275-.166.428-.216a1.859 1.859 0 011.085 0c-.432-1.92-.327-3.279.422-3.706.75-.427 1.92.144 3.327 1.402-.293-1.335-.187-2.333.398-2.717.586-.384 1.594-.077 2.741.768-.993-1.522-1.632-2.828-1.776-3.644l-5.981-1.411L8.058 34.79l-.283.35" fill="#872446"/><path d="M14.357 35.385s2.726 1.176 3.629 1.44c.902.264 2.923.211 3.994.418 1.531.173 3.077.173 4.608 0 1.248-.14 4.354-.283 5.579-.874 1.224-.59 2.366-2.597 2.366-2.597l-22.442-.538s1.286 1.733 2.266 2.151z" fill="#4B2435"/><path d="M23.967 37.603a11.355 11.355 0 01-2.026-.14 16.548 16.548 0 00-1.79-.163 11.413 11.413 0 01-2.228-.254c-.902-.278-3.533-1.416-3.648-1.469-1.027-.432-2.304-2.146-2.357-2.218l-.26-.35 23.235.576-.173.307c-.048.086-1.195 2.079-2.462 2.684-1.008.48-3.226.676-4.695.806-.37.029-.701.058-.96.087a25.7 25.7 0 01-2.645.134h.01zm-11.44-4.148c.423.519 1.249 1.44 1.92 1.733.025 0 2.727 1.176 3.606 1.44.7.148 1.412.226 2.127.236.619.02 1.236.078 1.848.172a20.51 20.51 0 004.541 0l.96-.09c1.44-.126 3.61-.313 4.551-.764.864-.413 1.714-1.627 2.084-2.199l-21.636-.528z" fill="#2A1F2E"/><path d="M11.85 39.706c-.36-.39 1.739-2.118 2.814-1.527 1.075.59-.072 5.482-.48 5.377-.408-.106.038-3.226-.451-3.26-.49-.034-.552 1.109-.96.869-.409-.24.312-1.666.033-1.738-.278-.072-.451.802-.96.279m4.815 3.374c-.235-.48.557-1.666 2.083-1.248 1.527.418.96 2.218.797 2.636-.163.417-.557 1.108-.657.83-.101-.279.45-2.256-.212-2.463-.662-.206-.758 1.44-1.176 1.282-.417-.158.034-.826-.211-1.037-.245-.211-.38.48-.624 0zm12.102-2.755c-.398.115-.11 1.814-.312 2.4-.202.586-.706 1.565-.408 1.7.298.134.523-1.609 1.06-1.542.538.068.27 1.786.654 1.772.384-.015.23-1.676.681-1.7.452-.024-.21 1.565.212 1.58.422.014.624-2.693.173-2.66-.452.034-1.614.48-1.71.03-.096-.452.188-1.739-.35-1.58zm5.175-2.905c-.154-.187.48 3.049 1.119 3.188.638.14.96-.672-1.119-3.188z" fill="#CE9DAD"/><path d="M23.137 39.25c.043.825.043 1.646.062 2.467 0 .408 0 .816.034 1.224.034.408.034.82.077 1.229a6.487 6.487 0 01-.245-1.215 13.401 13.401 0 01-.077-1.238c-.02-.825.03-1.65.149-2.468zm-1.637-.231c-.11.552-.25 1.09-.375 1.627l-.187.812-.168.816a4.933 4.933 0 01.15-1.676 6.64 6.64 0 01.58-1.579zm-2.208-.538c-.159.226-.303.456-.447.682-.144.226-.278.48-.403.7a7.85 7.85 0 00-.346.726c-.105.245-.197.48-.293.763.009-.278.054-.554.135-.821a4.32 4.32 0 011.354-2.05zm-2.089 0c-.25.48-.48.931-.724 1.407-.11.235-.221.48-.322.715a5.72 5.72 0 00-.25.749c.026-.265.084-.526.173-.778a7.48 7.48 0 01.682-1.43c.132-.23.28-.452.441-.663zm-1.574-1.065c-.36.292-.704.603-1.032.93a4.383 4.383 0 00-.83 1.11c.067-.228.171-.444.307-.639.131-.194.28-.376.446-.542a4.88 4.88 0 01.528-.48 4.3 4.3 0 01.581-.394m-1.863-1.104c-.353.134-.7.286-1.037.456a5.29 5.29 0 00-.48.288c-.154.11-.298.232-.432.365.104-.162.234-.306.384-.427.149-.123.31-.229.48-.317.169-.092.346-.167.528-.226.181-.062.368-.109.557-.139zm11.296 2.953c.108.234.194.478.254.729.061.25.108.503.14.758a3.84 3.84 0 01-.116 1.537c0-.26 0-.51-.033-.759-.034-.25-.034-.504-.067-.754-.048-.48-.125-.998-.178-1.512zm1.383.206c.117.12.213.26.283.413.073.153.127.314.163.48.074.334.05.682-.067 1.003 0-.173-.039-.331-.063-.48-.024-.149-.048-.317-.081-.48-.058-.312-.144-.615-.235-.936zm2.112-.701c.07.115.146.226.23.331.082.11.159.226.23.341.148.23.278.47.39.72.112.25.2.51.263.778.062.267.087.542.072.816a9.49 9.49 0 00-.23-.768c-.087-.25-.192-.48-.298-.74-.105-.259-.225-.48-.34-.73l-.173-.364-.082-.187a.674.674 0 01-.062-.197zm2.059-.274c.178.113.34.25.48.408.154.155.29.328.403.514.245.367.368.802.35 1.243a7.182 7.182 0 00-.23-.59 6.014 6.014 0 00-.302-.543c-.216-.355-.48-.686-.725-1.032m2.151-.422a2.88 2.88 0 01.998.96c.078.135.136.28.173.432a3.503 3.503 0 00-.533-.734c-.202-.23-.417-.442-.638-.658zm1.982-1.565c.167.064.328.142.48.235.157.087.306.187.447.298.144.108.277.23.398.365.12.131.22.28.298.441a4.51 4.51 0 00-.759-.725c-.278-.216-.57-.412-.864-.614z" fill="#1A1219"/><path opacity=".42" d="M21.903 41.578c-.188.42-.336.857-.441 1.305a5.333 5.333 0 00-.092 2.55.269.269 0 00.223.194.266.266 0 00.29-.334 4.802 4.802 0 01.102-2.314c.072-.284.158-.565.259-.84l.1-.25c.03-.076 0 .039 0-.043a.274.274 0 00-.09-.364.262.262 0 00-.297.017.263.263 0 00-.068.078m2.069-.225c.038.422.053.85.057 1.277a7.454 7.454 0 01-.225 2.189c-.101.326.413.48.513.144a7.999 7.999 0 00.245-2.29c0-.442 0-.883-.057-1.32-.03-.34-.562-.346-.533 0zm1.862 0c.039.427.063.855.082 1.282.056.65.032 1.305-.072 1.949-.072.336.437.48.514.144a8.16 8.16 0 00.091-2.055c0-.441-.043-.883-.082-1.32a.279.279 0 00-.268-.269.268.268 0 00-.264.27zm6.05-1.301c.148.26.282.523.412.797s.197.451.283.696c.043.135.082.264.115.399 0 .057.03.12.039.177v.087a.419.419 0 000 .067.269.269 0 00.264.269.274.274 0 00.269-.27 5.388 5.388 0 00-.51-1.641 10.9 10.9 0 00-.436-.85.275.275 0 10-.48.27m3.984-1.762c.053.038-.062-.053 0 0l.12.1c.124.115.241.236.35.365a.609.609 0 01.049.072c.033.04.063.081.09.125.062.099.116.201.164.307 0 .029 0 .029 0 0a.164.164 0 010 .043c.01.022.017.045.024.067.023.063.04.127.053.193.03.109.04.222.034.336a.268.268 0 00.455.186.264.264 0 00.077-.187 2.688 2.688 0 00-1.176-2.088.27.27 0 00-.365.096.279.279 0 00.096.365m-24.405-2.564a8.301 8.301 0 00-1.397.927 1.58 1.58 0 00-.36.398.26.26 0 00.096.36.264.264 0 00.36-.09.164.164 0 000-.04s.038-.047 0 0c-.038.049 0 0 0 0l.038-.038c.05-.057.104-.11.164-.158l.09-.077.044-.033.211-.154c.255-.178.523-.34.792-.48l.168-.096a.269.269 0 00.096-.365.274.274 0 00-.365-.096m1.373 1.839a4.848 4.848 0 00-1.387 1.44c-.16.253-.282.528-.365.816a.269.269 0 00.514.144c.167-.532.47-1.012.878-1.392.152-.147.312-.285.48-.413 0 0 .072-.058 0 0l.044-.029.062-.048.057-.038a.275.275 0 00-.268-.48" fill="#872446"/><path d="M22.023 41.174c-.317 0-.187 4.028.216 4.652.403.624.245-1.344.389-2.4.144-1.056.307-2.237-.605-2.228m-9.735-5.16c0-.226-3.505.557-3.063 1.349.22.408.422-.48 1.531-.773 1.11-.293 1.56-.15 1.532-.576zm21.698 5.458c.163-.024-.605-2.559-1.167-2.19-.288.193.365.289.658 1.09.293.802.197 1.143.509 1.1z" fill="#CE9DAD"/><path d="M23.233 48.855c-7.268 0-11.392-3.734-13.576-6.884a19.875 19.875 0 01-3.034-6.98l-.038-.216 20.359-2.88h.038l14.906 3.524-.067.216a20.885 20.885 0 01-3.84 6.547c-2.56 2.991-7.163 6.577-14.551 6.65h-.212l.015.023zM7.089 35.135a19.706 19.706 0 002.928 6.606c3.12 4.493 7.633 6.72 13.442 6.687 7.2-.072 11.718-3.567 14.223-6.485a21.16 21.16 0 003.678-6.193l-14.402-3.404-19.87 2.79z" fill="#2A1F2E"/><path d="M3.277 20.907c-.509.298-.74 1.316-.691 2.655.048 1.34-.418 2.223-.327 2.823.092.6.14 2.035.188 3.653.048 1.618.033 3.744.316 4.58.284.835.332 2.035.701 2.218.37.182 3.702.187 5.689 0 1.987-.188 11.747-.231 13.273-.322 1.527-.091 9.481-.091 11.286.048 1.805.14 7.955.96 9.299-.096 1.344-1.056 1.848-4.95 1.666-6.337-.183-1.387.182-4.992-.235-6.337-.418-1.344-.783-3.235-1.849-3.36a53.71 53.71 0 00-6.106 0c-1.666.091-6.985.298-8.511.298-1.527 0-8.924 0-10.13-.096-1.204-.096-8.275.259-9.941.307-1.666.048-2.684-.14-3.423-.14-.74 0-.648-.2-1.205.12" fill="#D8E0D1"/><path d="M44.691 28.616c-.197 1.637-.72 3.586-1.613 4.292-1.34 1.066-7.493.23-9.294.091-1.8-.139-9.759-.134-11.286-.043-1.526.091-11.286.14-13.278.322-1.992.182-5.319.187-5.688 0-.37-.188-.413-1.388-.697-2.218-.283-.83-.273-2.962-.321-4.58 0-.418 0-.82-.034-1.2a3.543 3.543 0 00-.149 1.152c.092.6.14 2.036.183 3.653.043 1.618.033 3.75.321 4.58.289.83.327 2.035.697 2.223.37.187 3.7.182 5.688 0 1.988-.183 11.752-.23 13.278-.327 1.527-.096 9.481-.091 11.286.048 1.805.14 7.955.96 9.294-.091 1.34-1.051 1.853-4.95 1.666-6.337a12.26 12.26 0 01-.053-1.565zm0-3.556c0 .48 0 .96.029 1.305 0-.48 0-.903-.029-1.306z" fill="#BDCBB5"/><path d="M6.388 37.21c-1.632-.404-1.892-2.881-2.093-8.406-.187-5.223.715-8.21.725-8.238l.206.062c0 .03-.902 2.981-.715 8.161.187 5.28.442 7.844 1.92 8.21l-.043.21z" fill="#484152"/><path d="M6.882 37.157c-2.02-.447-2.059-2.929-2.121-6.683 0-.667-.024-1.354-.048-2.083-.15-4.906.753-7.854.763-7.883l.202.068c0 .028-.903 2.942-.75 7.805 0 .735.034 1.44.044 2.088.062 3.658.1 6.073 1.954 6.481l-.044.206zm2.588.004c-.293-.48-.48-2.127-.836-8.021-.355-5.646.48-8.454.48-8.483l.202.062c0 .03-.845 2.809-.48 8.406.36 5.718.538 7.494.806 7.926l-.172.11z" fill="#484152"/><path d="M7.75 20.8l-.168.126 1.206 1.61.169-.127L7.75 20.8zm-.825.014l-.176.117 1.917 2.881.176-.116-1.917-2.882zm-.733.121l-.18.112 2.602 4.16.18-.112-2.602-4.16zm-.633.488l-.18.112L8.725 26.9l.18-.111-3.346-5.366zm3.051 6.925l-3.566-5.622.177-.115 3.572 5.621-.183.116zm-3.44-4.186l-.18.113 3.62 5.737.178-.113-3.619-5.737zm-.196 1.609l-.178.114L8.85 32.26l.179-.113-4.055-6.377zm-.084 1.545l-.177.115 4.143 6.365.177-.115-4.143-6.365zm.077 2.167l-.172.122 4.351 6.101.172-.123-4.351-6.1zm-.001 1.562l-.173.122 3.17 4.461.172-.122-3.17-4.461zM8.87 37.07c-1.565-1.656-3.927-4.153-4.047-4.253l.11-.183s.087.044 4.09 4.292l-.153.144zm-3.641-2.516l-.175.118 1.656 2.45.175-.118-1.656-2.45z" fill="#484152"/><path d="M6.411 20.907l-1.216.914.126.17 1.217-.915-.127-.169zm1.445-.247l-2.708 2.03.127.169 2.708-2.03-.127-.17zm-2.903 3.794l-.13-.168 4.35-3.38.129.169-4.35 3.38zm0 1.282l-.135-.163 4.023-3.365.14.163-4.028 3.365zm3.737-2.071l-3.874 3.466.14.158 3.876-3.466-.141-.158zm-.122 1.902l-3.749 3.052.133.164 3.75-3.052-.134-.164zm.001 1.528l-3.67 2.65.124.172 3.67-2.65-.124-.172zM5.092 31.41l-.135-.163 3.61-2.9.13.164-3.605 2.9zm3.476-1.506l-3.61 2.987.135.162 3.61-2.987-.135-.162zm.28 1.253L4.96 34.364l.135.163 3.888-3.207-.134-.163zM8.834 32.3l-3.462 3.354.147.151 3.462-3.353-.147-.152zm-.002 1.26l-2.837 3.033.155.145 2.836-3.033-.154-.144zm.46.941l-1.86 2.555.17.125 1.861-2.555-.17-.125z" fill="#484152"/><path d="M6.6 20.902s1.478-.115 1.468-.082c-.01.034-.163.567-.451.48-.288-.086-.35-.196-.35-.196a.322.322 0 01-.298.201.915.915 0 00-.279 0c.174.094.37.14.567.135.288-.024.624-.072.624-.072l-.082 1.09h-.648l.48-.557h-.37l.077.264-.48-.034.135-.207h-.37l.293.543-.682-.091s.072-.48.14-.84c.044-.222.119-.437.22-.639" fill="#DEDEDF"/><path d="M7.122 22.606h-.201l-.802-.11v-.106s.072-.48.14-.85c.048-.23.126-.452.23-.662l.028-.053h.058c1.503-.115 1.517-.096 1.56-.043l.034.048v.053a1.3 1.3 0 01-.207.417h.034L7.9 22.616h-.792l.014-.01zm-.187-.355l.1.197.154-.178-.254-.02zm.446.115h.322l.029-.403-.264.307v.024h-.029l-.058.072zM6.36 22.29l.384.053-.278-.518h1.287v-.308l-.481.053a1.31 1.31 0 01-.629-.144l-.105-.062c0 .062-.034.13-.048.201-.048.245-.101.567-.125.73l-.005-.005zm.71-.235h.125l-.038-.14-.087.14zm.221-.758a.408.408 0 01-.067.062h.149a.332.332 0 01-.082-.048v-.014zm-.619-.274c-.037.08-.069.161-.096.245l.091-.024a.963.963 0 01.317 0c.125 0 .187-.135.192-.14l.053-.115-.557.039v-.005zm.7.082s.054.081.274.134c.106.029.207-.12.274-.293l-.605.039.058.12z" fill="#484152"/><path d="M6.234 22.376a.961.961 0 00.696.393.96.96 0 00.682-.196h.125l-.043 1.003s-.072.96-.821.96a.85.85 0 01-.811-.806l.172-1.354z" fill="#DEDEDF"/><path d="M6.887 24.66a.932.932 0 01-.912-.907l.207-1.66.158.23a.889.889 0 00.614.346.912.912 0 00.605-.168l.03-.03h.277l-.047 1.114c-.03.375-.255 1.071-.917 1.071l-.015.005zm-.7-.916a.74.74 0 00.705.7c.634 0 .7-.834.7-.873l.044-.874c-.21.133-.458.195-.706.178a.984.984 0 01-.61-.26l-.134 1.129z" fill="#484152"/><path d="M7.42 23.36h-.96v.211h.96v-.211z" fill="#484152"/><path d="M6.234 24.637s.082.542.567.533a.99.99 0 00.754-.452l.043 1.863s-.101.878-.797.787c-.696-.091-.797-.917-.797-.917a10.709 10.709 0 010-1.085 1.78 1.78 0 01.23-.73z" fill="#DEDEDF"/><path d="M6.906 27.479h-.115a1.128 1.128 0 01-.888-1.008c-.02-.37-.02-.74 0-1.11a1.92 1.92 0 01.245-.777l.153-.24.044.283s.076.456.48.442a.895.895 0 00.662-.399l.187-.312.058 2.223c-.035.292-.17.562-.384.763a.686.686 0 01-.423.14l-.019-.005zm-.672-2.564a1.623 1.623 0 00-.11.48 10.49 10.49 0 000 1.07c0 .025.105.735.705.817a.48.48 0 00.365-.106.96.96 0 00.298-.6l-.039-1.57a.96.96 0 01-.648.279.624.624 0 01-.585-.36" fill="#484152"/><path d="M6.345 26.005h1.003s-.24.38-.48.355c-.24-.024-.48-.355-.48-.355" fill="#DEDEDF"/><path d="M6.868 26.466h-.029a.96.96 0 01-.58-.399l-.087-.12.14-.043a8.011 8.011 0 011.04 0h.193l-.106.159c-.029.043-.269.403-.571.403zm-.288-.36c.075.075.17.126.274.149a.39.39 0 00.273-.144H6.58" fill="#484152"/><path d="M6.849 27.541c-.307 0-.86.336-.855 1.282.005.945.452 1.109.855 1.133.403.024.85-.27.802-1.287-.048-1.018-.384-1.128-.802-1.128z" fill="#DEDEDF"/><path d="M6.887 30.056H6.84c-.638-.033-.96-.441-.96-1.238a1.531 1.531 0 01.389-1.123.85.85 0 01.571-.264c.528 0 .864.201.912 1.229a1.527 1.527 0 01-.326 1.18.757.757 0 01-.543.221l.005-.005zm-.048-2.395a.624.624 0 00-.418.206 1.277 1.277 0 00-.326.96c0 .87.384 1.009.754 1.028a.551.551 0 00.427-.159 1.358 1.358 0 00.264-1.017c-.048-1.027-.394-1.027-.7-1.027" fill="#484152"/><path d="M7.348 28.703c0 .077-.226.144-.48.144s-.48-.067-.48-.144c0-.077.226-.144.48-.144s.48.062.48.144z" fill="#DEDEDF"/><path d="M6.844 28.952c-.1 0-.605 0-.605-.25 0-.249.48-.249.605-.249s.61 0 .61.25-.505.25-.61.25zm-.327-.25a1.337 1.337 0 00.658 0 1.297 1.297 0 00-.331-.038c-.11 0-.22.012-.327.039z" fill="#484152"/><path d="M6.234 29.922a.667.667 0 00.658.403c.295-.033.566-.177.758-.403v1.642s-.389-.48-.806-.48c-.418 0-.355.173-.355.173l.624.6h-.576a.519.519 0 00.48.37c.266.001.524-.098.72-.28v1.345a1.96 1.96 0 00-.75-.269l-.383-.033.749.672-.524.062 1.253.432v.615l-1.229.393c.201.051.408.07.615.058.208-.033.414-.083.614-.149l.188 1.176a1.438 1.438 0 01-.48 0 1.138 1.138 0 01-.264-.173s-.212.192-.284.197c-.072.005 1.013.14 1.013.14l.115.287h-.196l-.188-.043-.96.125s-.48-.197-.739-1.56a20.296 20.296 0 01-.154-3.596c-.007-.567.02-1.135.082-1.7" fill="#DEDEDF"/><path d="M7.036 36.888h-.029c-.053-.024-.547-.26-.802-1.642a14.162 14.162 0 01-.158-2.88v-.744c-.01-.57.018-1.139.082-1.705v-.033l.321-.96-.11.993a.58.58 0 00.542.303c.265-.03.508-.16.677-.365l.192-.235v2.15l.077-.072v1.781l-.163-.105a1.852 1.852 0 00-.701-.245h-.067l.69.614-.302.034.889.312v.768l-.86.279h.125c.202-.035.4-.083.595-.145l.12-.043.221 1.412h-.033l.182.48h-.37l-.163-.044-.955.092zm-.72-6.668c-.043.464-.06.93-.053 1.397v.758c-.043.944.007 1.89.149 2.823.206 1.109.566 1.411.657 1.469l.932-.125.22.048-.033-.082c-.533-.072-.797-.105-.927-.134-.115-.029-.115-.053-.11-.106v-.1h.1A1.27 1.27 0 007.468 36l.067-.063.072.058c.072.061.151.114.235.158.1.016.203.016.303 0l-.149-.96c-.168.05-.34.089-.514.115a1.955 1.955 0 01-.657-.062l-.356-.091 1.508-.48v-.48l-1.623-.562.754-.087-.816-.73.705.063c.221.027.436.092.634.192v-.96a1.022 1.022 0 01-.624.168.619.619 0 01-.566-.451l-.034-.13h.451l-.48-.451a.187.187 0 010-.173c.063-.096.202-.144.432-.149.265.019.514.133.701.322v-1.123a1.133 1.133 0 01-.643.259.792.792 0 01-.586-.211l.034.048zm.398 1.757a.412.412 0 00.307.158.926.926 0 00.634-.25l.058-.052-.144-.183s-.36-.48-.72-.446a.612.612 0 00-.23.038l.762.735h-.667z" fill="#484152"/><path d="M10.113 28.866h-.211v-4.59l.206.48c.14.362.347.695.61.98.235.163.96.115 1.555 0 .442-.1.663-.82.663-.83l.149-.505.057.524c.034.294.101.584.202.864.102.184.226.354.37.509l.033.028v1.729h-.115c-.821-.048-2.492-.096-2.914.062a1.085 1.085 0 00-.605.763v-.014zm0-3.59v3.067c.129-.193.313-.342.528-.428.48-.187 2.4-.105 2.88-.081v-1.44a2.403 2.403 0 01-.379-.528 2.457 2.457 0 01-.163-.557 1.114 1.114 0 01-.667.614c-.48.106-1.373.226-1.728 0a2.06 2.06 0 01-.48-.653" fill="#6F8D90"/><path d="M11.875 33.729a1.81 1.81 0 01-.716-.13 1.59 1.59 0 01-.902-.96c-.35-.96-.538-2.698.134-3.696a1.68 1.68 0 011.44-.75 1.948 1.948 0 011.92 1.758c.183 1.44.298 3.053-.662 3.504-.378.18-.79.277-1.21.284l-.004-.01zm-.043-5.324a1.48 1.48 0 00-1.277.648c-.62.927-.432 2.636-.11 3.5a1.402 1.402 0 00.796.864 2.265 2.265 0 001.752-.149c.903-.422.668-2.285.543-3.284a1.723 1.723 0 00-1.71-1.574m.332 8.276a2.026 2.026 0 01-1.594-.528 1.44 1.44 0 01-.23-1.44c.168-.346.61-.763 1.78-.778.48 0 1.724.135 1.921.864.17.419.17.887 0 1.306a1.018 1.018 0 01-.677.432 5.732 5.732 0 01-1.195.13l-.005.014zm-.038-2.535c-.836 0-1.388.24-1.59.658a1.223 1.223 0 00.202 1.2c.418.523 1.628.533 2.578.322a.776.776 0 00.543-.331 1.556 1.556 0 000-1.138c-.135-.48-1.085-.72-1.714-.71" fill="#6F8D90"/><path d="M11.904 31.554c-.557 0-1.503-.096-1.503-.45 0-.356.96-.481 1.503-.481.542 0 1.507.096 1.507.48s-.96.451-1.507.451zm0-.696c-.783 0-1.258.163-1.292.25.4.2.848.282 1.292.235a2.28 2.28 0 001.291-.24 2.217 2.217 0 00-1.291-.245zm.293 4.887c-.356 0-1.508 0-1.508-.35s1.152-.35 1.508-.35c.355 0 1.507.023 1.507.35 0 .326-1.157.35-1.507.35zm-1.244-.35a5.62 5.62 0 002.487 0 5.622 5.622 0 00-2.487 0zm5.679-13.063a.657.657 0 01-.279-.062 1.891 1.891 0 01-.518-.537h-.403v.48h-.216v-.706h.715l.029.048c.123.202.287.377.48.514a.48.48 0 00.408 0 .173.173 0 00.096-.135.121.121 0 00-.043-.1.364.364 0 00-.211-.092.101.101 0 00.043 0l-.149-.154c.077-.076.24 0 .302 0a.366.366 0 01.068.682.709.709 0 01-.332.087m.457 1.238l-.063-.029.048-.096-.096-.043a.628.628 0 00-.081-.403.527.527 0 00-.399-.202h-.283c.054.1.083.212.086.326a.48.48 0 01-.48.442c-.177 0-.648 0-.662-.48 0-.206.125-.48.792-.48a4.08 4.08 0 01.58 0 .696.696 0 01.649.48c.043.144.062.399 0 .48l-.091.005zm-1.061-.787h-.082c-.273 0-.6.072-.595.278.005.207.168.274.446.274a.254.254 0 00.284-.23.509.509 0 00-.101-.289l.048-.033zm.139 2.372c-.586 0-1.027-.227-1.027-.529 0-.302.441-.528 1.027-.528.586 0 1.032.226 1.032.528 0 .302-.442.528-1.032.528zm0-.846c-.48 0-.816.183-.816.317s.312.317.816.317.816-.187.816-.317-.307-.317-.816-.317zm.086 4.618c-.576 0-1.027-.273-1.027-.624 0-.35.451-.628 1.027-.628.576 0 1.032.273 1.032.628 0 .356-.451.624-1.032.624zm0-1.041c-.48 0-.816.22-.816.417 0 .197.336.413.816.413.48 0 .816-.22.816-.413 0-.192-.336-.417-.816-.417zm.418-.811a.648.648 0 01-.34-.097 1.211 1.211 0 01-.289-.403c-.096-.177-.23-.422-.345-.446l-.346-.072v.912h-.211v-1.167l.124.024.48.092c.212.043.356.307.48.556.056.12.13.23.221.327a.408.408 0 00.375 0 .332.332 0 00.163-.298.48.48 0 00-.398-.48l.038-.211a.677.677 0 01.571.71.519.519 0 01-.528.538m-1.392 4.306l-.058-.206 1.541-.427-.96-.236c-.523-.13-.624-.144-.638-.149v-.086l-.039-.12c.039 0 .044 0 .716.149.595.139 1.368.331 1.368.331l.393.1-2.323.644z" fill="#6F8D90"/><path d="M15.85 30.45h-.212v.6h.212v-.6z" fill="#6F8D90"/><path d="M28.994 25.342c0 1.359-2.343 2.463-5.238 2.463-2.895 0-5.237-1.104-5.237-2.463 0-1.358 2.347-2.486 5.237-2.486s5.238 1.104 5.238 2.467" fill="#DEDEDF"/><path d="M23.756 27.91c-2.948 0-5.343-1.151-5.343-2.568 0-1.416 2.4-2.573 5.343-2.573s5.348 1.152 5.348 2.573-2.4 2.569-5.348 2.569zm0-4.93c-2.827 0-5.132 1.061-5.132 2.362 0 1.301 2.305 2.357 5.132 2.357 2.828 0 5.132-1.056 5.132-2.357 0-1.3-2.3-2.361-5.132-2.361z" fill="#484152"/><path d="M28.994 25.15c0 .572-2.343 1.037-5.238 1.037-2.895 0-5.237-.48-5.237-1.037 0-.556 2.347-1.037 5.237-1.037s5.238.48 5.238 1.037z" fill="#DEDEDF"/><path d="M23.756 26.293c-2.587 0-5.343-.403-5.343-1.147s2.756-1.143 5.343-1.143 5.348.403 5.348 1.143c0 .739-2.756 1.147-5.348 1.147zm0-2.074c-3.178 0-5.132.543-5.132.927s1.954.931 5.132.931 5.132-.543 5.132-.931c0-.39-1.95-.927-5.132-.927z" fill="#484152"/><path d="M23.66 24.829a4.556 4.556 0 01-4.618-4.48h.216a4.402 4.402 0 008.804 0h.216a4.556 4.556 0 01-4.618 4.48z" fill="#6F8D90"/><path d="M23.66 23.561c-1.997 0-3.624-1.392-3.624-3.105h.21c0 1.598 1.532 2.88 3.414 2.88 1.882 0 3.413-1.296 3.413-2.88h.211c0 1.713-1.627 3.105-3.624 3.105z" fill="#6F8D90"/><path d="M23.66 23.182c-1.714 0-3.106-1.195-3.106-2.664h.211c0 1.349 1.301 2.448 2.88 2.448 1.58 0 2.881-1.1 2.881-2.448h.216c0 1.469-1.392 2.664-3.106 2.664" fill="#6F8D90"/><path d="M39.67 37.584l-.072-.202s.528-.211 1.114-1.7c.585-1.487 1.084-5.793.85-10.335-.221-4.354-1.623-4.872-1.638-4.877l.068-.202c.062 0 1.55.533 1.785 5.07.24 4.743-.264 8.91-.864 10.426-.638 1.604-1.22 1.81-1.243 1.82z" fill="#484152"/><path d="M39.358 37.377l-.168-.134a9.312 9.312 0 001.594-3.437 40.27 40.27 0 00.413-9.15c-.27-2.981-1.781-4.191-1.796-4.2l.13-.169c.062.048 1.598 1.273 1.877 4.35a40.416 40.416 0 01-.418 9.207 9.601 9.601 0 01-1.632 3.533zm-3.038-.201l-.174-.125a10.109 10.109 0 001.368-3.884c.484-2.642.616-5.336.394-8.012-.22-3.62-1.584-4.536-1.599-4.546l.116-.178c.057.039 1.469.985 1.694 4.71a30.41 30.41 0 01-.393 8.06 10.12 10.12 0 01-1.407 3.975zm2.392-16.865l-1.023 1.666.18.11 1.023-1.665-.18-.11z" fill="#484152"/><path d="M37.97 23.398l-.187-.1 1.623-2.982.187.106-1.623 2.976zm.048 1.445l-.192-.096 2.204-4.296.192.096-2.204 4.296zm2.325-3.355l-2.332 4.561.188.096 2.332-4.56-.188-.097zm.397.914l-2.727 5.242.187.098 2.728-5.242-.187-.098zm.151 1.391l-2.915 5.659.188.096 2.915-5.658-.188-.097zm.341 1.329l-3.45 6.63.188.098 3.45-6.63-.188-.098zm-.102 1.925l-3.5 6.582.186.099 3.501-6.582-.187-.1zm-4.321 9.538l-.182-.11 4.613-7.494.182.11-4.613 7.494zm4.389-5.919l-4.022 6.656.181.109 4.022-6.656-.18-.11zm-2.8 7.004l-.183-.105c2.818-4.969 2.88-5.003 2.88-5.022l.111.183-.058-.092.082.072c-.1.13-1.757 3.04-2.851 4.964" fill="#484152"/><path d="M38.755 20.415l-.141.156 2.15 1.946.141-.157-2.15-1.945zm-1.467-.232l-.145.153 3.94 3.736.145-.154-3.94-3.735zm-.498.547l-.15.148 4.612 4.707.151-.148-4.613-4.707zm1.162 2.54l-.156.142 3.522 3.85.156-.142-3.522-3.85zm.104 1.977l-.148.15 3.414 3.395.15-.15-3.416-3.395zm3.164 4.651l-3.086-2.722.144-.158 3.087 2.722-.145.158zm-.259 1.363l-2.87-2.817.148-.15 2.871 2.819-.149.148zm-2.91-1.531l-.15.149 3.055 3.088.15-.148-3.055-3.089zm-.055 1.467l-.15.15 2.915 2.936.15-.148-2.915-2.938zm-.171 1.016l-.16.137 2.681 3.158.161-.137-2.681-3.158zm.004 1.284l-.168.128L39.8 36.42l.168-.128-2.14-2.794zm1.341 3.871l-1.862-3.053.182-.11 1.863 3.047-.183.116zm-2.092-1.995l-.182.108 1.46 2.45.18-.108-1.459-2.45z" fill="#484152"/><path d="M39.358 20.672c.128.188.291.351.48.48.23.115.533.23.533.23l.509 1.575-1.368-.087s-.6-.029-.74.293a3.254 3.254 0 00-.182.811h-.235a12.486 12.486 0 00-.346-1.656 15.925 15.925 0 00-.624-1.651h.278s.255.48.48.509c.331.077.675.085 1.009.024.196-.116.22-.533.22-.533" fill="#DEDEDF"/><path d="M38.594 24.085h-.326v-.092a13.18 13.18 0 00-.35-1.617 15.855 15.855 0 00-.62-1.642l-.067-.149h.504l.034.058c.11.206.288.441.38.45h.143c.263.053.534.053.797 0 .11-.066.158-.33.168-.445v-.313l.178.255c.116.179.268.332.446.451.22.115.519.226.523.23h.048l.572 1.777-1.522-.101c-.144 0-.547 0-.634.23a3.01 3.01 0 00-.177.778v.096l-.097.034zm-.139-.212h.044c.029-.256.09-.507.182-.748.163-.384.816-.356.845-.356l1.21.077-.447-1.378a4.619 4.619 0 01-.48-.216 1.34 1.34 0 01-.374-.326.576.576 0 01-.23.37 1.797 1.797 0 01-.96 0h-.135c-.216 0-.428-.36-.514-.51h-.053c.125.289.39.96.567 1.518.145.518.258 1.046.336 1.579" fill="#484152"/><path d="M39.68 23.398c-.447.034-1.412.327-1.364 3.034.048 2.708-.48 5.199 1.363 5.32 1.844.12 1.872-3.217 1.849-4.513-.024-1.297-.298-3.956-1.849-3.84z" fill="#DEDEDF"/><path d="M39.77 31.857h-.095c-1.57-.101-1.527-1.848-1.479-3.87v-1.555c-.043-2.5.768-3.087 1.44-3.14a1.253 1.253 0 01.96.332c.87.792.999 2.789 1.013 3.615.039 2.184-.278 3.61-.96 4.248a1.3 1.3 0 01-.922.37h.044zm-.124-8.353c-1.09.081-1.291 1.637-1.267 2.923v1.565c-.053 2.209 0 3.567 1.281 3.649a1.066 1.066 0 00.855-.307c.427-.409.926-1.44.878-4.095 0-.62-.11-2.698-.96-3.457a1.037 1.037 0 00-.792-.278" fill="#484152"/><path d="M41.182 27.541c0 .317-.586.576-1.315.576-.73 0-1.316-.26-1.316-.576 0-.317.59-.58 1.316-.58.725 0 1.315.258 1.315.58z" fill="#DEDEDF"/><path d="M39.867 28.223c-.812 0-1.44-.293-1.44-.682 0-.389.61-.686 1.44-.686s1.44.292 1.44.686c0 .394-.61.682-1.44.682zm0-1.157c-.71 0-1.21.25-1.21.48 0 .23.48.48 1.21.48s1.21-.25 1.21-.48c0-.23-.48-.48-1.21-.48z" fill="#484152"/><path d="M39.703 32.049c-.58 0-1.224.508-1.829 2.477-.605 1.968 0 2.309 0 2.309h1.83s.739-.207 1.041-2.15c.302-1.945-.096-2.66-1.042-2.636z" fill="#DEDEDF"/><path d="M39.718 36.94h-1.872c-.068-.043-.658-.45-.048-2.438.528-1.719 1.137-2.53 1.92-2.55a1.099 1.099 0 01.902.337c.36.413.442 1.18.25 2.424-.307 1.987-1.085 2.227-1.119 2.237l-.033-.01zm-1.8-.21h1.771c.086-.034.691-.356.96-2.06.178-1.157.115-1.892-.202-2.247a.893.893 0 00-.734-.269c-.672 0-1.239.802-1.723 2.4-.485 1.6-.154 2.089-.068 2.175" fill="#484152"/><path d="M40.352 35.184c0 .235-.557.427-1.239.427s-1.239-.192-1.239-.427c0-.236.557-.428 1.239-.428s1.239.192 1.239.428z" fill="#DEDEDF"/><path d="M39.113 35.716c-.667 0-1.344-.182-1.344-.533 0-.7 2.688-.7 2.688 0 0 .35-.677.533-1.344.533zm0-.854c-.73 0-1.128.211-1.128.321 0 .11.398.322 1.128.322.73 0 1.133-.211 1.133-.322 0-.11-.403-.321-1.133-.321z" fill="#484152"/><path d="M36.28 20.523h-1.324c.522.62.856 1.379.96 2.184.278 1.526.384 2.568.384 2.568h1.138a12.002 12.002 0 00-.255-2.914 6.655 6.655 0 00-.902-1.838z" fill="#DEDEDF"/><path d="M37.543 25.38h-1.358v-.095s-.106-1.056-.38-2.559a4.32 4.32 0 00-.912-2.131l-.182-.178h1.632l.034.043a6.72 6.72 0 01.917 1.872c.207.969.295 1.958.264 2.948l-.015.1zm-1.166-.215h.96a11.603 11.603 0 00-.255-2.775 6.664 6.664 0 00-.859-1.762h-1.037c.425.616.704 1.32.816 2.06.23 1.253.341 2.189.375 2.477z" fill="#484152"/><path d="M36.132 20.748s-.51-.043-.528.115c-.02.159.71.125.71.125" fill="#DEDEDF"/><path d="M36.137 21.099a.96.96 0 01-.596-.12.148.148 0 01-.043-.125c0-.226.413-.23.644-.211v.211a1.433 1.433 0 00-.332 0c.171.016.343.016.514 0v.216h-.182m.067.47h-.25v.212h.25v-.212zm.446 0h-.288v.212h.288v-.212z" fill="#484152"/><path d="M36.958 22.664c0 .091-.154.168-.346.168-.192 0-.346-.077-.346-.168 0-.091.154-.173.346-.173.192 0 .346.077.346.173z" fill="#DEDEDF"/><path d="M36.602 22.938c-.264 0-.456-.116-.456-.279 0-.163.192-.278.456-.278s.452.12.452.278c0 .159-.193.279-.452.279zm0-.341a.329.329 0 00-.244.072c.075.039.16.059.244.057a.35.35 0 00.236-.067.389.389 0 00-.236-.062zm.01 1.176H36.4v.475h.21v-.475zm.494 0h-.21v.475h.21v-.475zm-.148.657h-.212v.677h.212v-.677z" fill="#484152"/><path d="M32.825 20.984a1.525 1.525 0 001.44.518.884.884 0 00.72-1.06" fill="#DEDEDF"/><path d="M33.953 21.646a1.584 1.584 0 01-1.157-.547l-.034-.029.062-.072v-.12c.063 0 .096.024.144.072a1.348 1.348 0 001.31.447.774.774 0 00.615-.941l.207-.044a.96.96 0 01-.797 1.181 1.494 1.494 0 01-.35.044" fill="#484152"/><path d="M34.587 20.755l-1.208.07.012.212 1.208-.072-.012-.21z" fill="#484152"/><path d="M33.919 21.78h-.907s-.034 1.7 1.056 1.714c1.09.015.926-.96.96-1.041.033-.082.384.048.259.379-.09.226-.222.433-.389.61h.874s.134-1.253-.528-1.503c-.663-.25-1.172-.183-1.243.149-.11.48-.337.749-.413.408a.638.638 0 01.345-.71" fill="#DEDEDF"/><path d="M34.077 23.605a.932.932 0 01-.69-.293 2.491 2.491 0 01-.481-1.532v-.105h1.493-.029c.307-.021.614.03.898.149.73.278.605 1.56.6 1.613v.096h-1.229l.11-.11a1.172 1.172 0 01-.643.162l-.029.02zm-.96-1.71c0 .458.144.903.413 1.273a.735.735 0 00.542.23.821.821 0 00.639-.201.902.902 0 00.197-.658.555.555 0 010-.091.14.14 0 01.105-.116.311.311 0 01.284.106.408.408 0 01.077.442 2.008 2.008 0 01-.26.48h.547c0-.284 0-1.114-.48-1.296a1.32 1.32 0 00-.96-.082.217.217 0 00-.12.154c-.033.149-.163.648-.408.648-.072 0-.168-.043-.21-.24a.706.706 0 01.114-.648h-.48zm2.002.668c.007.173-.019.346-.077.509.053-.084.098-.173.135-.264a.216.216 0 000-.197l-.044-.048h-.014zm-1.157-.667a.523.523 0 00-.283.59.164.164 0 000 .058 1.13 1.13 0 00.182-.48.48.48 0 01.101-.192v.024z" fill="#484152"/><path d="M34.557 23.61h1.301l.096 2.4h-1.128l.72-.807s-1.56-.182-1.555.26c.005.441 2.04 1.031 2.04 1.031v.87s-1.997.85-1.968 1.257c.029.408 1.57.293 1.57.293s-.932-.6-.913-.624c.02-.024 1.354-.077 1.354-.077l-.216 5.065h-1.017l.34-.557h-.96l.25.547h-1.042c.043-.048.288-.48.274-4.32 0-4.206-.279-5.281-.279-5.281h.423s-.163.437.48.48c.336.037.677.009 1.003-.082l-.773-.456z" fill="#DEDEDF"/><path d="M35.94 33.417h-2.583l-.057-.13.048-.053c0-.038.259-.48.24-4.253 0-4.128-.27-5.28-.274-5.28l-.029-.135h.71l-.052.144a.235.235 0 000 .192c.053.087.177.135.365.149.237.028.477.028.715 0l-.893-.528h1.79l.106 2.63h-.83c.259.101.547.198.826.28h.076v1.017l-.062.029c-1.047.446-1.92.96-1.92 1.152 0 0 0 .024.028.048.346.144.722.2 1.095.163-.658-.432-.667-.48-.677-.509v-.043l.029-.038c.038-.058.048-.072 1.44-.13h.115l-.206 5.295zm-1.565-.562c.053.12.134.288.187.408l.072.154.34-.557h-.6v-.005zm.638.355h.725l.178-4.171h-.298c-.125 0-1.258.081-1.58-.197a.293.293 0 01-.1-.197c-.029-.432 1.44-1.1 1.968-1.334v-.716a9.901 9.901 0 01-1.258-.48h-.09v-.029c-.4-.187-.72-.408-.726-.624a.292.292 0 01.096-.216c.317-.288 1.44-.163 1.575-.148h.206l-.672.825h.783l-.091-2.208h-.807l.648.384-.211.077a2.73 2.73 0 01-1.051.086.656.656 0 01-.533-.25.423.423 0 01-.063-.235h-.168c.207 1.722.292 3.456.255 5.19 0 2.213-.072 3.706-.221 4.224h.72a8.363 8.363 0 01-.187-.408v-.053l.033-.048c.039-.053.053-.067 1.033-.048h.187l-.35.576zm-.033-4.8c.177.125.441.297.691.456l.245.158.029-.657-.96.043h-.005zm-.106-3.096a1.44 1.44 0 00-.763.134c-.024.024-.029.038-.024.058 0 .11.269.283.657.456l.567-.63h-.437" fill="#484152"/><path d="M34.409 26.965a.62.62 0 01-.408-.14.374.374 0 01-.106-.282.392.392 0 01.12-.288.643.643 0 01.413-.135h.13v.84h-.125l-.024.005zm-.068-.629a.394.394 0 00-.158.072.182.182 0 00-.053.135.172.172 0 00.043.124.31.31 0 00.168.072v-.403z" fill="#484152"/><path d="M34.735 26.312c0 .043.038.48.038.48l.37-.24-.408-.24z" fill="#DEDEDF"/><path d="M34.677 26.965v-.173c0-.072-.033-.432-.033-.48v-.182l.72.408-.687.427zm.178-.48v.091l.072-.048-.072-.043z" fill="#484152"/><path d="M35.647 30.148c-.034 0-1.666-.26-1.647.48.02.74 1.647.437 1.647.437a7.589 7.589 0 01-.826-.26l.826-.643" fill="#DEDEDF"/><path d="M34.965 31.213c-.309.028-.62-.04-.888-.196a.481.481 0 01-.182-.384.48.48 0 01.153-.375c.36-.336 1.248-.24 1.541-.206h.048l.48-.12-.398.307-.682.523.644.183.45.124-.48.087a4.46 4.46 0 01-.7.057h.014zm.02-.998a1.214 1.214 0 00-.807.182.272.272 0 00-.086.216.268.268 0 00.11.221c.264.143.566.2.864.163-.346-.1-.35-.13-.365-.187v-.062l.053-.044.61-.48h-.37" fill="#484152"/><path d="M34.883 32.135l.365.423.365-.423h-.73z" fill="#DEDEDF"/><path d="M35.249 32.72l-.082-.095-.36-.418-.173-.178h1.21l-.595.692zm-.13-.48l.13.154.134-.153h-.264z" fill="#484152"/><path d="M33.842 32.135l.331.37.336-.37h-.667z" fill="#DEDEDF"/><path d="M34.173 32.668l-.576-.643h1.143l-.567.643zm-.096-.427l.096.105.096-.105h-.192z" fill="#484152"/><path d="M30.457 21.492c.249 1.043.41 2.104.48 3.174.039 1.353.14 3.787.14 3.787s.48-1.325 1.286-1.186c.807.14 1.042 1.11 1.042 1.11s0-3.25-.14-4.364a28.773 28.773 0 00-.662-3.02l-2.146.5z" fill="#DEDEDF"/><path d="M33.491 29.298l-.21-.898s-.222-.902-.96-1.027c-.74-.125-1.163 1.104-1.167 1.114l-.183.518-.024-.547s-.1-2.448-.14-3.788a19.199 19.199 0 00-.48-3.154v-.1l2.334-.548.029.096c.274 1 .495 2.012.662 3.034.135 1.11.14 4.249.14 4.378v.922zm-2.909-7.724c.233 1.017.383 2.05.447 3.092 0 .988.086 2.573.12 3.36.22-.403.629-.96 1.214-.845a1.337 1.337 0 01.912.682c0-.96-.033-2.996-.134-3.817a28.42 28.42 0 00-.629-2.904l-1.93.432z" fill="#484152"/><path d="M32.359 21.593a3.306 3.306 0 01-1.23 0c.407-.07.823-.07 1.23 0z" fill="#DEDEDF"/><path d="M31.744 21.756c-.72 0-.72-.072-.72-.163 0-.091 0-.163.72-.163s.725.072.725.163c0 .091 0 .163-.725.163z" fill="#484152"/><path d="M31.596 22.664l.148.441h-.614a1.16 1.16 0 00.96.48.825.825 0 00.758-.45h-.739l.36-.452-.873-.02z" fill="#DEDEDF"/><path d="M32.013 23.677a1.27 1.27 0 01-.96-.51l-.12-.167h.672l-.144-.447h1.22l-.366.456h.672l-.057.144a.912.912 0 01-.85.519h-.057l-.01.005zm-.624-.485a.96.96 0 00.682.25.778.778 0 00.561-.24h-.763l-.48-.01zm.365-.442l.139.422.34-.422h-.48z" fill="#484152"/><path d="M30.957 22.208s.37.417.374.398c.005-.02.423-.408.413-.398-.01.01-.787 0-.787 0z" fill="#DEDEDF"/><path d="M31.322 22.716c-.053 0-.11-.057-.447-.436l-.158-.183h1.008l.24-.024-.144.197-.029.024-.374.36v.043h-.092l-.004.02zm-.12-.417l.134.144.14-.14h-.28" fill="#484152"/><path d="M32.498 22.625c-.043 0-.091-.038-.235-.153l-.212-.159h-.278l.235-.177a.11.11 0 01.096 0l.63.043h.066l.03.062c.028.072 0 .096-.12.23a1.114 1.114 0 00-.107.111v.034l-.057.029h-.048v-.02zm-.067-.268l.048.033v-.029h-.072m.177 2.669c-.364 0-.561-.57-.58-.638l-.034-.1.1-.034 1 .024h.143l-.048.134c0 .062-.216.61-.58.61v.005zm-.321-.566c.077.163.197.35.321.35.125 0 .25-.182.322-.33h-.643" fill="#484152"/><path d="M32.104 24.358s-.917.092-1.2.48l1.2-.48z" fill="#DEDEDF"/><path d="M30.99 24.915l-.172-.12c.321-.48 1.277-.542 1.286-.542v.216c-.139 0-.888.12-1.118.446" fill="#484152"/><path d="M33.324 25.616c0 .048-.226.672-.634.61-.408-.063-.629-.999-.643-.96a4.057 4.057 0 01-.812.806c-.288.144 0 .384 1.44.168" fill="#DEDEDF"/><path d="M31.715 26.423c-.345 0-.628-.053-.676-.212 0-.043-.03-.158.148-.25a3.65 3.65 0 00.768-.772l.039-.048h.067c.067 0 .082.053.115.154.173.518.35.796.528.82.298.048.48-.45.514-.523l.211.034c0 .096-.259.763-.739.705a7.682 7.682 0 01-.96.087l-.015.005zm-.427-.27c.365.073.74.073 1.104 0a2.032 2.032 0 01-.37-.7c-.203.267-.448.5-.724.691" fill="#484152"/><path d="M31.058 28.367s-.149 1.104.302 1.565c.452.46.59.456.59.456s.294-.456.28-.451c-.015.004-.745-.116-.702-.524.044-.408 1.81-.633 1.71.034a.66.66 0 01-.802.538l-.048.384a.96.96 0 00.96-.48c.206-.375.267-.812.173-1.23 0 0-.264-1.377-1.157-1.382-.893-.005-1.124.514-1.287 1.1" fill="#DEDEDF"/><path d="M31.95 30.498c-.071 0-.254-.067-.666-.48-.48-.48-.341-1.608-.332-1.656.168-.6.418-1.186 1.392-1.176.975.01 1.253 1.383 1.253 1.43.106.444.039.91-.187 1.306a1.022 1.022 0 01-.96.533h-.182v-.134l.048-.39c-.083.168-.18.329-.288.48l-.034.049h-.058l.015.038zm-.806-2.15c0 .096-.115 1.07.279 1.473.14.155.302.29.48.399l.153-.24a1.234 1.234 0 01-.446-.211.442.442 0 01-.192-.404c0-.09.072-.225.331-.336a1.718 1.718 0 011.44 0 .389.389 0 01.154.384.696.696 0 01-.279.48.85.85 0 01-.537.14v.158a.806.806 0 00.725-.432c.191-.35.247-.758.158-1.147 0 0-.254-1.301-1.051-1.306-.816 0-1.013.48-1.172 1.013l-.043.029zm1.152 1.411l.044.058c.013.01.021.026.024.043v-.058h.11a.706.706 0 00.48-.091.513.513 0 00.197-.355.187.187 0 00-.077-.188 1.556 1.556 0 00-1.22 0c-.148.063-.2.13-.206.164a.226.226 0 00.053.163c.15.13.333.214.528.245l.067.019z" fill="#484152"/><path d="M31.067 29.519l-.163 3.663 2.515-1.465.02-.69-1.124-.6-.72-.27-.528-.638z" fill="#DEDEDF"/><path d="M30.79 33.374l.181-4.138.706.82.687.255 1.2.638-.024.816-2.75 1.609zm.369-3.577l-.14 3.197 2.295-1.339v-.566l-1.051-.552-.73-.27-.374-.47z" fill="#484152"/><path d="M32.013 31.425v-.864l.835.48-.835.384zm.211-.48v.163l.159-.072-.159-.091z" fill="#484152"/><path d="M31.811 30.695s-.48.091-.427.413c.053.322.427.293.427.293v-.706z" fill="#DEDEDF"/><path d="M31.778 31.497a.48.48 0 01-.48-.394c-.029-.331.307-.48.514-.528l.124-.024v.946h-.159zm-.053-.668c-.106.039-.23.12-.216.255.014.134.125.178.216.192v-.447z" fill="#484152"/><path d="M34.284 33.494h-.898v1.118l.48-.077s.35-1.06 1.152-1.06c.802 0 .62 1.57.62 1.57h-1.772l-.528-.092" fill="#DEDEDF"/><path d="M35.71 35.15h-1.868l-.547-.091.038-.212.528.092h1.656a1.958 1.958 0 00-.225-1.224.374.374 0 00-.293-.135c-.71 0-1.042.96-1.047.989v.062l-.648.106v-1.349h1.008v.211h-.792v.888l.274-.048c.091-.235.48-1.07 1.224-1.07a.586.586 0 01.48.202c.384.436.274 1.44.269 1.488l-.058.09z" fill="#484152"/><path d="M34.586 34.444s.298-.672.514.072l-.514-.072z" fill="#DEDEDF"/><path d="M34.999 34.55c-.077-.26-.144-.279-.144-.279s-.12.096-.173.216l-.192-.086c0-.063.168-.355.38-.34.21.014.283.249.335.426L35 34.55z" fill="#484152"/><path d="M39.948 37.214c-1.531 0-3.36-.163-5.131-.336-.456-.048-.84-.086-1.119-.106-1.858-.144-9.807-.134-11.257-.048-.614.039-2.55.068-4.8.101-3.25.053-7.297.115-8.483.221-1.743.163-5.333.216-5.804 0-.326-.163-.432-.691-.566-1.358a7.977 7.977 0 00-.24-.985c-.245-.715-.274-2.256-.308-3.749v-.893c-.048-1.637-.096-3.043-.182-3.624a3.14 3.14 0 01.115-1.07 7.05 7.05 0 00.207-1.777c-.034-.873.033-2.4.796-2.846a.989.989 0 01.812-.192c.158.028.319.043.48.043.278 0 .59.024.96.053.818.075 1.64.104 2.463.086l2.496-.1c2.784-.116 6.6-.275 7.47-.207.768.057 4.358.09 10.114.09 1.546 0 6.865-.206 8.497-.292a53.194 53.194 0 016.145 0c1.046.134 1.469 1.608 1.843 2.91.063.21.12.417.182.614.255.825.226 2.4.202 3.898a19.5 19.5 0 00.038 2.472c.183 1.382-.297 5.386-1.747 6.533-.542.432-1.723.581-3.192.581l.01-.019zm-12.634-.94c2.592 0 5.395.033 6.408.11l1.128.105c2.256.226 6.951.692 8.017-.153 1.258-.994 1.762-4.825 1.59-6.14a20.515 20.515 0 01-.044-2.54c0-1.406.053-3-.182-3.763-.063-.197-.12-.408-.183-.62-.34-1.176-.72-2.506-1.493-2.606a53.976 53.976 0 00-6.063 0c-1.632.09-6.97.297-8.52.297-5.762 0-9.367-.033-10.15-.096-.782-.062-4.8.101-7.42.212l-2.502.096a21.39 21.39 0 01-2.506-.087 12.14 12.14 0 00-.921-.053 3.291 3.291 0 01-.562-.043c-.197-.029-.235-.038-.533.135-.413.244-.634 1.161-.59 2.467a7.225 7.225 0 01-.212 1.877 2.957 2.957 0 00-.115.917c.096.61.144 2.026.187 3.682 0 .283 0 .585.024.893.03 1.392.063 2.967.284 3.62.105.34.19.686.254 1.036.082.399.202.994.34 1.066.308.14 3.428.178 5.574 0 1.2-.11 5.089-.173 8.516-.22 2.233-.04 4.158-.068 4.767-.102.61-.033 2.708-.067 4.907-.067" fill="#2A1F2E"/><path d="M22.196 20.417s.37 5.18.322 7.633a60.984 60.984 0 01-.322 6.61 5.228 5.228 0 01-.787 2.175c.569.128 1.16.128 1.728 0 .677-.23.845-4.028 1.003-6.61.23-3.841-.278-10.039-.278-10.039l-1.666.23z" fill="#6D96C4"/><path opacity=".64" d="M23.833 20.186l-.96.13c.067.903.48 6.39.264 9.908-.154 2.583-.322 6.38-.999 6.61a1.728 1.728 0 01-.312.073c.422.064.852.04 1.263-.072.677-.23.845-4.028.998-6.61.23-3.841-.278-10.039-.278-10.039" fill="#ABD1F2"/><path d="M22.407 37.151a5.538 5.538 0 01-1.022-.105l-.322-.072.197-.264a5.195 5.195 0 00.749-2.084 60.06 60.06 0 00.317-6.403v-.178c.048-2.4-.317-7.56-.322-7.614v-.197l2.088-.292v.225c0 .063.51 6.24.279 10.081l-.034.605c-.24 4.11-.456 5.977-1.109 6.198a2.574 2.574 0 01-.82.115v-.014zm-.628-.465c.435.074.881.058 1.31-.048.48-.168.715-3.985.82-5.818l.04-.605a89.47 89.47 0 00-.26-9.784l-1.243.173c.062.96.35 5.28.307 7.45v.183a58.837 58.837 0 01-.322 6.461 6.093 6.093 0 01-.648 1.988" fill="#2A1F2E"/><path d="M28.317 13.163c1.152.264 1.44 1.685 1.92 3.303.48 1.618 1.042 4.052 0 4.882-1.042.83-5.56.418-6.418 0-.86-.418-.365-6.274.825-7.292a3.956 3.956 0 013.653-.893" fill="#FBFBF2"/><path d="M27.189 15.861c-1.268-.23-2.67 1.92-3.663 3.898.038-2.006.192-4.968 1.142-5.88 1.124-1.08 2.4-.855 3.654-.715 1.157.124 1.44 1.507 1.92 3.125.37 1.233.777 2.933.48 4.042-.907-1.964-2.261-4.23-3.567-4.47" fill="#DFDFE0"/><path d="M23.747 21.54c-.255-.125-.39-.48-.428-1.109-.081-1.493-.25-4.205.634-5.832.24-.428.567-.8.96-1.09.118-.092.242-.177.37-.255.83-.48 1.997-.312 3.058-.191 1.06.12 1.521 1.123 1.92 2.539.072.269.144.542.226.806.82 2.741.797 4.412-.072 5.108-.48.389-1.618.528-2.823.528-1.58 0-3.284-.245-3.84-.504h-.005zm4.555-8.16c-1.075-.12-3.02.047-3.518.96-.5.912-1.167 3.763-1.032 6.082.033.556.143.73.187.748.787.38 5.237.793 6.197 0 .48-.388.869-1.512-.072-4.651-.081-.264-.154-.543-.23-.816-.365-1.335-.71-2.247-1.532-2.338" fill="#2A1F2E"/><path d="M11.63 15.51c-.48.068-2.198 2.66-1.411 4.163.787 1.502 1.848 1.142 2.4.226.552-.917.74-4.619-.994-4.388" fill="#FBFBF2"/><path d="M11.63 15.51c-.48.068-2.198 2.66-1.411 4.163.787 1.502 1.848 1.142 2.4.226.552-.917.74-4.619-.994-4.388" fill="#CDCCCD"/><path d="M11.472 20.907h-.039c-.374 0-.921-.216-1.402-1.133-.561-1.076.053-2.501.346-3.063.336-.643.86-1.363 1.224-1.411a1.157 1.157 0 011.176.561c.725 1.104.48 3.428.03 4.148a1.656 1.656 0 01-1.335.898zm.187-5.185a3.629 3.629 0 00-1.07 1.531c-.236.548-.577 1.57-.183 2.324.307.58.667.893 1.042.902a1.22 1.22 0 00.993-.69c.36-.596.586-2.77 0-3.693a.739.739 0 00-.763-.374" fill="#2A1F2E"/><path d="M14.66 12.895c-1.009 0-2.223 2.563-2.569 4.32-.346 1.757.206 3.332 1.594 3.437 1.387.106 2.227.034 2.986-.537.758-.572.48-2.828 0-4.215-.48-1.388-.48-3.024-2.012-3.015" fill="#FBFBF2"/><path d="M16.67 15.79c-.48-1.388-.48-3.025-2.016-3.015-1.003 0-2.217 2.563-2.563 4.32-.059.293-.092.59-.1.888.508-1.608 1.483-3.36 2.318-3.36 1.527 0 1.526 1.627 2.016 3.014.259.728.42 1.487.48 2.257.62-.706.355-2.794-.11-4.11" fill="#DFDFE0"/><path d="M14.611 20.935c-.288 0-.6 0-.96-.038a1.83 1.83 0 01-1.344-.725 3.759 3.759 0 01-.447-2.962c.308-1.57 1.532-4.493 2.775-4.503 1.34 0 1.642 1.133 1.92 2.237.082.303.164.62.27.917.48 1.402.815 3.788-.073 4.455a3.36 3.36 0 01-2.14.62zm.048-7.805c-.797 0-2.007 2.352-2.362 4.162a3.402 3.402 0 00.37 2.62 1.378 1.378 0 001.037.543c1.32.101 2.122.053 2.842-.48.6-.451.48-2.472-.072-3.975a11.23 11.23 0 01-.279-.96c-.316-1.185-.557-1.92-1.521-1.92" fill="#2A1F2E"/><path d="M18.96 12.808c-1.157.125-1.44 2.03-1.944 3.653-.504 1.623-1.037 4.047 0 4.878 1.037.83 5.564.417 6.423 0 .86-.418.389-6.64-.802-7.652-1.19-1.013-2.429-1.018-3.677-.879z" fill="#FBFBF2"/><path d="M20.093 15.852c1.268-.23 2.67 1.92 3.663 3.898-.038-2.007-.168-5.334-1.118-6.241-1.124-1.08-2.43-1.018-3.678-.879-1.157.13-1.44 2.036-1.92 3.654-.37 1.233-.777 2.933-.48 4.042.908-1.964 2.261-4.23 3.567-4.47" fill="#DFDFE0"/><path d="M19.71 22.035c-1.206 0-2.338-.14-2.823-.528-.87-.696-.893-2.367-.072-5.108.076-.264.153-.538.225-.807.39-1.41.788-2.88 1.897-3 1.108-.12 1.944-.197 2.913.226.19.09.374.197.548.317.398.351.724.777.96 1.253.883 1.627.691 4.54.605 6.034-.034.633-.168.96-.423 1.109-.542.259-2.246.48-3.84.48l.01.024zm-.735-9.04c-.82.092-1.167 1.35-1.531 2.684-.077.274-.15.552-.23.816-.96 3.14-.558 4.263-.073 4.652.96.768 5.41.36 6.198-.024.043 0 .153-.192.187-.75.13-2.318-.365-5.62-1.008-6.446-.643-.826-2.468-1.052-3.543-.932z" fill="#2A1F2E"/><path d="M9.038 22.073l-.423-.058c.039-.292 1.009-7.157 4.374-9.6 2.506-1.81 5.698-1.143 8.511-.557a26.7 26.7 0 003.01.518c7.522.672 12.481 3.773 14.728 9.212l-.394.163c-2.184-5.28-7.023-8.295-14.372-8.953a27.024 27.024 0 01-3.058-.523c-2.88-.595-5.819-1.214-8.161.48-3.217 2.324-4.191 9.236-4.2 9.304" fill="#2A1F2E"/></svg>