<svg width="1046" height="82" fill="none" xmlns="http://www.w3.org/2000/svg"><path d="M86.756 2H0v80h26.544V28.657h46.94V82H100V2H86.756zm804.435 0v25.974h-47.41V2H817v80h26.781V54.65h47.41V82H918V2h-26.809zM790 21.966V0h-90v80h90V58.034h-63.011v-7.05h58.352V29.016h-58.352v-7.05H790zM343 0H236v26.657h39.925V80h27.15V26.657H343V0zM187.111 82h-30.194c-10.71-.02-20.987-4.279-28.633-11.866-7.647-7.587-12.056-17.9-12.284-28.734v-.8c.221-10.836 4.628-21.153 12.276-28.742C135.924 4.269 146.205.013 156.917 0h30.194c10.712.005 20.994 4.26 28.639 11.852 7.645 7.59 12.043 17.913 12.25 28.748v.8c-.214 10.833-4.615 21.15-12.258 28.74-7.644 7.59-17.922 11.847-28.631 11.86zm-45.15-41a15.07 15.07 0 004.477 10.342 14.723 14.723 0 0010.338 4.248h30.194c1.894 0 3.769-.378 5.518-1.11a14.405 14.405 0 004.678-3.163 14.609 14.609 0 003.126-4.734 14.733 14.733 0 000-11.166 14.609 14.609 0 00-3.126-4.734 14.405 14.405 0 00-4.678-3.162 14.268 14.268 0 00-5.518-1.11h-30.053a14.723 14.723 0 00-10.338 4.247A15.07 15.07 0 00142.102 41m863.368 38.889h-29.911a40.634 40.634 0 01-28.397-11.551A40.351 40.351 0 01935 40.278v-.668a40.352 40.352 0 0112.142-28.04A40.634 40.634 0 01975.503 0h29.907a40.673 40.673 0 0128.41 11.55A40.372 40.372 0 011046 39.61v.78a40.364 40.364 0 01-12.16 28.041A40.667 40.667 0 011005.47 80v-.111zM960.744 40a14.63 14.63 0 004.442 10.082 14.73 14.73 0 0010.234 4.152h29.91c3.79 0 7.42-1.5 10.1-4.169A14.2 14.2 0 001019.61 40a14.2 14.2 0 00-4.18-10.065 14.308 14.308 0 00-10.1-4.169h-29.91a14.73 14.73 0 00-10.234 4.152A14.63 14.63 0 00960.744 40zM457 33.882a32.365 32.365 0 00-9.763-22.561A32.811 32.811 0 00424.362 2H362v80h26.868V66.298h35.494a32.811 32.811 0 0022.875-9.321A32.365 32.365 0 00457 34.416v-.534zm-32.638 6.433h-35.494v-12.36h35.494c1.651 0 3.233.651 4.4 1.81a6.158 6.158 0 011.822 4.37 6.16 6.16 0 01-1.822 4.37 6.243 6.243 0 01-4.4 1.81zM490.088 80l5.096-11.963h42.942L543.222 80h27.173l1.605-.676L538.21 0h-42.998L461 80h29.088zm26.553-62.153l10.052 23.476h-20.077l10.025-23.476zM671.663 2.028H645.35v22.247a14.69 14.69 0 01-14.378 11.573h-18.253a14.746 14.746 0 01-14.743-14.663V2H572v19.86a40.737 40.737 0 0012.191 28.283 40.712 40.712 0 0028.5 11.66h18.253c4.916.003 9.79-.902 14.378-2.668V82H672V2.028h-.337z" fill="#BD2D43"/></svg>