<svg width="252" height="109" fill="none" xmlns="http://www.w3.org/2000/svg"><path d="M2.467 44.42c0 5.54-.165 11.229-.421 16.843a218.942 218.942 0 01-.349 5.744c0 .794-.128 1.57-.22 2.346 0 .166-.146 1.181 0 .609-.035.36-.09.717-.164 1.071 0 .462-.202.905-.294 1.348-.091.444 0 0 0 0v.13a2.117 2.117 0 011.47-1.05 2.092 2.092 0 011.737.477c.128.11.641 1.145.44.628.147.388 0 .554 0 0v-.887a53.724 53.724 0 012.95-9.843 42.975 42.975 0 015.498-10.287 13.261 13.261 0 013.371-3.306 4.49 4.49 0 011.576-.702c.623-.185-.458 0 .183 0h.404c.2-.018.403-.018.604 0h.202a3.084 3.084 0 012.125 1.718 12.44 12.44 0 011.357 4.137c.542 4.005.579 8.063.11 12.078 0 .905-.165 1.847-.276 2.697v.627c0 .167-.091.61-.128.924a71.17 71.17 0 01-.311 1.939 2.286 2.286 0 00.354 1.676 2.24 2.24 0 003.086.632c.495-.32.845-.825.976-1.403a62.35 62.35 0 00.843-19.577c-.495-3.694-1.833-7.812-5.223-9.456-3.39-1.643-7.714.13-10.61 2.955a36.303 36.303 0 00-7.33 11.414 60.663 60.663 0 00-4.03 12.023 9.974 9.974 0 00-.312 4.082c.074.404.249.782.507 1.1a2.402 2.402 0 003.286.432A5.056 5.056 0 005.6 72.104c.306-1.797.52-3.61.642-5.43.605-7.535.733-15.088.77-22.605 0-2.974-4.563-2.641-4.582.35M37 47.362c0 3.605.17 7.354.435 10.995.2 2.917.553 5.823 1.058 8.707a14.22 14.22 0 002.117 5.966c.348.484.883.818 1.488.93a2.436 2.436 0 001.744-.335 2.39 2.39 0 001.08-1.417 2.282 2.282 0 00-.23-1.738 6.423 6.423 0 01-.586-.973c.265.559 0-.144-.094-.252-.095-.109-.17-.487-.246-.722a25.958 25.958 0 01-.756-3.226 70.61 70.61 0 01-.888-7.805 147.93 147.93 0 01-.397-10.473c0-2.902-4.725-2.577-4.725.343zm3.597-16.054a26.31 26.31 0 00-1.869 2.893 19.375 19.375 0 00-1.346 2.963 8.601 8.601 0 00-.299 1.196c-.11.705-.11 1.42 0 2.125.073.272.205.525.39.744.183.219.414.397.676.523a2.384 2.384 0 001.869.108 2.643 2.643 0 001.402-1.143 2.55 2.55 0 00.243-1.785c0 .196 0 .392.093.589a3.416 3.416 0 010-.875c0 .196 0 .393-.093.59a9.04 9.04 0 01.598-1.947l-.243.554c.711-1.605 1.6-3.13 2.654-4.553.326-.54.413-1.183.243-1.785a2.024 2.024 0 00-.404-.742 2.131 2.131 0 00-.68-.526 2.384 2.384 0 00-1.87-.089 3.036 3.036 0 00-1.401 1.125M68.668 40a15.015 15.015 0 00-9.707 3.865c-6.046 5.208-8.246 14.815-7.396 22.085.5 4.785 3.976 8.263 8.93 5.631 3.884-2.061 4.697-6.496 5.88-10.324 1.646-5.411 3.144-10.859 4.586-16.306l-4.53-.276a290.275 290.275 0 01-1.313 30.219 69.655 69.655 0 01-3.901 18.827 32.636 32.636 0 01-5.048 9.331c-.203.221-.961 1.233-1.35 1.233h.111c-1.072 0-1.849-2.503-2.052-3.313-.814-3.478.259-7.361 1.331-10.895a75.26 75.26 0 013.865-9.588 2.224 2.224 0 00-.953-3.01 2.249 2.249 0 00-3.023.948c-3.106 6.552-6.471 14.098-6.064 21.275.184 3.424 1.479 7.068 4.567 8.742 3.087 1.675 5.658-.754 7.396-3.073a48.642 48.642 0 008.505-21.533 198.087 198.087 0 002.182-24.22c.203-5.079.333-10.177.314-15.256a2.276 2.276 0 00-.66-1.49 2.298 2.298 0 00-3.888 1.214 474.738 474.738 0 01-2.94 10.692c-.777 2.724-1.572 5.522-2.44 8.117-.315.92-.611 1.84-.962 2.723 0 .166-.795 1.583-.37.976a3.83 3.83 0 01-2.274 1.362h-.426a2.83 2.83 0 01-.684-1.252c-.998-3.184-.148-7.49.666-10.711a17.4 17.4 0 014.03-7.914 10.556 10.556 0 013.47-2.467 10.6 10.6 0 014.167-.9c2.94.11 2.921-4.528 0-4.638m12.76-21.68l-2.143 44.278a698.314 698.314 0 00-.3 6.265c-.132 2.615 3.908 2.779 4.604.29a71.466 71.466 0 018.082-19.523 9.649 9.649 0 012.894-3.16.886.886 0 01.507-.145h.132c.368.246.65.594.808.999 1.598 3.178 1.26 7.646 1.128 11.187a83.293 83.293 0 01-.451 6.102c0 .709-.15 1.417-.245 2.125-.093.709 0-.272 0 .309-.413 2.924 4.098 3.85 4.53.908.432-2.942.752-6.23.883-9.335.207-4.486.414-9.825-1.691-13.784-2.105-3.96-6.353-3.887-9.604-.854-3.76 3.433-5.77 8.627-7.518 13.094a107.824 107.824 0 00-3.872 11.17l4.624.29 2.142-44.295c0-2.089.207-4.178.3-6.266.151-2.96-4.547-2.597-4.698.345m31.629-15.976A555.735 555.735 0 00109 67.183a60.005 60.005 0 002.388 16.332c.815 2.796 5.401 1.28 4.567-1.534-2.881-9.701-2.615-20.59-2.407-30.766.209-10.176 2.767-32.884 3.79-42.896.19-2.083.398-4.165.644-6.266.342-2.978-4.396-2.595-4.737.365" fill="#fff"/><path d="M95.83 39.93l46.755-13.494 6.74-1.972a2.278 2.278 0 001.377-1.068 2.27 2.27 0 00-.855-3.099 2.285 2.285 0 00-1.731-.216l-46.756 13.55-6.74 1.935a2.27 2.27 0 00-1.336 1.073 2.258 2.258 0 00.846 3.054 2.277 2.277 0 001.7.237zm84.727 1.364c-.556-4.88-2.65-10.687-7.415-12.592-7.6-3.03-14.829 4.337-17.906 10.887a44.526 44.526 0 00-4.079 22.681c.575 5.443 3.374 12.701 10.363 10.234a33.69 33.69 0 008.304-4.827 49.034 49.034 0 006.952-5.97 26.816 26.816 0 004.968-6.622c1.297-2.758-2.688-4.827-4.004-2.069-2.503 5.298-8.194 9.671-13.106 12.702a38.02 38.02 0 01-3.541 2.068l-.704.272c-.13 0-.908.254-.501.182-.209.017-.42.017-.63 0h-.259c-.538 0-.278 0-.835-.309.279.182-.574-.526-.574-.526s-.501-.78-.686-1.143a15.216 15.216 0 01-.927-3.121 37.953 37.953 0 012.095-18.635c1.724-4.99 5.283-11.867 11.382-11.867 2.669 0 4.282 2.287 5.19 4.41a19.726 19.726 0 011.057 3.41l.222 1.126c.13.726 0-.254 0 0 .334 2.903 4.968 2.613 4.634-.327m10.827-26.845c-.645 6.967-1.003 13.933-1.2 20.9-.323 11.508-.52 23.581 2.095 34.651.95 4.013 2.508 8.992 6.341 10.815 2.543 1.222 4.817-2.972 2.256-4.194a5.437 5.437 0 01-2.418-2.663 22.926 22.926 0 01-1.791-5.143 83.208 83.208 0 01-1.916-15.392 283.33 283.33 0 01.537-32.135c.161-2.39.323-4.778.555-7.167.269-3.01-4.208-2.645-4.477.346m13.752 26.837a74.881 74.881 0 000 8.395c.258 4.059.571 9.137 3.226 12.232 2.932 3.41 7.376 1.15 9.607-2.298 2.599-4.022 3.577-9.174 4.333-13.752a96.28 96.28 0 001.198-10.712l-4.609.334 1.327 28.3.184 4.077a2.335 2.335 0 00.793 1.59 2.304 2.304 0 003.705-1.024c.096-.29.134-.595.112-.9-.442-9.427-.879-18.86-1.309-28.3 0-1.37-.129-2.724-.203-4.077-.129-3.058-4.443-2.724-4.609.334a59.712 59.712 0 01-3.522 19.33 17.047 17.047 0 01-1.236 2.465 5.8 5.8 0 01-1.069 1.242c-.13.11-.272.202-.424.278.442-.241.092 0 0 0-.572.37 0 0-.461.11.424-.129.24.112 0 0 0 0 .479.13.092 0-.387-.129-.516-.37 0 0a2.26 2.26 0 01-.369-.351 3.282 3.282 0 01-.313-.5c0-.149-.443-.927-.313-.63a15.968 15.968 0 01-.72-2.429 35.754 35.754 0 01-.719-5.56 75.362 75.362 0 010-8.395c.166-3.077-4.443-2.724-4.609.334m33.448 20.445c.719-4.125.683-8.306 1.457-12.45a29.073 29.073 0 012.356-7.921 6.324 6.324 0 011.619-2.2c.284-.19.593-.339.918-.44h-.09c.413.164.521.311.827.88.374.706.658 1.457.846 2.236.54 2.302.83 4.657.863 7.023a57.612 57.612 0 01-1.583 16.228 15.445 15.445 0 01-1.925 4.749c-.431.55 0 0-.431.421.161-.183.413 0 .09 0a6.54 6.54 0 01-3.095-1.595 18.981 18.981 0 01-4.227-6.894c-.288-.715-.504-1.467-.774-2.182-.269-.715 0 .825 0 .146.414-2.97.342-6.05.504-9.003l.918-16.502 1.511-27.192c.162-3.044-4.336-2.677-4.498.348a23172.82 23172.82 0 00-1.493 26.716c-.342 6.142-.665 12.267-1.007 18.336a39.256 39.256 0 00-.36 8.453 23.419 23.419 0 002.393 5.904 16.055 16.055 0 006.422 7.334c5.091 2.55 8.203-1.393 9.786-6.307a56.389 56.389 0 002.266-18.336c0-4.474-.233-11.002-3.597-14.082a5.195 5.195 0 00-3.364-1.242c-1.23 0-2.42.44-3.364 1.242-2.627 1.943-3.958 5.5-4.857 8.47a65.214 65.214 0 00-1.979 11.003 165.9 165.9 0 00-.414 4.309l-.108 1.338c0 .44-.126 1.045 0 .367a2.295 2.295 0 00.311 1.699c.32.502.823.854 1.398.978a2.18 2.18 0 001.667-.317 2.26 2.26 0 00.96-1.425" fill="#fff"/></svg>