<svg width="326" height="353" fill="none" xmlns="http://www.w3.org/2000/svg"><path d="M160.941 352.867c-56.533 0-88.856-29.331-105.882-53.906a147.182 147.182 0 01-14.765-26.936c-17.925 0-20.984-1.397-23.279-2.627-8.546-4.29-10.309-13.069-11.606-19.487-.399-1.862-.798-3.824-1.163-4.988-2.262-6.651-2.628-15.863-2.927-30.329v-6.052c-.2-7.449-.565-19.953-1.097-23.278a33.257 33.257 0 01.964-12.637 34.883 34.883 0 001.098-8.779c-.433-12.537 1.962-21.915 7.083-27.967-4.789-27.335-9.977-76.22 7.881-101.526C40.858 1.1 78.736-4.055 106.271 2.43a154.946 154.946 0 0133.021 13.635c7.616 3.857 20.319 10.242 24.31 9.976 13.468-2.261 60.523-7.183 98.566 24.642 33.654 28.133 43.231 54.969 46.557 80.01 7.814 6.385 11.007 17.492 13.301 25.606l1.164 3.991c2.461 7.948 2.262 19.387 2.029 31.525-.255 4.985-.255 9.98 0 14.965 1.53 11.506-1.397 45.758-17.426 58.461a30.198 30.198 0 01-12.736 5.554 167.379 167.379 0 01-20.917 31.126C254.453 324.9 219.103 352.468 162.504 353l-1.563-.133zM60.246 242.661l3.326 9.977a127.075 127.075 0 0015.03 29.929c13.303 18.922 38.044 41.468 82.206 41.468h1.364a116.388 116.388 0 0089.953-41.003 138.204 138.204 0 0019.953-31.558l3.525-7.682 8.38-.698a28.743 28.743 0 005.953-.931c3.325-4.058 7.615-22.58 6.418-31.692-.566-6.424-.7-12.879-.399-19.321 0-7.549.332-18.955-.732-22.447-.432-1.397-.864-2.86-1.297-4.356a81.277 81.277 0 00-3.491-10.409l-8.846-1.264-1.098-11.273c-2.56-25.839-9.51-45.392-37.411-68.737-28.599-23.91-64.88-19.953-75.288-18.323-12.903 2.161-27.07-4.955-42.067-12.537a136.007 136.007 0 00-26.604-11.34c-18.39-4.323-43.53-1.197-58.894 20.518-10.375 14.698-8.014 56.1-1.397 88.357l2.86 13.934-10.807 2.361a40.376 40.376 0 00-.333 7.183 62.673 62.673 0 01-1.73 15.829c-.199.931-.465 2.162-.565 2.827.632 4.556.931 12.271 1.33 26.271v6.285a139.674 139.674 0 001.364 21.649 55.635 55.635 0 011.895 7.449h16.162l11.24-.466z" fill="#fff"/><path d="M26.758 144.294s-15.863-72.927 3.325-99.963c19.188-27.036 50.514-30.76 72.296-25.673 21.781 5.088 48.285 26.271 63.549 23.71 15.264-2.56 54.371-5.12 85.764 21.15 31.392 26.272 39.905 49.882 42.3 80.743 2.394 30.86-259.386 17.957-259.386 17.957l-7.848-17.924z" fill="#B63847"/><path d="M272.644 157.032c-14.466-55.037-78.78-65.91-103.089-69.835-24.309-3.924-55.735-16.627-78.813 0C67.663 103.824 60.18 158.96 60.18 158.96l93.578 23.711 118.885-25.639z" fill="#872446"/><path d="M246.969 107.515c3.325.466 15.23 18.423 9.777 28.832-5.454 10.409-12.837 7.881-16.628 1.563-3.791-6.318-5.121-31.991 6.884-30.395" fill="#FBFBF2"/><path d="M246.969 107.515c3.325.466 15.23 18.423 9.777 28.832-5.454 10.409-12.837 7.881-16.628 1.563-3.791-6.318-5.121-31.991 6.884-30.395" fill="#CDCCCD"/><path d="M238.824 138.674c-3.027-4.989-4.822-21.084.199-28.732a8.013 8.013 0 018.147-3.891c2.495.332 6.153 5.287 8.48 9.777 1.996 3.891 6.286 13.767 2.395 21.216-3.326 6.319-7.117 7.749-9.744 7.848h-.233a11.468 11.468 0 01-9.244-6.218zm2.66-27.136c-4.19 6.418-2.627 21.482 0 25.606a8.528 8.528 0 002.811 3.301 8.528 8.528 0 004.073 1.488c2.593 0 5.088-2.262 7.183-6.252 2.727-5.221.399-12.338-1.264-16.095a24.61 24.61 0 00-7.416-10.609 5.127 5.127 0 00-5.254 2.561" fill="#2A1F2E"/><path d="M226.088 89.391c6.984 0 15.397 17.725 17.791 29.93 2.395 12.204-1.43 23.078-11.04 23.777-9.611.698-15.43.266-20.718-3.692-5.287-3.957-3.325-19.62 0-29.23 3.326-9.611 3.326-20.95 13.967-20.851" fill="#FBFBF2"/><path d="M212.052 109.444c3.326-9.61 3.326-20.95 13.934-20.884 6.983 0 15.397 17.758 17.791 29.929a33.83 33.83 0 01.665 6.185c-3.492-11.14-10.276-23.278-16.029-23.278-10.608 0-10.575 11.273-13.967 20.884a62.061 62.061 0 00-3.325 15.63c-4.257-4.889-2.428-19.354.798-28.466" fill="#DFDFE0"/><path d="M211.157 140.637c-6.152-4.623-3.924-21.15-.499-30.86.699-2.062 1.297-4.257 1.829-6.385 2.029-7.616 4.091-15.497 13.302-15.497 8.646 0 17.093 20.352 19.221 31.193 1.63 8.347.532 15.796-3.092 20.518a12.507 12.507 0 01-9.278 5.055c-2.361.166-4.523.266-6.651.266a23.283 23.283 0 01-15.164-4.29h.332zm14.499-49.882c-6.651 0-8.347 5.055-10.542 13.302-.565 2.161-1.163 4.423-1.928 6.651-3.658 10.408-4.656 24.409-.499 27.534 4.988 3.791 10.542 4.124 19.687 3.326a9.718 9.718 0 007.183-3.858 23.438 23.438 0 002.527-18.157c-2.461-12.57-10.808-28.798-16.328-28.831" fill="#2A1F2E"/><path d="M252.224 64.084c-31.392-26.271-70.5-23.71-85.763-21.15-15.264 2.56-41.768-18.556-63.417-23.71-21.649-5.155-53.207-1.563-72.395 25.639-19.188 27.202-3.326 99.963-3.326 99.963l7.715 17.958s8.547.399 22.547.931c.798-3.924 1.663-7.649 2.494-11.24h-1.064c.266-2.029 6.984-49.616 30.295-66.51 17.359-12.537 39.44-7.914 58.927-3.857a192.64 192.64 0 0020.884 3.591c52.11 4.656 86.462 26.139 102.025 63.816a45.64 45.64 0 012.694 7.948c13.301-3.026 21.349-7.117 20.883-12.604-2.56-30.76-10.907-54.47-42.299-80.742" fill="#B63847"/><path opacity=".38" d="M31.282 145.724s-19.62-72.96 3.99-99.963C51.9 26.739 75.81 19.157 97.89 18.259c-21.515-3.924-50.613.632-68.77 26.371-19.088 27.036-3.326 99.963-3.326 99.963l7.682 17.958 6.651.299-8.846-17.126z" fill="#872446"/><path opacity=".8" d="M58.216 135.317c-7.98-.399-39.14-21.483-26.97-17.858 14.167 4.223 19.322 13.302 35.65 4.656 3.924-2.095-17.392-.433-28.732-15.896-1.73-2.328 28.732 15.896 42.532 4.656 4.124-3.326-13.8-1.929-19.953-12.404-6.152-10.476-5.586-16.628-5.586-16.628s13.069 13.967 26.27 17.858c13.203 3.891 17.825 2.328 18.39.366.566-1.962-28.299-22.68-26.603-25.54 1.696-2.86 27.302 22.447 32.49 19.953 5.187-2.494-5.753-5.82-12.637-11.639-6.884-5.82-16.993-21.615-14.432-24.675 2.56-3.06 14.997 22.347 23.045 26.238 8.048 3.89 14.366 6.65 19.52 3.093 5.155-3.559-1.696-3.093-5.154-13.302-3.459-10.21-3.924-21.715-1.164-21.715s3.325 17.06 8.181 22.513c4.855 5.454 7.914 10.475 11.938 8.147 4.024-2.328-4.456-26.603-.931-27.468 3.525-.865 7.283 24.841 10.708 25.506 6.983 1.397-.532-25.639 2.86-26.37 3.392-.732 6.351 25.605 6.351 25.605 6.319 2.328 11.44-5.62 11.872-11.805.433-5.62.366-13.967 2.262-16.129 3.325-3.824 0 30.595 2.527 31.825 3.758 1.83 9.976-5.72 12.337-12.703 2.361-6.983 2.827-12.072 4.224-11.64 2.394.766-4.756 23.578-1.563 24.476a18.82 18.82 0 0021.283-6.983c5.753-6.984 9.743-19.221 11.506-18.623 1.762.599-13.801 29.93-9.212 32.024 4.589 2.095 11.506-1.762 17.825-8.746 6.318-6.983 6.252-10.375 8.047-9.31 1.796 1.063-14.964 21.748-10.342 24.84 4.623 3.093 16.095.4 20.685-4.655 4.589-5.055 8.712-11.972 10.342-10.875 1.629 1.098-16.628 17.858-13.801 21.35 2.827 3.492 12.87-4.623 13.801-3.891.931.732-10.343 6.651-7.483 9.71 2.86 3.06 7.483 4.19 18.956 2.228 3.325-.565 9.976-3.525 10.508-1.962.532 1.563-16.627 4.789-16.627 8.281 0 3.492 7.582 6.651 7.449 7.748-.133 1.097-63.783-1.929-63.783-1.929l-79.412 18.457-67.174-6.784z" fill="#872446"/><path d="M30.45 89.856c3.657 1.363-1.165-16.627 14.897-38.476a38.975 38.975 0 0137.977-16.627c10.708 1.929 17.758-3.858 14.565-7.05-3.192-3.192-28.366 1.463-37.81 6.418a56.235 56.235 0 00-25.64 24.076c-5.12 9.544-11.04 29.131-3.99 31.692m79.246-58.529c4.988-2.227 11.539 10.41 23.71 12.172 6.452.931 8.946 2.56 7.017 4.49-1.929 1.928-12.304.498-20.418-4.49-6.418-3.99-16.095-9.61-10.309-12.171zm62.553 18.724c-1.397-3.326 17.292-4.722 29.463-2.66 12.172 2.061 21.217 8.679 19.222 10.774-3.326 3.325-14.1-6.451-24.243-6.65-6.651-.234-22.513 3.524-24.442-1.298m55.736 11.871c-1.197 3.126 5.919 1.929 9.777 6.651 1.829 2.228 2.86-3.325-.965-6.252-2.86-2.261-7.449-3.824-8.812-.299" fill="#CE9DAD"/><path d="M54.992 81.842a45.786 45.786 0 003.326 6.318 39.309 39.309 0 004.256 5.654 29.5 29.5 0 005.255 4.655l1.463.998 1.563.865c1.03.665 2.161.964 3.325 1.529a23.759 23.759 0 01-6.65-2.893 27.636 27.636 0 01-5.488-4.722 36.582 36.582 0 01-4.223-5.753 31.96 31.96 0 01-2.827-6.651m22.713-29.163c.998 2.527 2.062 5.021 3.126 7.482a91.565 91.565 0 003.525 7.283 72.272 72.272 0 004.157 6.85 50.318 50.318 0 005.188 6.152 27.27 27.27 0 01-6.12-5.453 45.69 45.69 0 01-4.489-6.884 52.144 52.144 0 01-5.32-15.43m-6.32 18.155c2.161 2.793 4.223 5.52 6.65 8.08 1.131 1.264 2.362 2.428 3.625 3.592a36.219 36.219 0 004.124 3.126 15.695 15.695 0 01-4.855-2.228 22.277 22.277 0 01-3.99-3.525 28.223 28.223 0 01-3.16-4.256 21.048 21.048 0 01-2.261-4.789m42.998-18.155c.233 1.928.466 3.857.665 5.753.2 1.895.433 3.824.732 5.72a53.15 53.15 0 00.998 5.586 26.583 26.583 0 001.829 5.42 14.136 14.136 0 01-2.927-5.087 26.584 26.584 0 01-1.363-5.72 39.235 39.235 0 010-11.672m19.655 1.828c.998 3.691 1.663 7.382 2.361 11.074l.998 5.52a45.489 45.489 0 001.23 5.52 19.46 19.46 0 01-2.361-5.22 46.611 46.611 0 01-1.33-5.554 56.351 56.351 0 01-.898-11.34zm12.735-1.83a69.384 69.384 0 013.326 12.936c.327 2.205.538 4.425.632 6.651a24.789 24.789 0 01-.466 6.651c0-2.195-.399-4.39-.665-6.65-.266-2.262-.632-4.357-.965-6.652-.631-4.356-1.33-8.712-1.729-13.301m19.921-1.896a65.94 65.94 0 011.53 15.097 52.43 52.43 0 01-.566 7.582 27.609 27.609 0 01-1.995 7.35c.422-2.466.71-4.953.865-7.45 0-2.494.199-4.988.233-7.482.033-2.494 0-5.021 0-7.515v-7.582m15.827 10.808c.432 3.79.432 7.617 0 11.407a45.444 45.444 0 01-1.064 5.62 18.664 18.664 0 01-2.162 5.32c.44-1.82.784-3.663 1.031-5.52.266-1.862.499-3.724.732-5.587.465-3.724.864-7.482 1.596-11.24m32.157 0a89.586 89.586 0 01-5.287 13.867 72.412 72.412 0 01-3.492 6.651 23.896 23.896 0 01-4.656 5.82 42.857 42.857 0 003.625-6.352l3.325-6.65c2.129-4.423 4.224-8.846 6.651-13.302m17.161 13.068c-.699 1.83-1.53 3.625-2.395 5.387-.864 1.763-1.862 3.326-2.86 5.155a48.424 48.424 0 01-3.325 4.855 16.62 16.62 0 01-4.356 3.957 19.93 19.93 0 003.89-4.323c1.131-1.563 2.228-3.325 3.326-4.855 2.095-3.325 3.924-6.65 5.886-10.176m21.216 9.244c-1.064 1.763-2.228 3.326-3.325 5.089-1.098 1.762-2.461 3.325-3.758 4.855a58.803 58.803 0 01-4.124 4.522 23.059 23.059 0 01-4.788 3.825 37.59 37.59 0 004.389-4.224 102.76 102.76 0 003.958-4.589c2.66-3.126 5.121-6.318 7.748-9.477m1.098 18.222a22.182 22.182 0 01-4.855 4.124 15.642 15.642 0 01-5.953 2.361 42.362 42.362 0 005.554-2.993c1.762-1.097 3.492-2.294 5.254-3.325m24.242 8.581c-1.762.997-3.625 1.862-5.454 2.693-1.829.832-3.758 1.53-5.686 2.195a51.5 51.5 0 01-5.886 1.629 23.265 23.265 0 01-6.053.632 35.198 35.198 0 005.92-1.164 79.775 79.775 0 005.786-1.795c1.929-.599 3.791-1.331 5.686-2.029l5.687-2.161zm-242.757-6.852c2.062 1.63 4.19 3.093 6.352 4.49a67.53 67.53 0 006.65 3.758 46.05 46.05 0 007.184 2.826 39.295 39.295 0 007.615 1.364 29.008 29.008 0 01-7.748-.832 41.687 41.687 0 01-7.383-2.693 52.711 52.711 0 01-6.65-3.958 45.203 45.203 0 01-6.02-4.955" fill="#1A1219"/><g opacity=".34" fill="#872446"><path opacity=".34" d="M51.204 58.264a24.242 24.242 0 001.662 7.681 32.091 32.091 0 0010.409 14.3 1.895 1.895 0 002.594 0 1.862 1.862 0 000-2.627 28.665 28.665 0 01-9.378-12.836 25.569 25.569 0 01-1.297-4.922 1.69 1.69 0 010-.432c0-.366 0 .465 0 0-.016-.2-.016-.4 0-.599a2.688 2.688 0 010-.532c0-2.361-3.758-2.361-3.691 0m-7.118 6.551a43.809 43.809 0 002.128 4.123 22.714 22.714 0 005.22 6.651 1.862 1.862 0 003.004-.592 1.795 1.795 0 00-.41-2.002c-.496-.397-.963-.83-1.396-1.297l-.698-.831-.3-.366-.166-.2a37.357 37.357 0 01-2.195-3.325 35.256 35.256 0 01-2.062-4.023 1.827 1.827 0 00-2.527-.666 1.962 1.962 0 00-.665 2.528m47.555-19.886c-.1 2.866.033 5.735.399 8.58a28.266 28.266 0 005.088 14.332 1.861 1.861 0 102.627-2.594 24.84 24.84 0 01-4.124-12.47c-.3-2.605-.4-5.228-.299-7.848 0-2.361-3.591-2.361-3.691 0m105.815 12.836a52.69 52.69 0 01-1.663 6.352 37.263 37.263 0 01-2.029 5.188 17.059 17.059 0 01-3.026 4.522c-1.629 1.696.964 4.323 2.627 2.627a28.073 28.073 0 005.853-10.974 51.661 51.661 0 001.796-6.65 1.897 1.897 0 00-1.297-2.262 1.864 1.864 0 00-2.261 1.297m19.954 8.812c0 .533 0-.498 0 0v1.131c-.2 1.164-.433 2.328-.732 3.326-.299.997-.332 1.33-.532 1.995l-.366 1.064v.366s-.266.665 0 .2a11.308 11.308 0 01-.864 1.662l-.266.4c-.167.265.299-.3 0 0l-.599.565a1.865 1.865 0 00.147 2.449 1.863 1.863 0 002.447.178 8.67 8.67 0 002.294-3.326 23.469 23.469 0 001.53-4.456c.486-1.88.842-3.79 1.064-5.72a1.86 1.86 0 00-1.829-1.829 1.898 1.898 0 00-1.862 1.83"/><path opacity=".34" d="M222.761 71.465a73.66 73.66 0 01-2.261 4.224 69.986 69.986 0 01-2.394 3.857c-.433.632-.865 1.297-1.331 1.93l-.365.498-.765.931a19.332 19.332 0 01-1.597 1.696 7.394 7.394 0 01-.798.698c.3-.232 0 0 0 0a1.893 1.893 0 01-.432.266 1.905 1.905 0 101.862 3.326 21.416 21.416 0 006.319-6.651 86.246 86.246 0 004.423-7.35c.266-.531.565-1.064.831-1.629a1.928 1.928 0 00-.665-2.527 1.862 1.862 0 00-2.528.665m22.983 1.994a48.347 48.347 0 01-2.827 5.155 22.874 22.874 0 01-1.397 2.095l-.399.565-.232.3c-.266.365-.566.698-.865 1.064-.578.683-1.2 1.327-1.862 1.928l-.499.433-.233.2a9.384 9.384 0 01-1.031.698 1.897 1.897 0 00-.665 2.527 1.864 1.864 0 002.527.665 22.765 22.765 0 006.352-6.385 47.083 47.083 0 003.691-6.085l.765-1.364a1.928 1.928 0 00-.665-2.527 1.863 1.863 0 00-2.527.665m25.106 25.441c-.408.446-.841.868-1.297 1.263l-1.397 1.264-.864.698-.4.3-.299.232a30.867 30.867 0 01-4.456 2.76c-.693.345-1.416.624-2.161.832l-1.231.299h-.366c.2 0 .2 0 0 0h-.665a1.861 1.861 0 000 3.691 19.116 19.116 0 0010.608-4.356 38.732 38.732 0 005.188-4.423c1.63-1.729-.964-4.323-2.627-2.627m9.676 21.217a47.565 47.565 0 01-3.725 1.064l-1.696.366h-1.397c-.199 0 .266 0 0 0a18.513 18.513 0 01-3.824 0 1.863 1.863 0 00-1.862 1.829 1.962 1.962 0 001.862 1.862 26.973 26.973 0 007.815-.831 32.294 32.294 0 003.891-1.131 1.861 1.861 0 001.263-2.261 1.822 1.822 0 00-1.548-1.321 1.825 1.825 0 00-.713.057m-.065 12.802l-1.197.233-1.33.233c.232 0 .299 0 0 0h-1.231c-1.184.1-2.374.1-3.558 0h-1.264l-.731-.2h-.333c-.499 0 .2 0 0 0a1.898 1.898 0 00-2.527.665 1.86 1.86 0 00.665 2.528 15.11 15.11 0 007.781.898 39.983 39.983 0 004.856-.732 1.83 1.83 0 001.321-1.549 1.86 1.86 0 00-2.319-2.009M39.862 143.528c1.23.299 2.395.798 3.592 1.131 2.37.635 4.8 1.025 7.25 1.164a1.863 1.863 0 001.862-1.829 1.93 1.93 0 00-1.863-1.863h-3.391a29.72 29.72 0 01-2.993-.665c-1.164-.332-2.295-.798-3.326-1.097a1.865 1.865 0 00-2.294 1.264 1.928 1.928 0 001.297 2.294"/></g><path opacity=".38" d="M293.993 144.028c-2.56-30.761-10.907-54.471-42.3-80.742a102.29 102.29 0 00-65.046-22.68 122.279 122.279 0 0158.928 26.604c31.392 26.271 39.739 49.882 42.299 80.742a6.116 6.116 0 01-2.061 4.855c5.487-2.394 8.446-5.287 8.18-8.679" fill="#872446"/><path d="M147.173 165.543c-56.533 0-108.31-2.461-112.8-2.693h-.897l-8.148-19.055c-.665-3.026-15.796-73.892 3.326-101.127 19.121-27.236 51.112-31.659 74.058-26.271A145.05 145.05 0 01132.641 28.9c12.836 6.452 24.941 12.57 33.254 11.207 11.972-2.029 53.64-6.418 86.928 21.45 32.224 26.969 40.271 51.278 42.832 81.772a7.395 7.395 0 01-2.361 5.853c-12.737 13.302-82.172 16.361-145.921 16.361h-.2zm-111.536-5.586c16.062.731 233.215 10.308 255.562-12.803a4.424 4.424 0 001.496-3.592c-2.461-29.73-10.309-53.44-41.768-79.811-32.323-27.07-72.894-22.78-84.533-20.817-9.178 1.53-21.715-4.789-34.984-11.473a142.454 142.454 0 00-29.164-12.238c-22.047-5.188-52.243-1.33-70.865 25.04-18.124 25.64-3.758 95.109-2.993 98.667l7.25 17.027z" fill="#2A1F2E"/><path d="M47.375 241.631s17.093 95.74 115.094 94.808c98.001-.931 125.869-90.352 125.869-90.352l-101.693-24.043-139.27 19.587z" fill="#B63847"/><path opacity=".23" d="M273.307 243.392c2.228 6.85 2.062 12.37-1.031 15.064a10.207 10.207 0 01-9.71.997c5.42 10.609 6.65 19.654 2.427 23.279-3.325 2.993-9.71 1.928-17.093-2.095.998 5.021.399 9.012-2.062 11.173-2.46 2.162-7.848 2.128-13.8-.499 3.857 9.112 4.888 15.929 2.161 17.758-2.727 1.829-7.149-.831-12.969-6.052 1.097 11.207-.931 19.587-6.052 21.482-4.323 1.597-9.977-1.762-15.597-8.413-.598 5.919-2.128 9.71-4.489 10.176-3.325.698-7.715-5.288-11.672-15.031-1.065 9.976-3.326 16.627-6.651 16.893-3.326.266-7.25-6.651-9.977-17.226-2.826 11.041-6.651 18.157-10.209 17.858-3.558-.299-5.753-6.884-6.651-16.927-3.957 9.777-8.28 15.763-11.639 15.065-2.394-.499-3.924-4.257-4.522-10.176-5.587 6.651-11.274 9.976-15.597 8.38-5.121-1.896-7.116-10.242-6.052-21.449-5.786 5.221-10.575 7.648-12.97 6.052-2.394-1.596-1.695-8.646 2.162-17.758-5.92 2.627-10.874 2.993-13.767.466-2.894-2.528-3.093-6.119-2.095-11.174-7.383 4.057-13.668 5.088-17.093 2.129-4.257-3.692-2.96-12.737 2.46-23.279a10.341 10.341 0 01-9.743-.997c-3.592-3.126-3.325-9.977.233-18.49l-13.535 1.896s17.093 95.74 115.094 94.808c98.002-.931 125.869-90.386 125.869-90.386l-15.43-3.524z" fill="#872446"/><path opacity=".58" d="M53.693 243.393c6.651-2.894 11.473-3.625 13.302-1.563 1.83 2.061.4 5.553-2.727 10.508 7.35-5.953 13.867-8.38 18.058-5.953 4.19 2.428 5.42 9.611 3.757 19.355 9.312-15.996 18.091-25.806 22.347-23.91 4.822 2.161 2.328 18.855-5.387 40.238 11.14-12.537 21.882-18.989 27.901-15.53 4.788 2.793 5.586 11.34 3.059 22.779 5.254-3.591 10.376-4.922 14.832-3.325 4.456 1.596 8.047 6.351 9.976 13.102 4.689-16.328 10.276-26.87 14.632-26.171 3.326.532 5.321 7.615 5.82 18.589 3.99-13.302 9.51-21.582 15.596-21.582 5.021 0 9.644 5.587 13.302 14.998a10.756 10.756 0 012.96-1.497 12.864 12.864 0 017.515 0c-2.993-13.302-2.261-22.713 2.926-25.672 5.188-2.96 13.302.997 23.046 9.71-2.029-9.245-1.297-16.162 2.76-18.822 4.057-2.661 11.041-.532 18.988 5.321-6.883-10.542-11.306-19.587-12.304-25.241l-41.435-9.777-156.795 22.048-1.962 2.428" fill="#872446"/><path d="M99.45 245.122s18.888 8.148 25.14 9.977c6.252 1.829 20.252 1.463 27.668 2.893a142.233 142.233 0 0031.924 0c8.646-.964 30.162-1.962 38.642-6.052 8.48-4.091 16.395-17.991 16.395-17.991l-155.466-3.725s8.913 12.005 15.697 14.898z" fill="#4B2435"/><path d="M166.028 260.486a78.688 78.688 0 01-14.034-.964 114.51 114.51 0 00-12.403-1.131 79.05 79.05 0 01-15.431-1.762c-6.251-1.929-24.475-9.81-25.273-10.176-7.117-2.993-15.962-14.865-16.328-15.364l-1.796-2.427 160.952 3.99-1.197 2.129c-.332.598-8.28 14.399-17.059 18.589-6.984 3.325-22.348 4.689-32.523 5.587-2.561.199-4.856.399-6.651.598-6.088.626-12.204.936-18.324.931h.067zm-79.246-28.732c2.927 3.592 8.646 9.977 13.302 12.005.166 0 18.889 8.148 24.974 9.977a76.313 76.313 0 0014.732 1.629c4.288.146 8.563.546 12.803 1.197a142.02 142.02 0 0031.459 0l6.651-.632c9.976-.864 25.007-2.161 31.525-5.287 5.986-2.86 11.872-11.273 14.433-15.231l-149.879-3.658z" fill="#2A1F2E"/><path d="M82.093 275.051c-2.494-2.693 12.038-14.665 19.487-10.575 7.449 4.091-.499 37.977-3.325 37.245-2.827-.731.266-22.347-3.126-22.579-3.392-.233-3.825 7.681-6.651 6.019-2.827-1.663 2.161-11.54.233-12.038-1.93-.499-3.126 5.553-6.651 1.928m33.352 23.377c-1.629-3.325 3.858-11.539 14.433-8.646 10.575 2.893 6.651 15.364 5.52 18.257-1.131 2.893-3.858 7.682-4.556 5.753-.698-1.929 3.126-15.63-1.463-17.06-4.589-1.43-5.254 9.977-8.148 8.879-2.893-1.097.233-5.719-1.463-7.183-1.696-1.463-2.627 3.326-4.323 0zm83.835-19.087c-2.761.798-.765 12.57-2.162 16.627-1.397 4.057-4.888 10.841-2.827 11.772 2.062.931 3.625-11.14 7.35-10.674 3.724.465 1.862 12.37 4.522 12.27 2.661-.099 1.597-11.605 4.722-11.772 3.126-.166-1.463 10.841 1.464 10.941 2.926.1 4.323-18.656 1.197-18.423-3.126.233-11.174 3.325-11.839.2-.665-3.126 1.297-12.039-2.427-10.941m35.85-20.119c-1.064-1.297 3.326 21.117 7.749 22.081 4.422.965 6.65-4.655-7.749-22.081z" fill="#CE9DAD"/><path d="M160.274 271.891c.299 5.72.299 11.406.432 17.093 0 2.827 0 5.653.233 8.48.232 2.827.232 5.686.532 8.513a44.845 44.845 0 01-1.696-8.413c-.333-2.86-.466-5.72-.532-8.58a101.393 101.393 0 011.031-17.093m-11.341-1.595c-.765 3.825-1.729 7.549-2.594 11.274l-1.297 5.62-1.164 5.653a34.193 34.193 0 011.031-11.606 46.004 46.004 0 014.024-10.941m-15.296-3.725c-1.097 1.563-2.095 3.159-3.093 4.722-.997 1.563-1.928 3.325-2.793 4.855-.865 1.53-1.663 3.326-2.394 5.022a67.687 67.687 0 00-2.029 5.287c.058-1.928.372-3.84.931-5.686a29.928 29.928 0 019.378-14.2m-14.468 0c-1.729 3.325-3.325 6.451-5.021 9.743-.765 1.63-1.53 3.326-2.228 4.955a39.5 39.5 0 00-1.729 5.188 22.97 22.97 0 011.197-5.387 45.33 45.33 0 012.095-5.088 51.905 51.905 0 012.627-4.822 42.306 42.306 0 013.059-4.589m-10.904-7.383a94.788 94.788 0 00-7.15 6.452 30.345 30.345 0 00-5.753 7.682 15.526 15.526 0 012.128-4.423 25.75 25.75 0 013.093-3.758 33.898 33.898 0 013.658-3.326 29.441 29.441 0 014.024-2.726m-12.905-7.648a73.193 73.193 0 00-7.183 3.159c-1.163.598-2.26 1.297-3.325 1.995a24.131 24.131 0 00-2.993 2.527 12.502 12.502 0 012.66-2.959 18.838 18.838 0 013.326-2.195 20.867 20.867 0 013.658-1.563 22.565 22.565 0 013.858-.964m78.247 20.45a27.578 27.578 0 011.763 5.055c.421 1.732.743 3.486.964 5.254a26.596 26.596 0 01-.798 10.642c0-1.796 0-3.525-.233-5.255-.232-1.729-.232-3.491-.465-5.221-.333-3.325-.865-6.917-1.231-10.475m9.58 1.431a9.964 9.964 0 011.962 2.86c.505 1.06.884 2.176 1.13 3.325a12.365 12.365 0 01-.465 6.95c0-1.197-.266-2.294-.432-3.325-.167-1.031-.333-2.195-.566-3.326-.399-2.161-.997-4.256-1.629-6.484m14.632-4.856a21.755 21.755 0 001.596 2.295 36.619 36.619 0 011.597 2.361 37.868 37.868 0 012.693 4.988 30.204 30.204 0 011.829 5.387 20.32 20.32 0 01.499 5.654 66.32 66.32 0 00-1.596-5.321c-.599-1.729-1.33-3.326-2.062-5.121-.732-1.796-1.563-3.326-2.361-5.055l-1.197-2.527-.566-1.297a4.677 4.677 0 01-.432-1.364m14.264-1.895a15.833 15.833 0 013.326 2.826 19.378 19.378 0 012.793 3.559 14.499 14.499 0 012.428 8.613c-.499-1.43-.998-2.761-1.596-4.091a41.642 41.642 0 00-2.095-3.757c-1.497-2.461-3.326-4.756-5.022-7.15m14.9-2.926a19.828 19.828 0 012.661 1.829c.832.681 1.61 1.426 2.328 2.228a18.766 18.766 0 011.928 2.593c.538.937.941 1.945 1.197 2.993a24.264 24.264 0 00-3.691-5.088c-1.396-1.596-2.893-3.059-4.423-4.555zm13.733-10.841a20.56 20.56 0 013.325 1.629 23.864 23.864 0 013.093 2.062c.998.753 1.922 1.6 2.76 2.528a12.668 12.668 0 012.062 3.059 31.264 31.264 0 00-5.255-5.021c-1.928-1.497-3.957-2.86-5.985-4.257z" fill="#1A1219"/><path opacity=".42" d="M151.726 288.019a50.798 50.798 0 00-3.059 9.045 36.943 36.943 0 00-.632 17.659 1.844 1.844 0 003.558-.965 33.26 33.26 0 01.698-16.029 58.81 58.81 0 011.796-5.819l.698-1.729c.2-.532 0 .266 0-.3a1.895 1.895 0 00-.631-2.527 1.826 1.826 0 00-2.053.12 1.839 1.839 0 00-.475.545m14.334-1.562c.266 2.926.366 5.886.399 8.845a51.58 51.58 0 01-1.563 15.164c-.698 2.262 2.86 3.326 3.558.998a55.383 55.383 0 001.696-15.862c0-3.06 0-6.119-.399-9.145-.199-2.361-3.89-2.395-3.691 0zm12.905.001c.266 2.959.432 5.919.565 8.879a55.18 55.18 0 01-.499 13.501c-.498 2.328 3.027 3.325 3.559.998a56.553 56.553 0 00.632-14.233c0-3.06-.3-6.119-.566-9.145a1.926 1.926 0 00-1.862-1.863 1.86 1.86 0 00-1.829 1.863m41.9-9.012a78.542 78.542 0 012.86 5.52c.897 1.895 1.363 3.126 1.962 4.822.299.931.565 1.829.798 2.76 0 .399.199.831.266 1.23v.599a2.789 2.789 0 000 .466 1.863 1.863 0 001.829 1.862 1.898 1.898 0 001.862-1.862 37.322 37.322 0 00-3.525-11.373c-.931-1.996-1.929-3.991-3.026-5.887a1.908 1.908 0 00-2.594-.731 1.905 1.905 0 00-.732 2.594m27.602-12.205c.365.266-.433-.366 0 0l.831.699c.859.792 1.67 1.636 2.428 2.527.122.158.233.325.332.499.229.274.44.563.632.864.422.685.8 1.396 1.131 2.129 0 .199 0 .199 0 0 .012.099.012.2 0 .299.065.152.12.307.166.465.157.433.279.878.366 1.331.204.758.283 1.544.232 2.327a1.861 1.861 0 001.863 1.829 1.828 1.828 0 001.829-1.829 18.628 18.628 0 00-8.148-14.465 1.86 1.86 0 00-2.527.665 1.927 1.927 0 00.665 2.527M78.802 247.35a57.502 57.502 0 00-9.677 6.418 10.935 10.935 0 00-2.494 2.76 1.796 1.796 0 00.665 2.494 1.827 1.827 0 002.494-.632c.01-.088.01-.177 0-.266 0 0 .266-.332 0 0-.266.333 0 0 0 0l.266-.266a8.78 8.78 0 011.131-1.097l.632-.532.3-.233 1.463-1.064a49.201 49.201 0 015.487-3.326l1.163-.665a1.859 1.859 0 00.665-2.527 1.897 1.897 0 00-2.527-.665m9.509 12.736a33.582 33.582 0 00-9.611 9.976 22.12 22.12 0 00-2.527 5.654 1.862 1.862 0 003.558.997 22.286 22.286 0 016.085-9.644 37.408 37.408 0 013.326-2.859s.499-.4 0 0l.3-.2.432-.333.399-.266a1.906 1.906 0 10-1.863-3.325" fill="#872446"/><path d="M152.56 285.227c-2.195 0-1.297 27.9 1.496 32.223 2.794 4.323 1.696-9.311 2.694-16.627.998-7.316 2.128-15.497-4.19-15.43m-67.443-35.749c0-1.563-24.276 3.857-21.216 9.344 1.53 2.827 2.926-3.325 10.608-5.354 7.682-2.028 10.808-1.031 10.608-3.99zm150.313 37.81c1.131-.166-4.19-17.725-8.081-15.164-1.995 1.33 2.527 1.995 4.556 7.548 2.028 5.554 1.363 7.915 3.525 7.616z" fill="#CE9DAD"/><path d="M160.943 338.435c-50.348 0-78.913-25.873-94.044-47.688a137.672 137.672 0 01-21.017-48.352l-.266-1.496 141.033-19.953h.266l103.255 24.409-.465 1.496a144.697 144.697 0 01-26.604 45.36c-17.725 20.717-49.616 45.558-100.795 46.057h-1.463l.1.167zM49.108 243.393a136.502 136.502 0 0020.285 45.758c21.615 31.126 52.875 46.557 93.113 46.324 49.882-.499 81.174-24.708 98.533-44.927a146.584 146.584 0 0025.473-42.899l-99.764-23.577-137.64 19.321z" fill="#2A1F2E"/><path d="M22.702 144.831c-3.525 2.062-5.122 9.112-4.79 18.39.334 9.278-2.892 15.397-2.26 19.554.631 4.157.964 14.1 1.296 25.307.333 11.206.233 25.938 2.195 31.724 1.962 5.787 2.295 14.1 4.855 15.364 2.561 1.264 25.64 1.297 39.407 0 13.768-1.297 81.374-1.596 91.949-2.228 10.575-.632 65.678-.632 78.182.333 12.503.964 55.102 6.651 64.414-.666 9.311-7.316 12.803-34.285 11.539-43.896-1.264-9.61 1.264-34.584-1.629-43.896-2.894-9.311-5.421-22.413-12.803-23.278a372.14 372.14 0 00-42.3 0c-11.54.632-48.386 2.062-58.961 2.062-10.575 0-61.82 0-70.167-.665-8.347-.665-57.33 1.796-68.87 2.128-11.54.333-18.59-.964-23.71-.964-5.122 0-4.49-1.397-8.347.831" fill="#D8E0D1"/><path d="M309.589 198.234c-1.364 11.34-4.989 24.841-11.174 29.73-9.278 7.382-51.91 1.596-64.381.631-12.47-.964-67.606-.931-78.181-.299-10.575.632-78.182.965-91.983 2.228-13.8 1.264-36.846 1.297-39.406 0-2.56-1.297-2.86-9.61-4.822-15.363-1.962-5.753-1.896-20.518-2.228-31.725 0-2.893 0-5.687-.233-8.314a24.545 24.545 0 00-1.03 7.981c.631 4.157.963 14.1 1.263 25.307.3 11.207.233 25.972 2.228 31.725s2.261 14.1 4.822 15.397c2.56 1.297 25.64 1.263 39.407 0 13.767-1.264 81.407-1.597 91.982-2.262 10.575-.665 65.677-.632 78.181.333 12.504.964 55.103 6.651 64.381-.632 9.278-7.283 12.836-34.285 11.539-43.896a84.928 84.928 0 01-.365-10.841m.001-24.642c0 3.325 0 6.65.2 9.045 0-3.326 0-6.252-.2-9.045z" fill="#BDCBB5"/><path d="M44.248 257.76c-11.306-2.794-13.102-19.953-14.498-58.229-1.297-36.181 4.955-56.865 5.021-57.065l1.43.432c0 .2-6.252 20.651-4.955 56.533 1.297 36.58 3.06 54.338 13.302 56.866l-.3 1.463z" fill="#484152"/><path d="M47.675 257.394c-14-3.093-14.266-20.286-14.698-46.291 0-4.622-.167-9.377-.333-14.432-1.03-33.986 5.221-54.405 5.288-54.604l1.396.465c0 .2-6.252 20.385-5.188 54.072 0 5.088.233 9.977.3 14.466.432 25.34.698 42.067 13.534 44.894l-.299 1.43zm17.924.032c-2.029-3.325-3.326-14.732-5.786-55.568-2.461-39.108 3.325-58.562 3.325-58.761l1.397.432c0 .2-5.853 19.454-3.326 58.229 2.494 39.606 3.725 51.91 5.587 54.903l-1.197.765z" fill="#484152"/><path d="M53.694 144.083l-1.171.878 8.354 11.151 1.171-.877-8.354-11.152zm-5.724.099l-1.218.811 13.28 19.963 1.218-.81-13.28-19.964zm-5.078.843l-1.24.777 18.025 28.812 1.24-.776-18.025-28.813zm-4.387 3.376l-1.244.776 23.177 37.17 1.244-.775-23.177-37.171zm21.145 47.97L34.94 157.43l1.23-.798 24.742 38.941-1.264.798zm-23.84-28.992l-1.238.78 25.067 39.744 1.237-.78-25.066-39.744zm-1.35 11.147l-1.234.786 28.085 44.169 1.234-.785-28.085-44.17zm-.583 10.698l-1.226.798 28.7 44.091 1.225-.798-28.699-44.091zm.53 15.012l-1.191.85 30.144 42.261 1.191-.85-30.144-42.261zm-.008 10.819l-1.193.848 21.955 30.905 1.193-.847-21.955-30.906zm27.043 41.739c-10.841-11.473-27.203-28.765-28.034-29.463l.765-1.264s.598.299 28.333 29.729l-1.064.998zm-25.218-17.428l-1.213.82 11.47 16.972 1.212-.819-11.47-16.973z" fill="#484152"/><path d="M44.414 144.83l-8.428 6.332.879 1.17L45.293 146l-.88-1.17zm10.006-1.718l-18.755 14.066.878 1.171 18.755-14.067-.878-1.17zm-20.114 26.29l-.898-1.164 30.129-23.411.898 1.164-30.13 23.411zm0 8.88l-.931-1.131 27.867-23.311.965 1.13-27.901 23.312zm25.896-14.345l-26.844 24.01.975 1.09 26.844-24.009-.975-1.091zm-.852 13.172l-25.969 21.142.924 1.135 25.97-21.142-.924-1.135zm.011 10.588L33.94 206.058l.856 1.186 25.422-18.361-.857-1.186zM35.27 217.589l-.931-1.131 25.007-20.085.898 1.13-24.974 20.086zm24.08-10.439l-25.005 20.693.933 1.127 25.005-20.693-.933-1.127zm1.945 8.686l-26.94 22.215.932 1.129 26.939-22.215-.931-1.129zm-.101 7.916l-23.98 23.23 1.018 1.051 23.98-23.23-1.018-1.051zm-.017 8.732l-19.648 21.01 1.07.999 19.646-21.01-1.068-.999zM64.371 239l-12.89 17.697 1.185.864 12.89-17.698-1.185-.863z" fill="#484152"/><path d="M45.714 144.794s10.243-.798 10.176-.565c-.066.233-1.13 3.924-3.126 3.325-1.995-.598-2.427-1.363-2.427-1.363a2.227 2.227 0 01-2.062 1.397 6.3 6.3 0 00-1.929 0 7.788 7.788 0 003.924.931 88.447 88.447 0 004.323-.499l-.565 7.549h-4.49l3.326-3.858h-2.56l.532 1.829-3.326-.233.931-1.43h-2.56l2.028 3.758-4.722-.632s.499-3.325.964-5.819c.31-1.536.825-3.024 1.53-4.423" fill="#DEDEDF"/><path d="M49.339 156.6h-1.397l-5.553-.765v-.732s.498-3.325.964-5.886c.34-1.59.876-3.131 1.596-4.589l.2-.366h.399c10.408-.798 10.508-.665 10.808-.299l.232.332v.366a9.001 9.001 0 01-1.43 2.893h.233l-.665 9.112H49.24l.1-.066zm-1.297-2.461l.698 1.363 1.064-1.23-1.762-.133zm3.093.798h2.228l.2-2.793-1.83 2.128v.166h-.2l-.398.499zm-7.084-.532l2.66.366-1.928-3.592h8.912v-2.128l-3.325.366a9.09 9.09 0 01-4.357-.998l-.731-.432c0 .432-.233.898-.333 1.396a126.774 126.774 0 00-.864 5.055l-.034-.033zm4.922-1.63h.865l-.266-.964-.599.964zm1.53-5.254a2.84 2.84 0 01-.466.432h1.031a2.296 2.296 0 01-.565-.332v-.1zm-4.29-1.895a15.003 15.003 0 00-.665 1.696l.632-.167a6.68 6.68 0 012.194 0c.865 0 1.297-.931 1.33-.964l.367-.798-3.858.266v-.033zm4.855.565s.366.565 1.896.931c.731.2 1.43-.831 1.895-2.028l-4.19.266.4.831z" fill="#484152"/><path d="M43.187 155.003a6.651 6.651 0 004.822 2.727 6.65 6.65 0 004.722-1.363h.865l-.3 6.95s-.498 6.651-5.686 6.651a5.885 5.885 0 01-5.62-5.587l1.197-9.378z" fill="#DEDEDF"/><path d="M47.71 170.832a6.449 6.449 0 01-6.318-6.285l1.43-11.506 1.097 1.596a6.15 6.15 0 004.256 2.395 6.322 6.322 0 004.19-1.164l.2-.2h1.929l-.333 7.715c-.2 2.594-1.762 7.416-6.352 7.416l-.1.033zm-4.855-6.351a5.119 5.119 0 004.888 4.855c4.39 0 4.855-5.786 4.855-6.052l.3-6.053a8.144 8.144 0 01-4.889 1.231 6.818 6.818 0 01-4.223-1.796l-.931 7.815z" fill="#484152"/><path d="M51.4 161.821h-6.65v1.463h6.65v-1.463z" fill="#484152"/><path d="M43.187 170.666s.566 3.758 3.924 3.691a6.859 6.859 0 002.977-.951 6.86 6.86 0 002.244-2.175l.3 12.903s-.699 6.085-5.52 5.454c-4.823-.632-5.52-6.352-5.52-6.352a74.182 74.182 0 010-7.516 12.265 12.265 0 011.595-5.054" fill="#DEDEDF"/><path d="M47.843 190.353h-.799a7.82 7.82 0 01-6.152-6.984 68.96 68.96 0 010-7.681 13.304 13.304 0 011.696-5.388l1.065-1.662.299 1.962s.532 3.159 3.325 3.059a6.185 6.185 0 004.59-2.76l1.296-2.162.4 15.397a8.682 8.682 0 01-2.661 5.288 4.758 4.758 0 01-2.926.964l-.133-.033zm-4.656-17.758a11.232 11.232 0 00-.765 3.325 72.68 72.68 0 000 7.416c0 .166.732 5.088 4.889 5.653a3.335 3.335 0 002.527-.731 6.652 6.652 0 002.062-4.157l-.266-10.874a6.652 6.652 0 01-4.49 1.929 4.328 4.328 0 01-4.057-2.495" fill="#484152"/><path d="M43.952 180.144h6.95s-1.663 2.627-3.325 2.46c-1.663-.166-3.326-2.46-3.326-2.46" fill="#DEDEDF"/><path d="M47.576 183.337h-.2a6.65 6.65 0 01-4.023-2.761l-.599-.831.965-.299a55.339 55.339 0 017.216 0h1.33l-.731 1.097c-.2.299-1.863 2.794-3.958 2.794zm-1.995-2.494c.52.518 1.178.876 1.895 1.03a2.698 2.698 0 001.895-.997h-3.79" fill="#484152"/><path d="M47.443 190.785c-2.129 0-5.953 2.327-5.92 8.879.033 6.551 3.126 7.681 5.92 7.848 2.793.166 5.886-1.863 5.553-8.912-.333-7.05-2.66-7.815-5.553-7.815z" fill="#DEDEDF"/><path d="M47.707 208.211h-.333c-4.423-.233-6.65-3.06-6.65-8.58a10.61 10.61 0 012.693-7.782 5.89 5.89 0 013.957-1.829c3.658 0 5.986 1.397 6.319 8.513a10.578 10.578 0 01-2.262 8.181 5.25 5.25 0 01-3.758 1.53l.034-.033zm-.333-16.595a4.327 4.327 0 00-2.893 1.43 8.852 8.852 0 00-2.261 6.651c0 6.019 2.66 6.984 5.22 7.117a3.833 3.833 0 002.96-1.098 9.406 9.406 0 001.83-7.05c-.333-7.116-2.727-7.116-4.856-7.116" fill="#484152"/><path d="M50.9 198.833c0 .532-1.563.998-3.325.998-1.763 0-3.326-.466-3.326-.998s1.563-.998 3.326-.998c1.762 0 3.325.433 3.325.998z" fill="#DEDEDF"/><path d="M47.408 200.561c-.699 0-4.19 0-4.19-1.729s3.325-1.729 4.19-1.729c.864 0 4.223 0 4.223 1.729s-3.492 1.729-4.223 1.729zm-2.262-1.729c.74.186 1.5.275 2.262.266a8.961 8.961 0 002.294-.266 9.005 9.005 0 00-2.294-.266 8.928 8.928 0 00-2.262.266z" fill="#484152"/><path d="M43.186 207.279a4.622 4.622 0 004.556 2.794 8.114 8.114 0 005.254-2.794v11.373s-2.694-3.325-5.587-3.325-2.46 1.197-2.46 1.197l4.322 4.157h-3.99a3.597 3.597 0 003.325 2.561 7.289 7.289 0 004.988-1.929v9.311a13.566 13.566 0 00-5.187-1.862l-2.66-.233 5.187 4.656-3.625.432 8.68 2.993v4.256l-8.514 2.727a13.72 13.72 0 004.257.399 27.068 27.068 0 004.257-1.031l1.297 8.148a9.979 9.979 0 01-3.326 0 7.878 7.878 0 01-1.829-1.197s-1.463 1.33-1.962 1.363c-.499.033 7.017.965 7.017.965l.798 1.995h-1.363l-1.297-.3-6.651.865s-3.326-1.363-5.122-10.808a140.59 140.59 0 01-1.064-24.907 96.91 96.91 0 01.566-11.772" fill="#DEDEDF"/><path d="M48.74 255.531h-.2c-.366-.166-3.791-1.795-5.554-11.373a98.093 98.093 0 01-1.097-19.952v-5.155a92.552 92.552 0 01.565-11.805v-.233l2.228-6.651-.765 6.884a4.025 4.025 0 003.758 2.095 7.084 7.084 0 004.689-2.528l1.33-1.629v14.898l.532-.499v12.338l-1.13-.732a12.837 12.837 0 00-4.856-1.696h-.465l4.788 4.257-2.095.232 6.152 2.162v5.321l-5.952 1.928h.865a30.098 30.098 0 004.123-.997l.831-.299 1.53 9.776h-.233l1.264 3.326h-2.56l-1.131-.299-6.618.631zm-4.989-46.19a90.424 90.424 0 00-.366 9.677v5.254a99.532 99.532 0 001.031 19.554c1.43 7.682 3.924 9.777 4.556 10.176l6.451-.865 1.53.333-.233-.566c-3.691-.499-5.52-.731-6.418-.931-.798-.199-.798-.366-.765-.731v-.699h.699a8.717 8.717 0 001.496-1.164l.466-.432.498.399c.5.427 1.047.795 1.63 1.097a6.632 6.632 0 002.095 0l-1.03-6.65a26.079 26.079 0 01-3.56.798 13.54 13.54 0 01-4.555-.433l-2.46-.632 10.441-3.325v-3.325l-11.24-3.891 5.221-.599-5.653-5.054 4.888.432a13.31 13.31 0 014.39 1.33v-6.651a7.082 7.082 0 01-4.323 1.164 4.29 4.29 0 01-3.924-3.126l-.233-.898h3.126l-3.326-3.126a1.296 1.296 0 010-1.197c.433-.665 1.397-.998 2.993-1.031a7.551 7.551 0 014.855 2.228v-7.781a7.852 7.852 0 01-4.456 1.795 5.474 5.474 0 01-4.057-1.463l.233.333zm2.76 12.171a2.853 2.853 0 002.128 1.097 6.416 6.416 0 004.39-1.729l.4-.366-.999-1.263s-2.494-3.326-4.988-3.093a4.22 4.22 0 00-1.596.266l5.288 5.088H46.51z" fill="#484152"/><path d="M70.056 199.963h-1.463v-31.792l1.43 3.326a21.522 21.522 0 004.223 6.784c1.63 1.13 6.651.798 10.775 0 3.059-.699 4.589-5.687 4.589-5.754l1.03-3.491.4 3.624a26.589 26.589 0 001.396 5.986 18.219 18.219 0 002.56 3.525l.234.2v11.971h-.798c-5.687-.332-17.26-.665-20.186.433a7.517 7.517 0 00-4.19 5.287v-.099zm0-24.875v21.25a7.913 7.913 0 013.658-2.96c3.325-1.297 16.627-.732 19.953-.565v-9.977a16.614 16.614 0 01-2.627-3.658 17.009 17.009 0 01-1.131-3.857 7.713 7.713 0 01-4.622 4.256c-3.326.732-9.511 1.563-11.972 0a14.257 14.257 0 01-3.325-4.522" fill="#6F8D90"/><path d="M82.26 233.65a12.541 12.541 0 01-4.955-.898 11.013 11.013 0 01-6.252-6.651c-2.428-6.651-3.725-18.689.93-25.606a11.646 11.646 0 019.976-5.188 13.503 13.503 0 0113.303 12.171c1.264 9.977 2.062 21.15-4.589 24.276a20.12 20.12 0 01-8.38 1.962l-.034-.066zm-.3-36.88a10.249 10.249 0 00-8.845 4.49c-4.29 6.418-2.993 18.257-.765 24.242a9.715 9.715 0 005.52 5.986 15.691 15.691 0 0012.138-1.031c6.252-2.926 4.622-15.829 3.758-22.746a11.938 11.938 0 00-11.839-10.907m2.296 57.331a14.032 14.032 0 01-11.04-3.658 9.974 9.974 0 01-1.597-9.976c1.164-2.395 4.224-5.288 12.338-5.387 3.325 0 11.938.931 13.302 5.985a11.974 11.974 0 010 9.046 7.052 7.052 0 01-4.69 2.993 39.744 39.744 0 01-8.28.897l-.033.1zm-.266-17.558c-5.786 0-9.61 1.662-11.007 4.556a8.478 8.478 0 001.396 8.313c2.894 3.625 11.274 3.692 17.858 2.228a5.385 5.385 0 003.758-2.294 10.776 10.776 0 000-7.882c-.931-3.325-7.516-4.988-11.872-4.921" fill="#6F8D90"/><path d="M82.462 218.586c-3.858 0-10.409-.665-10.409-3.126s6.65-3.325 10.409-3.325c3.757 0 10.442.665 10.442 3.325 0 2.661-6.651 3.126-10.442 3.126zm0-4.822c-5.42 0-8.713 1.131-8.946 1.73a16.1 16.1 0 008.946 1.629c3.08.335 6.19-.243 8.945-1.663a15.369 15.369 0 00-8.945-1.696m2.028 33.852c-2.46 0-10.441 0-10.441-2.427 0-2.428 7.98-2.428 10.442-2.428 2.46 0 10.442.166 10.442 2.428 0 2.261-8.015 2.427-10.442 2.427zm-8.612-2.427a38.939 38.939 0 0017.226 0 38.939 38.939 0 00-17.226 0m39.336-90.485a4.558 4.558 0 01-1.928-.432 13.114 13.114 0 01-3.592-3.725h-2.793v3.326h-1.497v-4.889h4.955l.2.333a12.112 12.112 0 003.325 3.558 3.32 3.32 0 002.827 0 1.188 1.188 0 00.665-.931.838.838 0 00-.299-.699 2.53 2.53 0 00-1.464-.631.722.722 0 00.3 0l-1.031-1.065c.532-.532 1.663 0 2.095 0a2.528 2.528 0 01.465 4.723 4.918 4.918 0 01-2.294.598m3.161 8.579l-.432-.2.332-.665-.665-.299a4.357 4.357 0 00-.565-2.793 3.657 3.657 0 00-2.76-1.397h-1.962a5.09 5.09 0 01.598 2.261 3.327 3.327 0 01-3.325 3.06c-1.23 0-4.489 0-4.589-3.326 0-1.43.865-3.325 5.487-3.325a28.148 28.148 0 014.024 0 4.819 4.819 0 014.489 3.325c.299.998.432 2.76 0 3.326l-.632.033zm-7.349-5.454h-.565c-1.896 0-4.157.499-4.124 1.929.033 1.43 1.164 1.896 3.093 1.896a1.767 1.767 0 001.962-1.597 3.52 3.52 0 00-.699-1.995l.333-.233zm.962 16.429c-4.057 0-7.116-1.563-7.116-3.658 0-2.095 3.059-3.658 7.116-3.658 4.057 0 7.15 1.563 7.15 3.658 0 2.095-3.059 3.658-7.15 3.658zm0-5.853c-3.325 0-5.653 1.264-5.653 2.195 0 .931 2.162 2.194 5.653 2.194 3.492 0 5.654-1.296 5.654-2.194 0-.898-2.129-2.195-5.654-2.195zm.599 31.991c-3.991 0-7.117-1.896-7.117-4.324 0-2.427 3.126-4.356 7.117-4.356 3.99 0 7.15 1.896 7.15 4.356 0 2.461-3.126 4.324-7.15 4.324zm0-7.217c-3.326 0-5.653 1.53-5.653 2.893 0 1.364 2.327 2.86 5.653 2.86 3.325 0 5.653-1.529 5.653-2.86 0-1.33-2.328-2.893-5.653-2.893zm2.893-5.618a4.495 4.495 0 01-2.361-.666 8.365 8.365 0 01-1.995-2.793c-.665-1.23-1.596-2.926-2.395-3.093l-2.394-.498v6.318h-1.463v-8.081l.865.166 3.325.632c1.463.299 2.461 2.128 3.325 3.858.383.832.9 1.596 1.53 2.261a2.828 2.828 0 002.594 0 2.296 2.296 0 001.131-2.062 3.33 3.33 0 00-2.76-3.325l.266-1.463a4.689 4.689 0 013.957 4.921 3.595 3.595 0 01-1.929 3.326 3.897 3.897 0 01-1.729.399m-9.643 29.829l-.399-1.43 10.674-2.96-6.651-1.63c-3.624-.897-4.323-.997-4.422-1.03v-.599l-.266-.831c.266 0 .299 0 4.955 1.03 4.123.965 9.477 2.295 9.477 2.295l2.727.698-16.095 4.457z" fill="#6F8D90"/><path d="M109.796 210.938h-1.463v4.156h1.463v-4.156z" fill="#6F8D90"/><path d="M200.848 175.554c0 9.411-16.228 17.06-36.281 17.06-20.052 0-36.281-7.649-36.281-17.06 0-9.411 16.262-17.226 36.281-17.226s36.281 7.649 36.281 17.093" fill="#DEDEDF"/><path d="M164.565 193.345c-20.418 0-37.013-7.981-37.013-17.791s16.628-17.825 37.013-17.825c20.385 0 37.045 7.982 37.045 17.825s-16.627 17.791-37.045 17.791zm0-34.152c-19.587 0-35.549 7.349-35.549 16.361s15.962 16.328 35.549 16.328 35.549-7.316 35.549-16.328-15.929-16.361-35.549-16.361z" fill="#484152"/><path d="M200.848 174.225c0 3.957-16.228 7.183-36.281 7.183-20.052 0-36.281-3.326-36.281-7.183 0-3.858 16.262-7.183 36.281-7.183s36.281 3.325 36.281 7.183z" fill="#DEDEDF"/><path d="M164.565 182.14c-17.924 0-37.013-2.794-37.013-7.948 0-5.155 19.089-7.915 37.013-7.915s37.045 2.794 37.045 7.915-19.088 7.948-37.045 7.948zm0-14.366c-22.015 0-35.549 3.757-35.549 6.418 0 2.66 13.534 6.451 35.549 6.451 22.014 0 35.549-3.758 35.549-6.451 0-2.694-13.501-6.418-35.549-6.418z" fill="#484152"/><path d="M163.901 171.996a31.56 31.56 0 01-31.991-31.027h1.496a30.494 30.494 0 0060.989 0h1.496a31.56 31.56 0 01-31.99 31.027" fill="#6F8D90"/><path d="M163.899 163.218c-13.833 0-25.107-9.644-25.107-21.516h1.463c0 11.074 10.609 19.953 23.644 19.953 13.036 0 23.644-8.979 23.644-19.953h1.464c0 11.872-11.274 21.516-25.108 21.516z" fill="#6F8D90"/><path d="M163.9 160.589c-11.871 0-21.515-8.28-21.515-18.456h1.463c0 9.345 9.012 16.96 19.953 16.96 10.94 0 19.952-7.615 19.952-16.96h1.497c0 10.176-9.644 18.456-21.516 18.456" fill="#6F8D90"/><path d="M274.803 260.354l-.499-1.397s3.658-1.463 7.716-11.772c4.057-10.309 7.515-40.138 5.886-71.597-1.53-30.162-11.241-33.754-11.34-33.787l.465-1.396c.433 0 10.742 3.691 12.371 35.116 1.663 32.856-1.829 61.721-5.986 72.229-4.423 11.107-8.446 12.537-8.613 12.604" fill="#484152"/><path d="M272.644 258.923l-1.164-.931a64.517 64.517 0 0011.041-23.811 278.728 278.728 0 002.859-63.383c-1.862-20.651-12.337-29.031-12.437-29.098l.898-1.164c.432.333 11.074 8.813 13.003 30.129 1.47 21.302.5 42.701-2.894 63.782a66.507 66.507 0 01-11.306 24.476m-21.05-1.397l-1.197-.864a70.054 70.054 0 009.478-26.903 211.028 211.028 0 002.726-55.502c-1.529-25.074-10.974-31.426-11.073-31.492l.798-1.231c.399.266 10.176 6.818 11.739 32.623a210.694 210.694 0 01-2.727 55.835 70.109 70.109 0 01-9.744 27.534m16.572-116.823l-7.08 11.535 1.247.765 7.08-11.535-1.247-.765z" fill="#484152"/><path d="M263.032 162.086l-1.297-.699 11.24-20.651 1.297.732-11.24 20.618zm.331 10.01l-1.33-.665 15.264-29.763 1.33.665-15.264 29.763zm16.105-23.239l-16.153 31.592 1.303.667 16.153-31.593-1.303-.666zm2.753 6.331l-18.896 36.314 1.298.675 18.896-36.314-1.298-.675zm1.047 9.634l-20.197 39.198 1.301.67 20.197-39.198-1.301-.67zm2.36 9.208l-23.9 45.932 1.298.675 23.9-45.931-1.298-.676zm-.705 13.331l-24.254 45.595 1.292.687 24.254-45.595-1.292-.687zm-29.937 66.075l-1.264-.764 31.958-51.911 1.264.765-31.958 51.91zm30.404-41.007l-27.859 46.11 1.252.756 27.859-46.109-1.252-.757zm-19.397 48.523l-1.264-.732c19.52-34.418 19.953-34.651 19.953-34.784l.765 1.264-.399-.632.565.499c-.698.898-12.171 21.05-19.753 34.385" fill="#484152"/><path d="M268.471 141.418l-.982 1.085 14.891 13.479.982-1.085-14.891-13.479zm-10.164-1.605l-1.007 1.062 27.296 25.875 1.006-1.062-27.295-25.875zm-3.452 3.789l-1.045 1.024 31.957 32.611 1.045-1.025-31.957-32.61zm8.048 17.595l-1.08.987 24.398 26.673 1.08-.988-24.398-26.672zm.726 13.697l-1.032 1.038 23.655 23.515 1.032-1.038-23.655-23.515zm21.917 32.219l-21.383-18.855.998-1.098 21.383 18.856-.998 1.097zm-1.797 9.444l-19.886-19.521 1.03-1.03 19.887 19.52-1.031 1.031zm-20.159-10.608l-1.04 1.029 21.165 21.396 1.04-1.029-21.165-21.396zm-.38 10.164l-1.039 1.031 20.192 20.347 1.039-1.03-20.192-20.348zm-1.182 7.039l-1.115.947 18.577 21.874 1.115-.947-18.577-21.874zm.023 8.891l-1.162.889 14.816 19.356 1.162-.889-14.816-19.356zm9.296 26.814l-12.903-21.15 1.264-.765 12.902 21.117-1.263.798zm-14.501-13.819l-1.257.749 10.109 16.971 1.257-.749-10.109-16.971z" fill="#484152"/><path d="M272.643 143.198a12.49 12.49 0 003.325 3.325c1.596.798 3.691 1.596 3.691 1.596l3.525 10.908-9.477-.599s-4.157-.199-5.121 2.029a22.52 22.52 0 00-1.264 5.62h-1.629a86.474 86.474 0 00-2.395-11.473 110.076 110.076 0 00-4.323-11.439h1.929s1.762 3.325 3.325 3.525c2.292.535 4.669.592 6.984.166 1.363-.798 1.529-3.691 1.529-3.691" fill="#DEDEDF"/><path d="M267.357 166.841h-2.261v-.631a91.225 91.225 0 00-2.428-11.207 109.516 109.516 0 00-4.289-11.373l-.466-1.031h3.492l.233.399c.764 1.43 1.995 3.059 2.627 3.126h.997c1.823.361 3.698.361 5.521 0 .764-.466 1.097-2.295 1.163-3.093v-2.161l1.231 1.762a10.964 10.964 0 003.093 3.126c1.529.798 3.591 1.563 3.624 1.596h.333l3.957 12.304-10.542-.698c-.997 0-3.791 0-4.389 1.596a20.728 20.728 0 00-1.231 5.388v.665l-.665.232zm-.964-1.463h.299a21.443 21.443 0 011.264-5.187c1.131-2.661 5.653-2.461 5.853-2.461l8.38.532-3.093-9.544c-.665-.266-2.161-.865-3.325-1.497a9.27 9.27 0 01-2.594-2.261 3.998 3.998 0 01-1.596 2.561 12.453 12.453 0 01-6.651 0h-.931c-1.497 0-2.96-2.495-3.559-3.525h-.365c.864 1.995 2.693 6.65 3.924 10.508a87.24 87.24 0 012.327 10.941" fill="#484152"/><path d="M274.872 162.086c-3.093.233-9.777 2.261-9.445 21.017.333 18.755-3.325 36.014 9.445 36.846 12.769.831 12.969-22.281 12.803-31.259-.167-8.979-2.062-27.402-12.803-26.604z" fill="#DEDEDF"/><path d="M275.501 220.681h-.665c-10.874-.699-10.575-12.803-10.243-26.803v-10.775c-.299-17.326 5.321-21.383 9.977-21.748a8.68 8.68 0 016.651 2.294c6.019 5.487 6.917 19.321 7.016 25.041.266 15.131-1.928 25.007-6.65 29.43a9.015 9.015 0 01-6.385 2.561h.299zm-.865-57.863c-7.548.565-8.945 11.34-8.779 20.252v10.841c-.366 15.297 0 24.708 8.879 25.273a7.384 7.384 0 005.919-2.128c2.96-2.827 6.419-9.976 6.086-28.366 0-4.29-.765-18.689-6.651-23.943a7.173 7.173 0 00-5.487-1.929" fill="#484152"/><path d="M285.279 190.785c0 2.195-4.057 3.99-9.111 3.99-5.055 0-9.112-1.795-9.112-3.99 0-2.195 4.09-4.024 9.112-4.024 5.021 0 9.111 1.796 9.111 4.024z" fill="#DEDEDF"/><path d="M276.166 195.507c-5.62 0-9.977-2.029-9.977-4.723 0-2.693 4.224-4.755 9.977-4.755s9.976 2.029 9.976 4.755c0 2.727-4.223 4.723-9.976 4.723zm0-8.015c-4.922 0-8.38 1.73-8.38 3.326s3.325 3.325 8.38 3.325c5.055 0 8.38-1.729 8.38-3.325s-3.325-3.326-8.38-3.326z" fill="#484152"/><path d="M275.036 222.011c-4.024 0-8.48 3.525-12.67 17.159-4.19 13.634 0 15.995 0 15.995h12.67s5.121-1.429 7.216-14.898c2.095-13.468-.665-18.423-7.216-18.256z" fill="#DEDEDF"/><path d="M275.139 255.897h-12.97c-.465-.299-4.555-3.126-.332-16.893 3.658-11.905 7.881-17.525 13.302-17.658a7.616 7.616 0 016.252 2.327c2.494 2.86 3.059 8.181 1.729 16.794-2.128 13.767-7.516 15.43-7.748 15.497l-.233-.067zm-12.471-1.463h12.271c.599-.233 4.789-2.461 6.651-14.266 1.231-8.015.798-13.103-1.397-15.563a6.178 6.178 0 00-5.087-1.863c-4.656 0-8.58 5.554-11.939 16.628-3.359 11.073-1.064 14.465-.465 15.064" fill="#484152"/><path d="M279.527 243.727c0 1.629-3.857 2.959-8.58 2.959-4.722 0-8.579-1.33-8.579-2.959 0-1.63 3.857-2.96 8.579-2.96 4.723 0 8.58 1.33 8.58 2.96z" fill="#DEDEDF"/><path d="M270.945 247.417c-4.623 0-9.311-1.264-9.311-3.691 0-4.856 18.622-4.856 18.622 0 0 2.427-4.689 3.691-9.311 3.691zm0-5.919c-5.055 0-7.815 1.463-7.815 2.228 0 .764 2.76 2.228 7.815 2.228 5.055 0 7.848-1.464 7.848-2.228 0-.765-2.793-2.228-7.848-2.228z" fill="#484152"/><path d="M251.325 142.167h-9.178a29.367 29.367 0 016.651 15.131c1.929 10.575 2.66 17.791 2.66 17.791h7.882a83.183 83.183 0 00-1.763-20.185 46.078 46.078 0 00-6.252-12.737z" fill="#DEDEDF"/><path d="M260.073 175.82h-9.411v-.666s-.732-7.316-2.627-17.724a29.938 29.938 0 00-6.318-14.765l-1.264-1.231h11.306l.233.3a46.555 46.555 0 016.352 12.969 84.817 84.817 0 011.829 20.418l-.1.699zm-8.081-1.497h6.651a80.387 80.387 0 00-1.762-19.221 46.165 46.165 0 00-5.953-12.204h-7.183a34.181 34.181 0 015.653 14.266c1.597 8.679 2.361 15.164 2.594 17.159z" fill="#484152"/><path d="M250.296 143.73s-3.525-.3-3.658.798c-.133 1.097 4.922.864 4.922.864" fill="#DEDEDF"/><path d="M250.329 146.159a6.651 6.651 0 01-4.123-.832 1.03 1.03 0 01-.3-.864c0-1.563 2.86-1.597 4.457-1.464v1.464a9.897 9.897 0 00-2.295 0c1.183.11 2.375.11 3.558 0v1.496h-1.263m.465 3.257h-1.73v1.463h1.73v-1.463zm3.093 0h-1.995v1.463h1.995v-1.463z" fill="#484152"/><path d="M256.018 156.999c0 .632-1.064 1.164-2.395 1.164-1.33 0-2.394-.532-2.394-1.164 0-.632 1.064-1.197 2.394-1.197 1.331 0 2.395.532 2.395 1.197z" fill="#DEDEDF"/><path d="M253.556 158.894c-1.829 0-3.159-.798-3.159-1.928 0-1.131 1.33-1.929 3.159-1.929 1.829 0 3.126.831 3.126 1.929 0 1.097-1.33 1.928-3.126 1.928zm0-2.361a2.258 2.258 0 00-1.696.499 3.548 3.548 0 001.696.399 2.426 2.426 0 001.63-.465 2.693 2.693 0 00-1.63-.433m.066 8.148h-1.463v3.292h1.463v-3.292zm3.427 0h-1.463v3.292h1.463v-3.292zm-1.032 4.554h-1.463v4.689h1.463v-4.689z" fill="#484152"/><path d="M227.383 145.36a10.567 10.567 0 009.976 3.591 6.103 6.103 0 002.305-.882 6.112 6.112 0 002.683-6.467" fill="#DEDEDF"/><path d="M235.2 149.949a10.992 10.992 0 01-4.407-1.05 10.987 10.987 0 01-3.607-2.741l-.233-.2.433-.499v-.831c.432 0 .665.166.997.499a9.349 9.349 0 009.079 3.093 5.366 5.366 0 003.533-2.342 5.35 5.35 0 00.723-4.176l1.43-.3a6.648 6.648 0 01-5.52 8.181c-.794.196-1.609.296-2.428.299" fill="#484152"/><path d="M239.591 143.773l-8.366.492.086 1.461 8.366-.493-.086-1.46z" fill="#484152"/><path d="M234.964 150.88h-6.285s-.233 11.772 7.316 11.872c7.549.1 6.418-6.651 6.651-7.216.233-.566 2.66.332 1.796 2.627a13.308 13.308 0 01-2.694 4.223h6.052s.931-8.679-3.658-10.408c-4.589-1.73-8.114-1.264-8.613 1.03-.764 3.326-2.327 5.188-2.859 2.827a4.42 4.42 0 012.394-4.922" fill="#DEDEDF"/><path d="M236.063 163.516a6.453 6.453 0 01-4.788-2.028 17.257 17.257 0 01-3.326-10.609v-.731h10.342-.199a13.652 13.652 0 016.218 1.031c5.055 1.928 4.19 10.807 4.157 11.173v.665h-8.513l.765-.765a8.107 8.107 0 01-4.456 1.131l-.2.133zm-6.651-11.839a14.97 14.97 0 002.86 8.813 5.08 5.08 0 003.758 1.596 5.68 5.68 0 004.423-1.397 6.246 6.246 0 001.363-4.555 3.922 3.922 0 010-.632.965.965 0 01.732-.798 2.158 2.158 0 011.962.731 2.832 2.832 0 01.532 3.06 13.936 13.936 0 01-1.796 3.325h3.791c0-1.962 0-7.715-3.325-8.979a9.15 9.15 0 00-6.651-.565 1.495 1.495 0 00-.831 1.064c-.233 1.031-1.131 4.49-2.827 4.49-.499 0-1.164-.3-1.463-1.663a4.889 4.889 0 01.798-4.49h-3.326zm13.867 4.623a9.334 9.334 0 01-.532 3.525c.363-.582.675-1.194.932-1.829a1.497 1.497 0 000-1.364l-.3-.332h-.1zm-8.014-4.623a3.63 3.63 0 00-1.962 4.091 1.115 1.115 0 000 .399 7.85 7.85 0 001.264-3.326 3.32 3.32 0 01.698-1.33v.166z" fill="#484152"/><path d="M239.388 163.549h9.012l.665 16.627h-7.815l4.988-5.587s-10.808-1.263-10.774 1.796c.033 3.059 14.133 7.15 14.133 7.15v6.019s-13.834 5.886-13.635 8.713c.2 2.826 10.875 2.028 10.875 2.028s-6.452-4.157-6.319-4.323c.133-.166 9.378-.532 9.378-.532l-1.496 35.084h-7.05l2.361-3.858h-6.651l1.729 3.791h-7.216c.299-.333 1.995-3.325 1.895-29.929 0-29.131-1.928-36.58-1.928-36.58h2.926s-1.131 3.026 3.325 3.325c2.332.254 4.691.063 6.951-.565l-5.354-3.159z" fill="#DEDEDF"/><path d="M248.965 231.488h-17.89l-.4-.898.333-.366c0-.266 1.796-3.325 1.663-29.463 0-28.599-1.863-36.58-1.896-36.58l-.199-.931h4.921l-.365.997a1.625 1.625 0 000 1.331c.365.598 1.23.931 2.527 1.03 1.646.197 3.309.197 4.955 0l-6.186-3.658h12.404l.732 18.224h-5.753a72.505 72.505 0 005.72 1.929h.532v7.05l-.432.199c-7.25 3.093-13.302 6.651-13.302 7.981 0 0 0 .167.199.333 2.394 1.002 5 1.39 7.582 1.131-4.556-2.993-4.622-3.326-4.689-3.525v-.3l.2-.266c.266-.399.333-.499 9.976-.898h.798l-1.43 36.68zm-10.841-3.891c.366.832.932 1.996 1.297 2.827l.499 1.064 2.361-3.857h-4.157v-.034zm4.423 2.461h5.022l1.23-28.898h-2.062c-.864 0-8.712.565-10.94-1.363a2.033 2.033 0 01-.699-1.364c-.199-2.993 9.977-7.615 13.635-9.245v-4.955a68.427 68.427 0 01-8.713-3.325h-.632v-.2c-2.76-1.297-4.988-2.826-5.021-4.323 0-.282.06-.56.175-.818.114-.258.281-.489.49-.678 2.195-1.995 9.976-1.131 10.907-1.031h1.43l-4.655 5.72h5.42l-.632-15.297h-5.587l4.49 2.66-1.463.532c-2.366.671-4.84.874-7.283.599a4.563 4.563 0 01-3.691-1.73 2.922 2.922 0 01-.433-1.629h-1.164a255.506 255.506 0 011.763 35.948c0 15.33-.499 25.673-1.53 29.264h4.988c-.831-1.762-1.263-2.693-1.296-2.827v-.365l.232-.333c.266-.366.366-.465 7.15-.332h1.297l-2.428 3.99zm-.232-33.254c1.23.864 3.059 2.061 4.788 3.159l1.696 1.097.2-4.556-6.651.3h-.033zm-.732-21.45a9.979 9.979 0 00-5.287.932c-.167.166-.2.266-.167.399 0 .764 1.862 1.962 4.556 3.159l3.924-4.357h-3.026" fill="#484152"/><path d="M238.356 186.795a4.29 4.29 0 01-2.826-.965 2.586 2.586 0 01-.732-1.962 2.721 2.721 0 01.832-1.995 4.452 4.452 0 012.859-.931h.898v5.819h-.864l-.167.034zm-.465-4.357a2.736 2.736 0 00-1.098.499 1.268 1.268 0 00-.365.931c-.019.317.089.628.299.865.329.279.735.452 1.164.499v-2.794z" fill="#484152"/><path d="M240.618 182.271c0 .299.266 3.325.266 3.325l2.561-1.662-2.827-1.663z" fill="#DEDEDF"/><path d="M240.219 186.794v-1.197c0-.499-.233-2.993-.233-3.326v-1.263l4.988 2.826-4.755 2.96zm1.23-3.326v.632l.499-.332-.499-.3z" fill="#484152"/><path d="M246.935 208.842c-.233 0-11.539-1.795-11.406 3.326.133 5.121 11.406 3.026 11.406 3.026a52.51 52.51 0 01-5.72-1.796l5.72-4.456" fill="#DEDEDF"/><path d="M242.213 216.224a10.402 10.402 0 01-6.152-1.363 3.333 3.333 0 01-1.264-2.66 3.327 3.327 0 011.064-2.594c2.494-2.328 8.647-1.663 10.675-1.43h.333l3.325-.832-2.76 2.129-4.722 3.624 4.456 1.264 3.126.865-3.326.598a30.834 30.834 0 01-4.855.399h.1zm.133-6.917a8.413 8.413 0 00-5.587 1.264 1.895 1.895 0 00-.598 1.497 1.86 1.86 0 00.764 1.529 9.98 9.98 0 005.986 1.131c-2.394-.698-2.427-.898-2.527-1.297v-.432l.366-.3 4.223-3.325h-2.561" fill="#484152"/><path d="M241.65 222.61l2.527 2.927 2.528-2.927h-5.055z" fill="#DEDEDF"/><path d="M244.177 226.667l-.565-.665-2.494-2.893-1.197-1.231h8.38l-4.124 4.789zm-.897-3.326l.897 1.065.932-1.065h-1.829z" fill="#484152"/><path d="M234.432 222.61l2.294 2.561 2.328-2.561h-4.622z" fill="#DEDEDF"/><path d="M236.728 226.3l-3.991-4.456h7.915l-3.924 4.456zm-.665-2.96l.665.732.665-.732h-1.33z" fill="#484152"/><path d="M210.988 148.884a133.006 133.006 0 013.325 21.982c.267 9.377.965 26.237.965 26.237s3.325-9.178 8.912-8.213c5.587.964 7.216 7.681 7.216 7.681s0-22.513-.964-30.228a199.45 199.45 0 00-4.589-20.917l-14.865 3.458z" fill="#DEDEDF"/><path d="M232.007 202.957l-1.463-6.219s-1.53-6.252-6.651-7.117c-5.122-.864-8.048 7.649-8.081 7.716l-1.264 3.591-.166-3.791s-.698-16.96-.965-26.238c-.5-7.362-1.612-14.67-3.325-21.848v-.698l16.162-3.791.199.665a204.566 204.566 0 014.589 21.017c.932 7.681.965 29.43.965 30.328v6.385zm-20.152-53.507a132.133 132.133 0 013.092 21.416c0 6.85.599 17.824.832 23.278 1.529-2.793 4.356-6.651 8.413-5.853a9.28 9.28 0 016.318 4.722c0-6.65-.232-20.75-.931-26.437a196.788 196.788 0 00-4.356-20.119l-13.368 2.993z" fill="#484152"/><path d="M224.158 149.582c-2.812.532-5.7.532-8.513 0a24.934 24.934 0 018.513 0z" fill="#DEDEDF"/><path d="M219.9 150.713c-4.989 0-4.989-.499-4.989-1.131s0-1.131 4.989-1.131c4.988 0 5.021.499 5.021 1.131s0 1.131-5.021 1.131z" fill="#484152"/><path d="M218.871 156.999l1.031 3.059h-4.257a8.048 8.048 0 006.651 3.326 5.726 5.726 0 005.254-3.126h-5.121l2.494-3.126-6.052-.133z" fill="#DEDEDF"/><path d="M221.765 164.014a8.817 8.817 0 01-6.651-3.525l-.832-1.164h4.656l-.998-3.092h8.447l-2.527 3.159h4.655l-.399.997a6.314 6.314 0 01-5.886 3.592h-.399l-.066.033zm-4.323-3.358a6.65 6.65 0 004.722 1.729 5.383 5.383 0 003.891-1.663h-5.288l-3.325-.066zm2.527-3.06l.964 2.927 2.361-2.927h-3.325z" fill="#484152"/><path d="M214.448 153.839s2.561 2.894 2.594 2.76c.033-.133 2.927-2.826 2.86-2.76-.067.067-5.454 0-5.454 0z" fill="#DEDEDF"/><path d="M216.974 157.364c-.366 0-.765-.399-3.093-3.026l-1.097-1.264h6.983l1.663-.166-.998 1.363-.199.167-2.594 2.494v.299h-.632l-.033.133zm-.831-2.893l.931.998.964-.965h-1.929" fill="#484152"/><path d="M225.122 156.733c-.299 0-.632-.266-1.629-1.064l-1.464-1.098h-1.928l1.629-1.23a.766.766 0 01.665 0l4.357.299h.465l.2.432c.199.499 0 .665-.832 1.597a7.757 7.757 0 00-.731.764v.233l-.399.2h-.333v-.133zm-.466-1.863l.333.233v-.199h-.499m1.23 18.489c-2.527 0-3.891-3.957-4.024-4.423l-.233-.698.699-.233c.166 0 .266 0 6.917.167h.997l-.332.931c0 .432-1.497 4.223-4.024 4.223v.033zm-2.228-3.924c.532 1.131 1.363 2.428 2.228 2.428.865 0 1.729-1.264 2.228-2.295h-4.456" fill="#484152"/><path d="M222.397 168.738s-6.352.632-8.314 3.325z" fill="#DEDEDF"/><path d="M214.678 172.594l-1.197-.831c2.228-3.325 8.846-3.758 8.912-3.758v1.497c-.964 0-6.152.831-7.748 3.092" fill="#484152"/><path d="M230.84 177.449c0 .333-1.562 4.656-4.389 4.224-2.827-.433-4.356-6.917-4.456-6.651a28.121 28.121 0 01-5.62 5.587c-1.996.997 0 2.66 9.976 1.164" fill="#DEDEDF"/><path d="M219.701 183.037c-2.394 0-4.356-.366-4.689-1.463 0-.299-.2-1.097 1.031-1.729a25.575 25.575 0 005.321-5.354l.266-.333h.465c.466 0 .566.366.798 1.064 1.197 3.592 2.428 5.521 3.658 5.687 2.062.332 3.326-3.126 3.559-3.625l1.463.233c0 .665-1.796 5.287-5.121 4.888a53.136 53.136 0 01-6.651.599l-.1.033zm-2.96-1.862c2.525.5 5.124.5 7.649 0a14.08 14.08 0 01-2.561-4.855 22.034 22.034 0 01-5.021 4.788" fill="#484152"/><path d="M215.145 196.506s-1.031 7.648 2.095 10.841c3.126 3.192 4.091 3.159 4.091 3.159s2.028-3.159 1.928-3.126c-.099.033-5.154-.798-4.855-3.625.3-2.826 12.537-4.389 11.839.233a4.56 4.56 0 01-3.691 3.775 4.552 4.552 0 01-1.863-.05l-.332 2.66a6.654 6.654 0 006.651-3.326 12.105 12.105 0 001.197-8.513s-1.829-9.544-8.014-9.577c-6.186-.033-7.782 3.558-8.913 7.615" fill="#DEDEDF"/><path d="M221.332 211.27c-.499 0-1.763-.465-4.622-3.325-3.326-3.325-2.362-11.14-2.295-11.473 1.164-4.157 2.893-8.214 9.644-8.147 6.75.066 8.679 9.577 8.679 9.91.731 3.07.268 6.304-1.297 9.045a7.08 7.08 0 01-6.651 3.691h-1.263v-.931l.332-2.694a23.829 23.829 0 01-1.995 3.326l-.233.332h-.399l.1.266zm-5.587-14.898c0 .665-.798 7.416 1.929 10.21a15.426 15.426 0 003.325 2.76l1.065-1.663a8.548 8.548 0 01-3.093-1.463 3.056 3.056 0 01-1.33-2.794c0-.631.499-1.563 2.294-2.327a11.901 11.901 0 019.977 0 2.695 2.695 0 011.064 2.66 4.813 4.813 0 01-1.929 3.325 5.883 5.883 0 01-3.725.965v1.097a5.585 5.585 0 005.022-2.993 11.307 11.307 0 001.097-7.948s-1.762-9.012-7.282-9.045c-5.654 0-7.017 3.326-8.115 7.017l-.299.199zm7.981 9.777l.3.399a.47.47 0 01.166.3v-.399h.765a4.888 4.888 0 003.325-.632 3.55 3.55 0 001.364-2.461 1.294 1.294 0 00-.532-1.297 10.777 10.777 0 00-8.447 0c-1.031.432-1.397.898-1.43 1.131-.032.41.1.816.366 1.13a7.338 7.338 0 003.658 1.696l.465.133z" fill="#484152"/><path d="M215.214 204.485l-1.131 25.373 17.425-10.142.133-4.789-7.781-4.157-4.988-1.862-3.658-4.423z" fill="#DEDEDF"/><path d="M213.285 231.189l1.263-28.665 4.889 5.686 4.755 1.763 8.314 4.423-.166 5.653-19.055 11.14zm2.56-24.774l-.964 22.147 15.896-9.278v-3.924l-7.283-3.824-5.055-1.863-2.594-3.258z" fill="#484152"/><path d="M221.765 217.687v-5.985l5.786 3.325-5.786 2.66zm1.463-3.325v1.131l1.097-.499-1.097-.632z" fill="#484152"/><path d="M220.365 212.634s-3.325.632-2.959 2.86c.365 2.228 2.959 2.028 2.959 2.028v-4.888z" fill="#DEDEDF"/><path d="M220.133 218.187a3.325 3.325 0 01-3.325-2.727c-.2-2.295 2.128-3.325 3.558-3.658l.865-.166v6.551h-1.098zm-.365-4.622c-.732.266-1.597.831-1.497 1.762.1.931.865 1.23 1.497 1.33v-3.092z" fill="#484152"/><path d="M237.492 232.021h-6.218v7.749l3.325-.532s2.428-7.35 7.981-7.35c5.554 0 4.29 10.875 4.29 10.875h-12.271l-3.658-.632" fill="#DEDEDF"/><path d="M247.371 243.493h-12.936l-3.791-.632.266-1.463 3.658.632h11.472a13.564 13.564 0 00-1.563-8.48 2.593 2.593 0 00-2.028-.931c-4.922 0-7.216 6.651-7.25 6.85v.433l-4.489.731v-9.344h6.984v1.463h-5.488v6.152l1.896-.332c.632-1.63 3.326-7.416 8.48-7.416a4.05 4.05 0 013.325 1.396c2.661 3.027 1.896 9.977 1.863 10.309l-.399.632z" fill="#484152"/><path d="M239.587 238.605s2.062-4.655 3.558.499z" fill="#DEDEDF"/><path d="M242.449 239.336c-.532-1.796-.998-1.929-.998-1.929s-.831.666-1.197 1.497l-1.33-.599c0-.432 1.164-2.461 2.627-2.361 1.463.1 1.962 1.729 2.328 2.96l-1.43.432z" fill="#484152"/><path d="M276.735 257.793c-10.609 0-23.279-1.131-35.549-2.328-3.16-.333-5.82-.599-7.749-.732-12.869-.997-67.939-.931-77.982-.332-4.256.266-17.658.465-33.254.698-22.514.366-50.547.798-58.761 1.53-12.072 1.13-36.946 1.496-40.205 0-2.261-1.131-2.993-4.789-3.924-9.411a55.215 55.215 0 00-1.663-6.817c-1.696-4.955-1.895-15.63-2.128-25.972v-6.186c-.333-11.339-.665-21.083-1.264-25.107a21.751 21.751 0 01.798-7.416 48.644 48.644 0 001.43-12.304c-.232-6.052.233-16.627 5.52-19.72a6.86 6.86 0 015.62-1.33 18.73 18.73 0 003.326.299c1.929 0 4.09.167 6.651.366 5.67.521 11.366.721 17.06.599l17.292-.699c19.288-.798 45.725-1.895 51.744-1.429 5.321.399 30.195.631 70.068.631 10.707 0 47.554-1.43 58.86-2.028 14.177-.82 28.389-.82 42.566 0 7.249.931 10.176 11.14 12.77 20.152.432 1.463.831 2.893 1.263 4.257 1.763 5.719 1.563 16.627 1.397 27.002a135.02 135.02 0 00.266 17.127c1.264 9.577-2.062 37.311-12.105 45.259-3.757 2.993-11.938 4.024-22.114 4.024l.067-.133zm-87.526-6.518c17.957 0 37.378.233 44.395.765l7.814.731c15.63 1.563 48.153 4.789 55.535-1.064 8.713-6.884 12.205-33.421 11.008-42.532a142.254 142.254 0 01-.3-17.592c0-9.744.366-20.784-1.263-26.072-.433-1.363-.832-2.826-1.264-4.29-2.361-8.147-4.988-17.358-10.342-18.057a374.358 374.358 0 00-42.001 0c-11.306.632-48.285 2.062-59.026 2.062-39.906 0-64.88-.233-70.301-.665-5.42-.432-33.254.698-51.411 1.463l-17.326.665c-5.793.14-11.59-.06-17.359-.598-2.46-.2-4.589-.366-6.385-.366a22.839 22.839 0 01-3.89-.299c-1.364-.2-1.63-.267-3.692.931-2.86 1.696-4.39 8.047-4.09 17.092a50.048 50.048 0 01-1.463 13.003 20.484 20.484 0 00-.798 6.352c.665 4.223.997 14.033 1.297 25.506 0 1.962 0 4.057.166 6.185.2 9.644.432 20.552 1.962 25.074a61.316 61.316 0 011.762 7.183c.566 2.76 1.397 6.884 2.362 7.383 2.128.964 23.743 1.23 38.608 0 8.314-.765 35.25-1.197 58.994-1.53 15.463-.266 28.798-.466 33.021-.698 4.224-.233 18.756-.466 33.987-.466" fill="#2A1F2E"/><path d="M153.759 141.434s2.56 35.882 2.228 52.875a422.361 422.361 0 01-2.228 45.791 36.224 36.224 0 01-5.454 15.065c3.941.891 8.031.891 11.972 0 4.688-1.596 5.852-27.901 6.95-45.792 1.596-26.603-1.929-69.535-1.929-69.535l-11.539 1.596z" fill="#6D96C4"/><path opacity=".64" d="M165.097 139.838l-6.651.898c.466 6.252 3.326 44.262 1.829 68.637-1.064 17.891-2.228 44.196-6.917 45.792-.703.232-1.427.399-2.161.499 2.918.444 5.897.274 8.746-.499 4.689-1.596 5.853-27.901 6.917-45.792 1.596-26.603-1.929-69.535-1.929-69.535" fill="#ABD1F2"/><path d="M155.221 257.359a38.306 38.306 0 01-7.084-.731l-2.228-.499 1.364-1.829a35.988 35.988 0 005.188-14.433 416.237 416.237 0 002.194-44.361v-1.231c.333-16.627-2.194-52.376-2.228-52.741v-1.364l14.466-2.028v1.563c0 .432 3.525 43.231 1.929 69.834l-.233 4.19c-1.663 28.466-3.159 41.402-7.682 42.932-1.84.572-3.76.841-5.686.798v-.1zm-4.357-3.225c3.017.514 6.108.401 9.079-.333 3.325-1.164 4.955-27.601 5.686-40.305l.266-4.19a619.776 619.776 0 00-1.795-67.772l-8.613 1.197c.432 6.651 2.427 36.58 2.128 51.611v1.264a407.532 407.532 0 01-2.228 44.76 42.32 42.32 0 01-4.489 13.768" fill="#2A1F2E"/><path d="M196.16 91.186c7.981 1.829 9.976 11.672 13.301 22.879 3.326 11.207 7.217 28.067 0 33.82-7.216 5.753-38.508 2.893-44.461 0-5.953-2.893-2.527-43.464 5.72-50.514a27.398 27.398 0 0125.306-6.185" fill="#FBFBF2"/><path d="M188.344 109.876c-8.779-1.596-18.49 13.302-25.373 27.003.266-13.9 1.33-34.418 7.914-40.737 7.782-7.482 16.628-5.919 25.307-4.955 8.014.865 9.976 10.442 13.302 21.649 2.56 8.547 5.387 20.319 3.325 28-6.285-13.601-15.663-29.297-24.708-30.96" fill="#DFDFE0"/><path d="M164.502 149.215c-1.763-.864-2.694-3.325-2.96-7.682-.565-10.342-1.729-29.131 4.39-40.404a23.896 23.896 0 016.651-7.549 25.865 25.865 0 012.56-1.762c5.753-3.326 13.834-2.162 21.183-1.33 7.35.831 10.542 7.781 13.302 17.591.499 1.863.998 3.758 1.563 5.587 5.687 18.988 5.521 30.561-.499 35.383-3.325 2.694-11.206 3.658-19.553 3.658-10.941 0-22.746-1.696-26.604-3.492h-.033zm31.558-56.533c-7.449-.83-20.917.333-24.375 6.651-3.459 6.319-8.081 26.072-7.15 42.134.233 3.857.998 5.055 1.297 5.188 5.454 2.627 36.281 5.487 42.932 0 3.325-2.694 6.019-10.476-.499-32.224-.565-1.829-1.064-3.758-1.596-5.653-2.528-9.245-4.922-15.564-10.609-16.195" fill="#2A1F2E"/><path d="M80.564 107.448c-3.326.465-15.23 18.423-9.777 28.832 5.454 10.408 12.803 7.914 16.627 1.563 3.825-6.352 5.122-31.991-6.883-30.395" fill="#FBFBF2"/><path d="M80.564 107.448c-3.326.465-15.23 18.423-9.777 28.832 5.454 10.408 12.803 7.914 16.627 1.563 3.825-6.352 5.122-31.991-6.883-30.395" fill="#CDCCCD"/><path d="M79.47 144.826h-.267c-2.594 0-6.385-1.496-9.71-7.848-3.891-7.449.366-17.325 2.394-21.216 2.328-4.456 5.953-9.444 8.48-9.777a8.016 8.016 0 018.147 3.891c5.022 7.648 3.326 23.744.2 28.732a11.477 11.477 0 01-9.245 6.218zm1.296-35.915a25.146 25.146 0 00-7.416 10.609c-1.63 3.791-3.99 10.874-1.263 16.095 2.128 4.024 4.622 6.185 7.216 6.252a8.448 8.448 0 006.884-4.789c2.494-4.124 4.057-19.188 0-25.573a5.12 5.12 0 00-5.288-2.594" fill="#2A1F2E"/><path d="M101.549 89.325c-6.983 0-15.397 17.758-17.791 29.929s1.43 23.079 11.04 23.811c9.611.731 15.431.232 20.685-3.725 5.254-3.957 3.325-19.587 0-29.198-3.326-9.61-3.326-20.95-13.934-20.883" fill="#FBFBF2"/><path d="M115.483 109.377c-3.325-9.611-3.325-20.95-13.967-20.884-6.95 0-15.363 17.758-17.758 29.929a36.576 36.576 0 00-.698 6.152c3.525-11.14 10.276-23.278 16.062-23.278 10.575 0 10.575 11.273 13.967 20.884a60.624 60.624 0 013.325 15.629c4.29-4.888 2.461-19.354-.764-28.466" fill="#DFDFE0"/><path d="M101.216 145.025c-1.995 0-4.157 0-6.651-.266a12.655 12.655 0 01-9.311-5.021 26.036 26.036 0 01-3.093-20.518c2.128-10.874 10.608-31.126 19.221-31.193 9.278 0 11.373 7.848 13.302 15.497.565 2.095 1.131 4.29 1.862 6.351 3.326 9.711 5.654 26.238-.499 30.861a23.278 23.278 0 01-14.831 4.289zm.332-54.072c-5.52 0-13.9 16.295-16.36 28.832a23.578 23.578 0 002.56 18.157 9.555 9.555 0 003.172 2.68 9.554 9.554 0 004.01 1.078c9.146.698 14.699.366 19.688-3.325 4.156-3.126 3.325-17.127-.499-27.535-.765-2.162-1.364-4.423-1.929-6.651-2.195-8.214-3.858-13.302-10.542-13.302" fill="#2A1F2E"/><path d="M131.344 88.726c-8.014.865-9.976 14.067-13.468 25.307-3.492 11.24-7.183 28.033 0 33.786s38.542 2.893 44.495 0c5.952-2.893 2.693-45.991-5.554-53.007-8.247-7.017-16.827-7.05-25.473-6.086" fill="#FBFBF2"/><path d="M139.193 109.809c8.779-1.596 18.489 13.302 25.373 27.003-.266-13.901-1.164-36.946-7.748-43.231-7.782-7.482-16.827-7.05-25.473-6.086-8.015.898-9.977 14.1-13.302 25.307-2.561 8.546-5.387 20.319-3.326 28 6.286-13.601 15.663-29.297 24.709-30.96" fill="#DFDFE0"/><path d="M136.532 152.642c-8.347 0-16.195-.965-19.554-3.658-6.019-4.822-6.185-16.395-.499-35.383a275.861 275.861 0 001.563-5.587c2.694-9.777 5.454-19.953 13.136-20.784 7.682-.832 13.468-1.364 20.185 1.563a27.822 27.822 0 013.791 2.194 28.391 28.391 0 016.651 8.68c6.119 11.273 4.789 31.459 4.19 41.801-.233 4.39-1.164 6.651-2.926 7.682-3.758 1.796-15.563 3.325-26.604 3.325l.067.167zm-5.088-62.619c-5.687.632-8.081 9.345-10.608 18.589-.533 1.896-1.031 3.825-1.597 5.654-6.651 21.748-3.857 29.53-.499 32.223 6.651 5.321 37.478 2.495 42.932-.166.299 0 1.064-1.33 1.297-5.188.898-16.062-2.527-38.941-6.983-44.66-4.456-5.72-17.093-7.283-24.542-6.452" fill="#2A1F2E"/><path d="M62.607 152.907l-2.927-.399c.267-2.028 6.984-49.582 30.295-66.509 17.359-12.537 39.474-7.915 58.961-3.858a184.26 184.26 0 0020.85 3.592c52.11 4.656 86.462 26.138 102.025 63.816l-2.727 1.13c-15.13-36.58-48.651-57.464-99.564-62.02a187.385 187.385 0 01-21.183-3.624c-19.953-4.124-40.304-8.414-56.533 3.325-22.28 16.095-29.03 63.982-29.097 64.447" fill="#2A1F2E"/></svg>