<svg width="1046" height="82" viewBox="0 0 1046 82" fill="none" xmlns="http://www.w3.org/2000/svg">
<path d="M86.7561 2H73.4842H26.5437H7.15283H0V82H26.5437V28.6573H73.4842V82H100V2H86.7561Z" fill="#BD2D43"/>
<path d="M891.191 2V27.974H843.781V2H817V82H843.781V54.65H891.191V82H918V2H891.191Z" fill="#BD2D43"/>
<path d="M790 21.9663V0H726.989H707.273H700V80H707.273H726.989H790V58.0337H726.989V50.9831H785.341V29.0168H726.989V21.9663H790Z" fill="#BD2D43"/>
<path d="M343 0H303.075H275.925H236V26.6573H275.925V80H303.075V26.6573H343V0Z" fill="#BD2D43"/>
<path d="M187.111 82H156.917C146.207 81.9801 135.93 77.7211 128.284 70.1339C120.637 62.5466 116.228 52.2334 116 41.3997V41.3997V40.6003C116.221 29.7642 120.628 19.4468 128.276 11.858C135.924 4.26923 146.205 0.0126154 156.917 0H187.111C197.823 0.00545355 208.105 4.2606 215.75 11.8517C223.395 19.4428 227.793 29.7645 228 40.6003V40.6003V41.3997C227.786 52.2332 223.385 62.5506 215.742 70.1402C208.098 77.7297 197.82 81.9872 187.111 82ZM141.961 41C142.064 44.9058 143.67 48.6165 146.438 51.3417C149.205 54.0669 152.914 55.5912 156.776 55.5898H186.97C188.864 55.5898 190.739 55.2125 192.488 54.4792C194.238 53.746 195.827 52.6713 197.166 51.3166C198.505 49.9618 199.567 48.3534 200.292 46.5833C201.017 44.8132 201.39 42.916 201.39 41C201.39 39.084 201.017 37.1868 200.292 35.4167C199.567 33.6466 198.505 32.0382 197.166 30.6834C195.827 29.3287 194.238 28.254 192.488 27.5208C190.739 26.7875 188.864 26.4102 186.97 26.4102H156.917C153.055 26.4088 149.346 27.9331 146.579 30.6583C143.811 33.3835 142.205 37.0942 142.102 41" fill="#BD2D43"/>
<path d="M1005.47 79.8886H975.559C964.941 79.8907 954.746 75.7435 947.162 68.3375C939.579 60.9315 935.212 50.8574 935 40.2785V40.2785V39.61C935.212 29.0408 939.571 18.975 947.142 11.5706C954.714 4.16615 964.895 0.0124606 975.503 9.22759e-07H1005.41C1016.03 -0.0022583 1026.23 4.14407 1033.82 11.5493C1041.41 18.9545 1045.78 29.0287 1046 39.61V39.61V40.39C1045.78 50.9617 1041.42 61.0275 1033.84 68.4312C1026.26 75.8349 1016.08 79.9877 1005.47 80V79.8886ZM960.744 40C960.853 43.8082 962.447 47.4244 965.186 50.0816C967.926 52.7389 971.596 54.2283 975.42 54.234H1005.33C1009.12 54.234 1012.75 52.7343 1015.43 50.065C1018.11 47.3956 1019.61 43.7751 1019.61 40C1019.61 36.2249 1018.11 32.6045 1015.43 29.9351C1012.75 27.2657 1009.12 25.766 1005.33 25.766H975.42C971.596 25.7717 967.926 27.2611 965.186 29.9184C962.447 32.5756 960.853 36.1918 960.744 40" fill="#BD2D43"/>
<path d="M457 33.882C456.845 25.3823 453.339 17.2821 447.237 11.321C441.134 5.35987 432.922 2.01331 424.362 2H362V82H388.868V66.2978H424.362C432.922 66.2845 441.134 62.9379 447.237 56.9768C453.339 51.0157 456.845 42.9155 457 34.4157V33.882V33.882ZM424.362 40.3146H388.868V27.955H424.362C426.013 27.955 427.595 28.6061 428.762 29.7651C429.929 30.924 430.584 32.4959 430.584 34.1348C430.584 35.7738 429.929 37.3457 428.762 38.5046C427.595 39.6635 426.013 40.3146 424.362 40.3146" fill="#BD2D43"/>
<path d="M490.088 80L495.184 68.0366H538.126L543.222 80H570.395L572 79.3244L538.21 0H495.212L461 80H490.088ZM516.641 17.8466L526.693 41.323H506.616L516.641 17.8466Z" fill="#BD2D43"/>
<path d="M671.663 2.0281H645.35V24.2753C644.637 27.5579 642.822 30.497 640.205 32.6029C637.589 34.7088 634.33 35.8542 630.972 35.8483H612.719C608.823 35.8484 605.086 34.3062 602.324 31.5588C599.561 28.8114 597.998 25.082 597.976 21.1854C597.976 18.545 597.976 10.6798 597.976 2H572C572 10.427 572 18.1798 572 21.1011V21.8596C572.206 32.5202 576.583 42.675 584.191 50.1433C591.799 57.6117 602.031 61.798 612.691 61.8034H630.944C635.86 61.8055 640.734 60.9008 645.322 59.1348V82H672V2.0281H671.663Z" fill="#BD2D43"/>
</svg>
