<svg width="163" height="114" fill="none" xmlns="http://www.w3.org/2000/svg"><path stroke="#444" stroke-width=".775" d="M47.926 56.454l10.786-40.255M98.77 27.098L58.515 16.312"/><circle cx="58.714" cy="16.714" r="2.714" fill="#C4C4C4"/><path d="M3.877 90.41a7.755 7.755 0 012.839-10.593L36.24 62.771l36.24-20.924 36.254-20.93 29.513-17.04a7.754 7.754 0 0110.593 2.839l9.732 16.856a7.755 7.755 0 01-2.838 10.594l-131.532 75.94a7.755 7.755 0 01-10.593-2.839L3.877 90.411z" fill="#fff"/><path d="M3.877 90.41a7.755 7.755 0 012.839-10.593L36.24 62.771l36.24-20.924 36.254-20.93 29.513-17.04a7.754 7.754 0 0110.593 2.839l9.732 16.856a7.755 7.755 0 01-2.838 10.594l-131.532 75.94a7.755 7.755 0 01-10.593-2.839L3.877 90.411z" fill="#C93A48"/></svg>